<?xml version="1.0" encoding="UTF-8"?>
<svg width="36px" height="36px" viewBox="0 0 36 36" version="1.1" xmlns="http://www.w3.org/2000/svg" xmlns:xlink="http://www.w3.org/1999/xlink">
    <!-- Generator: Sketch 57.1 (83088) - https://sketch.com -->
    <title>contact_zoom</title>
    <desc>Created with Sketch.</desc>
    <g id="シミュレーション" stroke="none" stroke-width="1" fill="none" fill-rule="evenodd">
        <g id="DEV_ADMIN_UI-1675_プレミアムプラン" transform="translate(-216.000000, -1442.000000)">
            <g id="zoom_logo_icon_147196" transform="translate(216.000000, 1442.000000)">
                <path d="M18,36 C27.9411,36 36,27.9411 36,18 C36,8.0589 27.9411,0 18,0 C8.0589,0 0,8.0589 0,18 C0,27.9411 8.0589,36 18,36 Z" id="Path" fill="#2D8CFF" fill-rule="nonzero"></path>
                <path d="M28.7203967,11.7119845 L23.6525272,15.4170692 L23.6525272,20.097184 L28.7203967,23.8022687 C29.0789664,24.0767416 29.5,24.1615692 29.5,23.4122716 L29.5,12.1019816 C29.5,11.433843 29.1621271,11.3499139 28.7203967,11.7119845 Z M6.5,20.5626499 L6.5,12.1252662 C6.5,11.7801161 6.78175254,11.500028 7.12930885,11.500028 L19.4093903,11.500028 C21.321488,11.500028 22.8729239,13.0389779 22.8729239,14.937378 L22.8729239,23.3747618 C22.8729239,23.7199119 22.5911639,24 22.2435777,24 L9.96351865,24 C8.05142097,24 6.5,22.4610501 6.5,20.5626499 Z" id="Shape" fill="#FFFFFF"></path>
            </g>
        </g>
    </g>
</svg>