<?xml version="1.0" encoding="UTF-8"?>
<svg width="36px" height="36px" viewBox="0 0 36 36" version="1.1" xmlns="http://www.w3.org/2000/svg" xmlns:xlink="http://www.w3.org/1999/xlink">
    <!-- Generator: Sketch 57.1 (83088) - https://sketch.com -->
    <title>contact_tel</title>
    <desc>Created with Sketch.</desc>
    <g id="シミュレーション" stroke="none" stroke-width="1" fill="none" fill-rule="evenodd">
        <g id="DEV_ADMIN_UI-1675_プレミアムプラン" transform="translate(-457.000000, -1441.000000)">
            <g id="icon_tel" transform="translate(457.000000, 1441.000000)">
                <path d="M18,0 C8.05907812,0 0,8.05900781 0,18 C0,27.9409219 8.05907812,36 18,36 C27.9409219,36 36,27.9409219 36,18 C36,8.05900781 27.9409922,0 18,0 Z M26.4155625,25.6068984 C26.1980156,25.8601641 24.1529062,28.5517969 20.8976484,27.4180078 C17.6413359,26.2842187 15.1325859,24.2259609 13.29075,22.0396641 C11.4483516,19.8533672 9.8454375,17.0321484 9.27963281,13.6312734 C8.71495313,10.2304687 11.7137109,8.6720625 12.000375,8.50007812 C12.2871094,8.32809375 13.5450703,8.02989844 14.10975,8.86978125 C14.6728125,9.70973437 15.6786328,12.2689687 15.7675781,12.8864531 C15.8570859,13.5038672 15.2105625,14.1872344 14.4673594,14.3283516 C13.7235938,14.4695391 13.7609297,14.8546406 13.7609297,14.8546406 C13.7609297,14.8546406 14.1740156,16.3570078 16.6074609,19.2448125 C19.0414687,22.1325469 20.4515859,22.7944687 20.4515859,22.7944687 C20.4515859,22.7944687 20.8240313,22.8961406 21.0898828,22.1874609 C21.3546797,21.4788516 22.1379609,20.9575547 22.7312578,21.1503516 C23.3245547,21.3431484 25.6761562,22.7680312 26.4089531,23.4657422 C27.140625,24.1644375 26.6336719,25.3537031 26.4155625,25.6068984 Z" id="Shape" fill="#2D8CFF" fill-rule="nonzero"></path>
                <path d="M26.4155625,25.6068984 C26.1980156,25.8601641 24.1529062,28.5517969 20.8976484,27.4180078 C17.6413359,26.2842188 15.1325859,24.2259609 13.29075,22.0396641 C11.4483516,19.8533672 9.8454375,17.0321484 9.27963281,13.6312734 C8.71495312,10.2304688 11.7137109,8.6720625 12.000375,8.50007813 C12.2871094,8.32809375 13.5450703,8.02989844 14.10975,8.86978125 C14.6728125,9.70973438 15.6786328,12.2689688 15.7675781,12.8864531 C15.8570859,13.5038672 15.2105625,14.1872344 14.4673594,14.3283516 C13.7235937,14.4695391 13.7609297,14.8546406 13.7609297,14.8546406 C13.7609297,14.8546406 14.1740156,16.3570078 16.6074609,19.2448125 C19.0414687,22.1325469 20.4515859,22.7944688 20.4515859,22.7944688 C20.4515859,22.7944688 20.8240312,22.8961406 21.0898828,22.1874609 C21.3546797,21.4788516 22.1379609,20.9575547 22.7312578,21.1503516 C23.3245547,21.3431484 25.6761562,22.7680313 26.4089531,23.4657422 C27.140625,24.1644375 26.6336719,25.3537031 26.4155625,25.6068984 Z" id="Path" fill="#FFFFFF"></path>
            </g>
        </g>
    </g>
</svg>