<?xml version="1.0" encoding="utf-8"?>
<!-- Generator: Adobe Illustrator 22.0.1, SVG Export Plug-In . SVG Version: 6.00 Build 0)  -->
<svg version="1.1" id="レイヤー_1" xmlns="http://www.w3.org/2000/svg" xmlns:xlink="http://www.w3.org/1999/xlink" x="0px"
	 y="0px" viewBox="0 0 24 24" style="enable-background:new 0 0 24 24;" xml:space="preserve">
<style type="text/css">
	.st0{fill:none;stroke:#FFFFFF;stroke-width:0.5;stroke-linecap:round;stroke-linejoin:round;stroke-miterlimit:10;}
</style>
<path class="st0" d="M19,15.7l-2.1,3.1c-1.5-0.9-3.2-1.3-5-1.4c-1.8,0-3.5,0.5-5,1.4l-2.1-3.1c2.1-1.3,4.5-2,7.1-2
	C14.5,13.7,16.9,14.4,19,15.7z M22.9,18.3h-2.2L20.2,21c-0.6-0.9-1.3-1.8-2.1-2.5l2.2-3.1C21.3,16.3,22.2,17.2,22.9,18.3z M3.4,15.5
	l2.2,3.1c-0.8,0.7-1.5,1.5-2.1,2.5L3,18.3H0.8C1.6,17.2,2.4,16.3,3.4,15.5z"/>
<path class="st0" d="M13.6,9.2l1.9-1.9L12.9,7l-1.1-2.4L10.7,7L8.1,7.3L10,9.2l-0.5,2.7l2.3-1.3l2.3,1.3L13.6,9.2z"/>
<path class="st0" d="M5.8,13.7C5,12.5,4.5,11.1,4.5,9.5c0-4.1,3.3-7.4,7.4-7.4s7.4,3.3,7.4,7.4c0,1.5-0.5,2.9-1.3,4.1"/>
</svg>
