<?xml version="1.0" encoding="UTF-8"?>
<svg width="43px" height="33px" viewBox="0 0 43 33" version="1.1" xmlns="http://www.w3.org/2000/svg" xmlns:xlink="http://www.w3.org/1999/xlink">
    <!-- Generator: Sketch 57.1 (83088) - https://sketch.com -->
    <title>Group 2</title>
    <desc>Created with Sketch.</desc>
    <g id="提供プラン" stroke="none" stroke-width="1" fill="none" fill-rule="evenodd">
        <g id="Artboard-Copy-3" transform="translate(-823.000000, -3081.000000)" fill="#0EAA7C" fill-rule="nonzero">
            <g id="Group-19" transform="translate(312.000000, 3049.000000)">
                <g id="Group-17" transform="translate(416.000000, 0.000000)">
                    <g id="Group-16" transform="translate(95.000000, 32.000000)">
                        <g id="Group-2">
                            <g id="メールの無料アイコン-(1)" transform="translate(0.000000, 0.333333)">
                                <g id="Group-8">
                                    <path d="M41.38025,-1.77635684e-15 L1.2865,-1.77635684e-15 C0.576833333,-1.77635684e-15 0,0.594369899 0,1.32689946 L0,3.93647698 L21.3333333,18.6666667 L42.6666667,3.93510311 L42.6666667,1.32689946 C42.6666667,0.594369899 42.0898333,-1.77635684e-15 41.38025,-1.77635684e-15 Z" id="Path"></path>
                                    <path d="M0,10.6679539 L0,27.0308868 C0,29.7762643 2.30341667,32 5.14841667,32 L37.51825,32 C40.3633333,32 42.6666667,29.7762643 42.6666667,27.0308868 L42.6666667,10.6666667 L21.3333333,24.4690171 L0,10.6679539 Z" id="Path"></path>
                                </g>
                            </g>
                        </g>
                    </g>
                </g>
            </g>
        </g>
    </g>
</svg>