<?xml version="1.0" encoding="UTF-8"?>
<svg width="72px" height="32px" viewBox="0 0 72 32" version="1.1" xmlns="http://www.w3.org/2000/svg" xmlns:xlink="http://www.w3.org/1999/xlink">
    <!-- Generator: Sketch 57.1 (83088) - https://sketch.com -->
    <title>contact_showroom</title>
    <desc>Created with Sketch.</desc>
    <g id="提供プラン" stroke="none" stroke-width="1" fill="none" fill-rule="evenodd">
        <g id="Artboard-Copy-3" transform="translate(-926.000000, -3217.000000)" fill="#0EAA7C" fill-rule="nonzero">
            <g id="Group-19" transform="translate(926.000000, 3215.000000)">
                <g id="contact_showroom" transform="translate(0.000000, 2.000000)">
                    <path d="M31.5870556,-5.33333333 L11.3866667,-5.33333333 C8.53902778,-5.33333333 6.22222222,-3.34766667 6.22222222,-0.906583333 L6.22222222,32.9065833 C6.22222222,35.3474167 8.53902778,37.3333333 11.3866667,37.3333333 L31.5870556,37.3333333 C34.4348889,37.3333333 36.7515972,35.3473333 36.7515972,32.9069167 L36.7515972,-0.906583333 C36.7515972,-3.34766667 34.4348889,-5.33333333 31.5870556,-5.33333333 Z M33.6941528,-0.394083333 L33.6941528,31.95225 C33.6941528,33.0568195 32.7987223,33.95225 31.6941528,33.95225 L11.2795694,33.95225 C10.1749999,33.95225 9.27956944,33.0568195 9.27956944,31.95225 L9.27956944,-0.394083333 C9.27956944,-1.49865283 10.1749999,-2.39408333 11.2795694,-2.39408333 L31.6941528,-2.39408333 C32.7987223,-2.39408333 33.6941528,-1.49865283 33.6941528,-0.394083333 Z M11.5555556,-4.12114787e-13 L31.1111111,-4.12114787e-13 L31.1111111,32 L11.5555556,32 L11.5555556,-4.12114787e-13 Z" id="Shape-Copy" transform="translate(21.486910, 16.000000) rotate(90.000000) translate(-21.486910, -16.000000) "></path>
                    <path d="M63.1426111,7.55555556 L52.72,7.55555556 C49.8723611,7.55555556 47.5555556,9.54122222 47.5555556,11.9823056 L47.5555556,29.7954722 C47.5555556,32.2363056 49.8723611,34.2222222 52.72,34.2222222 L63.1426111,34.2222222 C65.9904444,34.2222222 68.3071528,32.2362222 68.3071528,29.7958056 L68.3071528,11.9823056 C68.3071528,9.54122222 65.9904444,7.55555556 63.1426111,7.55555556 Z M65.2497083,12.4948056 L65.2497083,28.8411389 C65.2497083,29.9457084 64.3542778,30.8411389 63.2497083,30.8411389 L52.6129028,30.8411389 C51.5083333,30.8411389 50.6129028,29.9457084 50.6129028,28.8411389 L50.6129028,12.4948056 C50.6129028,11.3902361 51.5083333,10.4948056 52.6129028,10.4948056 L63.2497083,10.4948056 C64.3542778,10.4948056 65.2497083,11.3902361 65.2497083,12.4948056 Z M53.7777778,13.7777778 L57.3333333,13.7777778 L57.3333333,27.1111111 L53.7777778,27.1111111 L53.7777778,13.7777778 Z" id="Shape-Copy-2" transform="translate(57.931354, 20.888889) rotate(90.000000) translate(-57.931354, -20.888889) "></path>
                </g>
            </g>
        </g>
    </g>
</svg>