<?xml version="1.0" encoding="UTF-8"?>
<svg width="40px" height="44px" viewBox="0 0 40 44" version="1.1" xmlns="http://www.w3.org/2000/svg" xmlns:xlink="http://www.w3.org/1999/xlink">
    <!-- Generator: Sketch 57.1 (83088) - https://sketch.com -->
    <title>Path Copy 2</title>
    <desc>Created with Sketch.</desc>
    <g id="提供プラン" stroke="none" stroke-width="1" fill="none" fill-rule="evenodd">
        <g id="Artboard-Copy-3" transform="translate(-374.000000, -3075.000000)" fill="#0EAA7C">
            <g id="Group-19" transform="translate(312.000000, 3049.000000)">
                <g id="Group-18">
                    <g id="Group-15" transform="translate(62.000000, 26.000000)">
                        <path d="M39.0444595,39.2608378 C38.55081,39.8355389 33.9101227,45.9432935 26.5234109,43.3705409 C19.1343058,40.7977883 13.4415421,36.127265 9.26211546,31.1662002 C5.08141238,26.2051354 1.44413848,19.8033291 0.160235195,12.086188 C-1.12111528,4.36920654 5.68355616,0.832928138 6.33404375,0.442667491 C6.9846909,0.0524068445 9.8392098,-0.624247041 11.1205603,1.28158429 C12.3982411,3.18757517 14.6806117,8.99489611 14.8824432,10.396069 C15.085551,11.7970824 13.6184837,13.3477542 11.9320344,13.6679722 C10.2443086,13.9883497 10.32903,14.8622081 10.32903,14.8622081 C10.32903,14.8622081 11.2663895,18.2713247 16.7882745,24.8242253 C22.3114359,31.3769665 25.5112222,32.8789753 25.5112222,32.8789753 C25.5112222,32.8789753 26.3563615,33.1096854 26.9596221,31.5015754 C27.5604895,29.893625 29.3378826,28.7107172 30.6841701,29.1482048 C32.0304577,29.5856924 37.3666259,32.8189843 39.0294617,34.4022044 C40.6897447,35.9876583 39.5393853,38.6862963 39.0444595,39.2608378 Z" id="Path-Copy-2"></path>
                    </g>
                </g>
            </g>
        </g>
    </g>
</svg>