<?xml version="1.0" encoding="utf-8"?>
<!-- Generator: Adobe Illustrator 22.0.1, SVG Export Plug-In . SVG Version: 6.00 Build 0)  -->
<svg version="1.1" id="レイヤー_1" xmlns="http://www.w3.org/2000/svg" xmlns:xlink="http://www.w3.org/1999/xlink" x="0px"
	 y="0px" viewBox="0 0 24 24" style="enable-background:new 0 0 24 24;" xml:space="preserve">
<style type="text/css">
	.st0{fill:#F78257;}
	.st1{font-family:'BebasKai';}
	.st2{font-size:7.2759px;}
</style>
<text transform="matrix(1 0 0 1 5.4043 6.1848)" class="st0 st1 st2">STEP4</text>
<path class="st0" d="M21.3,11c0-0.9-0.7-1.6-1.6-1.6H3.9C3,9.4,2.3,10.1,2.3,11v11.1c0,0.9,0.7,1.6,1.6,1.6h15.9
	c0.9,0,1.6-0.7,1.6-1.6V11z M19,22.1H4.7V11H19V22.1z M20.2,16.9c-0.2,0-0.4-0.2-0.4-0.4s0.2-0.4,0.4-0.4c0.2,0,0.4,0.2,0.4,0.4
	S20.4,16.9,20.2,16.9z"/>
</svg>
