<?xml version="1.0" encoding="utf-8"?>
<!-- Generator: Adobe Illustrator 23.0.3, SVG Export Plug-In . SVG Version: 6.00 Build 0)  -->
<svg version="1.1" id="レイヤー_1" xmlns="http://www.w3.org/2000/svg" xmlns:xlink="http://www.w3.org/1999/xlink" x="0px"
	 y="0px" viewBox="0 0 24 24" style="enable-background:new 0 0 24 24;" xml:space="preserve">
<style type="text/css">
	.st0{enable-background:new    ;}
	.st1{fill:#F78257;}
</style>
<g class="st0">
	<path class="st1" d="M7.9,2.2v0.1L7.1,2.4V2.2c0-0.3-0.1-0.4-0.4-0.4S6.3,1.9,6.3,2.2v0.1c0,0.3,0.1,0.6,0.6,1c0.7,0.6,1,1,1,1.6
		v0.3c0,0.7-0.4,1.1-1.2,1.1C6,6.3,5.6,5.8,5.6,5.1V4.8l0.7-0.1v0.4c0,0.3,0.1,0.5,0.4,0.5c0.3,0,0.4-0.2,0.4-0.5V4.9
		c0-0.3-0.2-0.6-0.7-1c-0.7-0.6-0.9-1-0.9-1.6V2.2C5.6,1.4,6,1,6.7,1S7.9,1.4,7.9,2.2z"/>
	<path class="st1" d="M9.7,1.8v4.4H8.9V1.8H8.1V1.1h2.4v0.7H9.7z"/>
	<path class="st1" d="M11.7,1.8v1.4h1.1V4h-1.1v1.5h1.4v0.7H11V1.1h2.2v0.7H11.7z"/>
	<path class="st1" d="M14.9,1.1c0.8,0,1.3,0.5,1.3,1.3v0.4c0,0.8-0.5,1.3-1.3,1.3h-0.3v2.1h-0.8V1.1H14.9z M14.6,3.4h0.3
		c0.4,0,0.5-0.2,0.5-0.6V2.4c0-0.4-0.2-0.6-0.5-0.6h-0.3V3.4z"/>
	<path class="st1" d="M19.2,4.4v0.7h-0.4v1.1h-0.8V5.1h-1.6V4.5l1.6-3.4h0.8v3.3H19.2z M17.2,4.4h0.9V2.6h0L17.2,4.4z"/>
</g>
<path class="st1" d="M22.3,22.6h-3.7c-0.6,0-1.2-0.5-1.2-1.2v-4.6c0-0.6,0.5-1.2,1.2-1.2h3.7c0.6,0,1.2,0.5,1.2,1.2v4.6
	C23.5,22,22.9,22.6,22.3,22.6z"/>
<path class="st1" d="M15.2,12.9H2.3c-0.6,0-1.2,0.5-1.2,1.2v7.3c0,0.6,0.5,1.2,1.2,1.2h12.9c0.6,0,1.2-0.5,1.2-1.2v-7.3
	C16.4,13.4,15.8,12.9,15.2,12.9z M14.7,20.2c0,0.4-0.4,0.8-0.8,0.8H3.8C3.3,21,3,20.6,3,20.2v-4.9c0-0.4,0.4-0.8,0.8-0.8h10.1
	c0.4,0,0.8,0.4,0.8,0.8C14.7,15.3,14.7,20.2,14.7,20.2z"/>
</svg>
