<svg height="73" viewBox="0 0 75 73" width="75" xmlns="http://www.w3.org/2000/svg"><g fill="#f78257" transform="translate(0 .044)"><path d="m15.22 13.552 2.576-.112v.812c0 1.932.336 2.548 1.344 2.548.784 0 1.176-.644 1.176-1.848 0-1.232-.308-1.96-1.596-3.668l-1.288-1.904c-1.596-2.408-2.128-3.696-2.128-5.348 0-2.464 1.484-4.032 3.836-4.032 1.764 0 3.052 1.008 3.416 2.716.14.7.14.784.14 2.324l-2.548.252c0-.952-.028-1.288-.084-1.68-.084-.756-.504-1.176-1.092-1.176-.7 0-1.092.616-1.092 1.736 0 1.148.112 1.4 1.848 4.004l1.316 1.904c1.204 1.764 1.876 3.668 1.876 5.264 0 2.492-1.372 3.892-3.808 3.892-1.4 0-2.38-.448-3.108-1.428-.616-.84-.812-1.624-.812-3.248 0-.392 0-.56.028-1.008zm10.976 5.404v-16.24h-2.436v-2.436h7.588v2.436h-2.548v16.24zm6.468-18.676h6.3v2.436h-3.696v5.236h2.576v2.436h-2.576v6.132h3.92v2.436h-6.524zm8.232 0h2.464c2.268 0 3.108.28 3.864 1.232.784.98 1.008 1.96 1.008 4.34 0 2.492-.224 3.444-.98 4.312-.672.784-1.82 1.204-3.388 1.204h-.364v7.588h-2.604zm2.604 8.68h.364c1.54 0 1.848-.504 1.848-3.136 0-2.604-.308-3.108-1.848-3.108h-.364zm10.36 9.996v-4.172h-4.228v-2.436l4.228-12.068h2.604v12.068h1.036v2.436h-1.036v4.172zm0-6.608v-6.748l-2.044 6.748z"/><path d="m71.0655738 72.956h-12.1311476c-1.9672131 0-3.9344262-1.7142857-3.9344262-4.1142857v-15.7714286c0-2.0571428 1.6393443-4.1142857 3.9344262-4.1142857h12.1311476c1.9672131 0 3.9344262 1.7142857 3.9344262 4.1142857v15.7714286c0 2.0571428-1.9672131 4.1142857-3.9344262 4.1142857z"/><path d="m47 40.956h-43c-2 0-4 1.6494845-4 3.9587629v24.0824742c0 1.9793815 1.66666667 3.9587629 4 3.9587629h43c2 0 4-1.6494845 4-3.9587629v-24.0824742c0-2.3092784-2-3.9587629-4-3.9587629zm-1.6666667 24.0824742c0 1.3195877-1.3333333 2.6391753-2.6666666 2.6391753h-33.6666667c-1.66666667 0-2.66666667-1.3195876-2.66666667-2.6391753v-16.1649484c0-1.3195877 1.33333334-2.6391753 2.66666667-2.6391753h33.6666667c1.3333333 0 2.6666666 1.3195876 2.6666666 2.6391753z"/></g></svg>