<svg height="77" viewBox="0 0 58 77" width="58" xmlns="http://www.w3.org/2000/svg"><g fill="#f78257" transform="translate(0 .044)"><path d="m8.22 13.552 2.576-.112v.812c0 1.932.336 2.548 1.344 2.548.784 0 1.176-.644 1.176-1.848 0-1.232-.308-1.96-1.596-3.668l-1.288-1.904c-1.596-2.408-2.128-3.696-2.128-5.348 0-2.464 1.484-4.032 3.836-4.032 1.764 0 3.052 1.008 3.416 2.716.14.7.14.784.14 2.324l-2.548.252c0-.952-.028-1.288-.084-1.68-.084-.756-.504-1.176-1.092-1.176-.7 0-1.092.616-1.092 1.736 0 1.148.112 1.4 1.848 4.004l1.316 1.904c1.204 1.764 1.876 3.668 1.876 5.264 0 2.492-1.372 3.892-3.808 3.892-1.4 0-2.38-.448-3.108-1.428-.616-.84-.812-1.624-.812-3.248 0-.392 0-.56.028-1.008zm10.976 5.404v-16.24h-2.436v-2.436h7.588v2.436h-2.548v16.24zm6.468-18.676h6.3v2.436h-3.696v5.236h2.576v2.436h-2.576v6.132h3.92v2.436h-6.524zm8.232 0h2.464c2.268 0 3.108.28 3.864 1.232.784.98 1.008 1.96 1.008 4.34 0 2.492-.224 3.444-.98 4.312-.672.784-1.82 1.204-3.388 1.204h-.364v7.588h-2.604zm2.604 8.68h.364c1.54 0 1.848-.504 1.848-3.136 0-2.604-.308-3.108-1.848-3.108h-.364zm6.636 4.648h2.548c-.028.336-.028.504-.028.728 0 1.792.28 2.464 1.064 2.464.308 0 .588-.168.728-.448.112-.308.14-.448.14-1.456v-2.548c0-1.4-.532-2.016-1.708-2.016h-.364v-2.38c.812-.028 1.12-.112 1.456-.448.42-.42.616-.924.616-1.54v-2.492c0-.644-.308-1.036-.812-1.036s-.756.196-.868.672c-.056.308-.084.42-.084 2.128h-2.436v-.672c0-3.08 1.092-4.564 3.304-4.564 1.036 0 1.96.448 2.52 1.176.588.784.784 1.624.784 3.416 0 3.08-.14 3.528-1.344 4.424 1.428.616 1.54 1.008 1.54 5.152 0 2.072-.196 2.996-.84 3.864-.616.784-1.568 1.204-2.8 1.204-2.352 0-3.444-1.428-3.444-4.48 0-.392 0-.616.028-1.148z"/><g transform="translate(0 33.956)"><path d="m2.66666667 14.7714286v4.6h4.66666666v6.9h25.99999997v-23.32857146c0-1.31428571-1-2.3-2.3333333-2.3h-21c-1.33333333 0-2.33333333.98571429-2.33333333 2.3v2.62857143h12.00000003v2.3h-19.33333337v4.60000003h18.99999997v2.3z"/><path d="m56.6666667 18.3857143c-1.3333334-2.3-3.6666667-5.5857143-5-7.8857143-.6666667-1.31428571-2-2.62857143-4.6666667-2.62857143h-11v21.02857143h-28.66666667v4.6c0 1.3142857 1 2.3 2.33333334 2.3h2.66666663c0 3.9428571 3.3333334 6.9 7 6.9 3.6666667 0 7-3.2857143 7-6.9h9.6666667c0 3.9428571 3.3333333 6.9 7 6.9 4 0 7-3.2857143 7-6.9h2.3333333c3 0 4.6666667-1.9714286 4.6666667-4.6v-10.5142857c.3333333-.6571429.3333333-1.6428572-.3333333-2.3zm-37.3333334 20.3714286c-1.6666666 0-3-1.3142858-3-2.9571429s1.3333334-2.9571429 3-2.9571429c1.6666667 0 3 1.3142858 3 2.9571429s-1.3333333 2.9571429-3 2.9571429zm23.6666667 0c-1.6666667 0-3-1.3142858-3-2.9571429s1.3333333-2.9571429 3-2.9571429 3 1.3142858 3 2.9571429-1.3333333 2.9571429-3 2.9571429zm-2.3333333-19.0571429v-6.9h5.6666666c1 0 1.6666667.3285714 2 1.3142857l3.3333334 5.9142857h-11z"/></g></g></svg>