<svg height="77" viewBox="0 0 47 77" width="47" xmlns="http://www.w3.org/2000/svg"><g fill="#f78257" transform="translate(.428571 .044)"><path d="m1.79142857 13.552 2.576-.112v.812c0 1.932.336 2.548 1.344 2.548.784 0 1.176-.644 1.176-1.848 0-1.232-.308-1.96-1.596-3.668l-1.288-1.904c-1.596-2.408-2.128-3.696-2.128-5.348 0-2.464 1.484-4.032 3.836-4.032 1.764 0 3.052 1.008 3.416 2.716.14.7.14.784.14 2.324l-2.548.252c0-.952-.028-1.288-.084-1.68-.084-.756-.504-1.176-1.092-1.176-.7 0-1.092.616-1.092 1.736 0 1.148.112 1.4 1.848 4.004l1.316 1.904c1.204 1.764 1.876 3.668 1.876 5.264 0 2.492-1.372 3.892-3.808 3.892-1.4 0-2.38-.448-3.108-1.428-.616-.84-.812-1.624-.812-3.248 0-.392 0-.56.028-1.008zm10.97600003 5.404v-16.24h-2.436v-2.436h7.588v2.436h-2.548v16.24zm6.468-18.676h6.3v2.436h-3.696v5.236h2.576v2.436h-2.576v6.132h3.92v2.436h-6.524zm8.232 0h2.464c2.268 0 3.108.28 3.864 1.232.784.98 1.008 1.96 1.008 4.34 0 2.492-.224 3.444-.98 4.312-.672.784-1.82 1.204-3.388 1.204h-.364v7.588h-2.604zm2.604 8.68h.364c1.54 0 1.848-.504 1.848-3.136 0-2.604-.308-3.108-1.848-3.108h-.364zm13.636 9.996h-7v-2.156c.728-1.372.728-1.372 2.632-5.208 1.708-3.472 1.988-4.48 1.988-6.832 0-1.848-.196-2.352-.896-2.352-.868 0-1.064.616-1.092 3.304h-2.436c-.028-.364-.028-.672-.028-.812 0-3.192 1.288-4.9 3.696-4.9 2.156 0 3.304 1.428 3.304 4.06 0 2.352-.784 5.18-2.268 8.26-.112.252-.868 1.652-2.268 4.2h4.368z"/><g transform="translate(0 30.956)"><path d="m0 0v46h46v-46zm11.6575342 4.09589041h3.780822v3.78082192h-3.780822zm-7.87671228 0h3.78082192v3.78082192h-3.78082192zm38.43835618 38.12328769h-38.43835618v-30.5616439h38.12328768v30.5616439zm-19.2191781-34.34246577h-3.7808219v-3.78082192h3.7808219z"/><path d="m11 17h4v4h-4z"/><path d="m17 17h17v4h-17z"/><path d="m11 24h4v4h-4z"/><path d="m17 24h17v4h-17z"/><path d="m11 31h4v4h-4z"/><path d="m17 31h17v4h-17z"/></g></g></svg>