<?xml version="1.0" encoding="utf-8"?>
<!-- Generator: Adobe Illustrator 23.0.3, SVG Export Plug-In . SVG Version: 6.00 Build 0)  -->
<svg version="1.1" id="レイヤー_1" xmlns="http://www.w3.org/2000/svg" xmlns:xlink="http://www.w3.org/1999/xlink" x="0px"
	 y="0px" viewBox="0 0 24 24" style="enable-background:new 0 0 24 24;" xml:space="preserve">
<style type="text/css">
	.st0{enable-background:new    ;}
	.st1{fill:#F78257;}
</style>
<g class="st0">
	<path class="st1" d="M7.9,2.2v0.1L7.1,2.4V2.2c0-0.3-0.1-0.4-0.4-0.4S6.3,1.9,6.3,2.2v0.1c0,0.3,0.1,0.6,0.6,1c0.7,0.6,1,1,1,1.6
		v0.3c0,0.7-0.4,1.1-1.2,1.1C6,6.3,5.6,5.8,5.6,5.1V4.8l0.7-0.1v0.4c0,0.3,0.1,0.5,0.4,0.5c0.3,0,0.4-0.2,0.4-0.5V4.9
		c0-0.3-0.2-0.6-0.7-1c-0.7-0.6-0.9-1-0.9-1.6V2.2C5.6,1.4,6,1,6.7,1S7.9,1.4,7.9,2.2z"/>
	<path class="st1" d="M9.7,1.8v4.4H8.9V1.8H8.1V1.1h2.4v0.7H9.7z"/>
	<path class="st1" d="M11.7,1.8v1.4h1.1V4h-1.1v1.5h1.4v0.7H11V1.1h2.2v0.7H11.7z"/>
	<path class="st1" d="M14.9,1.1c0.8,0,1.3,0.5,1.3,1.3v0.4c0,0.8-0.5,1.3-1.3,1.3h-0.3v2.1h-0.8V1.1H14.9z M14.6,3.4h0.3
		c0.4,0,0.5-0.2,0.5-0.6V2.4c0-0.4-0.2-0.6-0.5-0.6h-0.3V3.4z"/>
	<path class="st1" d="M17.6,6.2V2.3h-1.1V1.7c0.6,0,1.1-0.3,1.3-0.6h0.5v5.1H17.6z"/>
</g>
<path class="st1" d="M19.5,24h-1.2c0-1.9,0.1-2.2-1.1-2.5c-1.8-0.4-3.5-0.8-4.1-2.2c-0.2-0.5-0.4-1.3,0.2-2.4
	c1.3-2.4,1.6-4.5,0.9-5.7c-0.8-1.4-3.4-1.4-4.2,0c-0.7,1.2-0.4,3.3,0.9,5.6c0.6,1.1,0.4,1.9,0.2,2.4c-0.6,1.4-2.3,1.7-4.1,2.2
	C5.7,21.8,5.7,22,5.7,24H4.5v-0.8c0-1.6,0.1-2.5,2-2.9c2.1-0.5,4.2-0.9,3.2-2.8C6.7,12.1,8.8,9,12,9c3.1,0,5.3,3,2.3,8.6
	c-1,1.8,1,2.3,3.2,2.8c1.9,0.4,2,1.3,2,2.9C19.5,23.2,19.5,24,19.5,24z M11.1,20.2l0.6,1.3h0.7l0.6-1.3
	C12.9,20.2,11.1,20.2,11.1,20.2z M12.9,24l-0.4-1.9h-1L11.1,24H12.9z"/>
</svg>
