<?xml version="1.0" encoding="utf-8"?>
<!-- Generator: Adobe Illustrator 22.0.1, SVG Export Plug-In . SVG Version: 6.00 Build 0)  -->
<svg version="1.1" id="レイヤー_1" xmlns="http://www.w3.org/2000/svg" xmlns:xlink="http://www.w3.org/1999/xlink" x="0px"
	 y="0px" viewBox="0 0 24 24" style="enable-background:new 0 0 24 24;" xml:space="preserve">
<style type="text/css">
	.st0{fill:#F78257;}
	.st1{font-family:'BebasKai';}
	.st2{font-size:7.2759px;}
</style>
<text transform="matrix(1 0 0 1 5.4043 6.1848)" class="st0 st1 st2">STEP3</text>
<g>
	<path class="st0" d="M4.1,14.8v1.4h1.4v2.1h7.8v-7.1c0-0.4-0.3-0.7-0.7-0.7H6.3c-0.4,0-0.7,0.3-0.7,0.7V12h3.6v0.7H3.4v1.4h5.7v0.7
		H4.1z"/>
	<path class="st0" d="M20.3,15.9c-0.4-0.7-1.1-1.7-1.5-2.4c-0.2-0.4-0.6-0.8-1.4-0.8h-3.3v6.4H5.5v1.4c0,0.4,0.3,0.7,0.7,0.7H7
		c0,1.2,1,2.1,2.1,2.1s2.1-1,2.1-2.1h2.9c0,1.2,1,2.1,2.1,2.1c1.2,0,2.1-1,2.1-2.1h0.7c0.9,0,1.4-0.6,1.4-1.4v-3.2
		C20.5,16.4,20.5,16.1,20.3,15.9z M9.1,22.1c-0.5,0-0.9-0.4-0.9-0.9c0-0.5,0.4-0.9,0.9-0.9s0.9,0.4,0.9,0.9
		C10,21.7,9.6,22.1,9.1,22.1z M16.2,22.1c-0.5,0-0.9-0.4-0.9-0.9c0-0.5,0.4-0.9,0.9-0.9s0.9,0.4,0.9,0.9
		C17.1,21.7,16.7,22.1,16.2,22.1z M15.5,16.3v-2.1h1.7c0.3,0,0.5,0.1,0.6,0.4l1,1.8H15.5z"/>
</g>
</svg>
