<?xml version="1.0" encoding="utf-8"?>
<!-- Generator: Adobe Illustrator 23.0.3, SVG Export Plug-In . SVG Version: 6.00 Build 0)  -->
<svg version="1.1" id="レイヤー_1" xmlns="http://www.w3.org/2000/svg" xmlns:xlink="http://www.w3.org/1999/xlink" x="0px"
	 y="0px" viewBox="0 0 24 24" style="enable-background:new 0 0 24 24;" xml:space="preserve">
<style type="text/css">
	.st0{enable-background:new    ;}
	.st1{fill:#F78257;}
</style>
<g class="st0">
	<path class="st1" d="M7.9,2.2v0.1L7.1,2.4V2.2c0-0.3-0.1-0.4-0.4-0.4S6.3,1.9,6.3,2.2v0.1c0,0.3,0.1,0.6,0.6,1c0.7,0.6,1,1,1,1.6
		v0.3c0,0.7-0.4,1.1-1.2,1.1C6,6.3,5.6,5.8,5.6,5.1V4.8l0.7-0.1v0.4c0,0.3,0.1,0.5,0.4,0.5c0.3,0,0.4-0.2,0.4-0.5V4.9
		c0-0.3-0.2-0.6-0.7-1c-0.7-0.6-0.9-1-0.9-1.6V2.2C5.6,1.4,6,1,6.7,1S7.9,1.4,7.9,2.2z"/>
	<path class="st1" d="M9.7,1.8v4.4H8.9V1.8H8.1V1.1h2.4v0.7H9.7z"/>
	<path class="st1" d="M11.7,1.8v1.4h1.1V4h-1.1v1.5h1.4v0.7H11V1.1h2.2v0.7H11.7z"/>
	<path class="st1" d="M14.9,1.1c0.8,0,1.3,0.5,1.3,1.3v0.4c0,0.8-0.5,1.3-1.3,1.3h-0.3v2.1h-0.8V1.1H14.9z M14.6,3.4h0.3
		c0.4,0,0.5-0.2,0.5-0.6V2.4c0-0.4-0.2-0.6-0.5-0.6h-0.3V3.4z"/>
	<path class="st1" d="M19,2.3v0.3c0,0.5-0.2,0.8-0.6,1v0C18.8,3.7,19,4.1,19,4.6V5c0,0.8-0.5,1.3-1.2,1.3c-0.8,0-1.2-0.5-1.2-1.2
		V4.7l0.7,0v0.3c0,0.4,0.2,0.6,0.5,0.6c0.3,0,0.5-0.2,0.5-0.6V4.6c0-0.5-0.2-0.7-0.6-0.7h-0.3V3.2h0.3c0.4,0,0.5-0.2,0.5-0.6V2.3
		c0-0.4-0.2-0.6-0.5-0.6s-0.4,0.2-0.4,0.6v0.3l-0.7,0V2.2C16.6,1.5,17,1,17.8,1C18.5,1,19,1.5,19,2.3z"/>
</g>
<g class="st0">
	<path class="st1" d="M11,23.7v-3.2H7.7v-1.1H11V18H7.7v-1h2.7l-3.7-5.9h2.4l2.2,4c0.3,0.6,0.5,1.1,0.8,1.7h0.1
		c0.3-0.5,0.5-1.1,0.8-1.8l2.3-4h2.4l-4,5.9h2.7V18H13v1.4h3.3v1.1H13v3.2H11z"/>
</g>
</svg>
