<?xml version="1.0" encoding="utf-8"?>
<!-- Generator: Adobe Illustrator 23.0.3, SVG Export Plug-In . SVG Version: 6.00 Build 0)  -->
<svg version="1.1" id="レイヤー_1" xmlns="http://www.w3.org/2000/svg" xmlns:xlink="http://www.w3.org/1999/xlink" x="0px"
	 y="0px" viewBox="0 0 24 24" style="enable-background:new 0 0 24 24;" xml:space="preserve">
<style type="text/css">
	.st0{fill:#F78257;}
	.st1{enable-background:new    ;}
</style>
<path class="st0" d="M4.7,9.4V24h14.6V9.4H4.7z M8.4,10.7h1.2v1.2H8.4V10.7z M5.9,10.7h1.2v1.2H5.9V10.7z M18.1,22.8H5.9v-9.7H18
	v9.7H18.1z M12,11.9h-1.2v-1.2H12V11.9z"/>
<rect x="8.1" y="14.8" class="st0" width="1.3" height="1.3"/>
<rect x="10.2" y="14.8" class="st0" width="5.4" height="1.3"/>
<rect x="8.1" y="17.1" class="st0" width="1.3" height="1.3"/>
<rect x="10.2" y="17.1" class="st0" width="5.4" height="1.3"/>
<rect x="8.1" y="19.4" class="st0" width="1.3" height="1.3"/>
<rect x="10.2" y="19.4" class="st0" width="5.4" height="1.3"/>
<g class="st1">
	<path class="st0" d="M7.9,2.2v0.1L7.1,2.4V2.2c0-0.3-0.1-0.4-0.4-0.4S6.3,1.9,6.3,2.2v0.1c0,0.3,0.1,0.6,0.6,1c0.7,0.6,1,1,1,1.6
		v0.3c0,0.7-0.4,1.1-1.2,1.1C6,6.3,5.6,5.8,5.6,5.1V4.8l0.7-0.1v0.4c0,0.3,0.1,0.5,0.4,0.5c0.3,0,0.4-0.2,0.4-0.5V4.9
		c0-0.3-0.2-0.6-0.7-1c-0.7-0.6-0.9-1-0.9-1.6V2.2C5.6,1.4,6,1,6.7,1S7.9,1.4,7.9,2.2z"/>
	<path class="st0" d="M9.7,1.8v4.4H8.9V1.8H8.1V1.1h2.4v0.7H9.7z"/>
	<path class="st0" d="M11.7,1.8v1.4h1.1V4h-1.1v1.5h1.4v0.7H11V1.1h2.2v0.7H11.7z"/>
	<path class="st0" d="M14.9,1.1c0.8,0,1.3,0.5,1.3,1.3v0.4c0,0.8-0.5,1.3-1.3,1.3h-0.3v2.1h-0.8V1.1H14.9z M14.6,3.4h0.3
		c0.4,0,0.5-0.2,0.5-0.6V2.4c0-0.4-0.2-0.6-0.5-0.6h-0.3V3.4z"/>
	<path class="st0" d="M18.9,2.2v0.2c0,0.5-0.1,0.9-0.6,1.7l-0.9,1.4h1.5v0.7h-2.4V5.5l1.1-1.8c0.4-0.6,0.5-0.9,0.5-1.3V2.2
		c0-0.3-0.1-0.5-0.4-0.5c-0.3,0-0.4,0.2-0.4,0.6v0.3l-0.7,0V2.2C16.5,1.5,17,1,17.7,1C18.5,1,18.9,1.4,18.9,2.2z"/>
</g>
</svg>
