<svg height="74" viewBox="0 0 41 74" width="41" xmlns="http://www.w3.org/2000/svg"><g fill="#f78257" transform="translate(.192 .044)"><path d="m17.4898182 73.956v-10.3307087h-10.50000002v-3.5511811h10.50000002v-4.519685h-10.50000002v-3.2283465h8.59090912l-11.7727273-19.0472441h7.6363636l7 12.9133859c.9545455 1.9370078 1.5909091 3.5511811 2.5454546 5.4881889h.3181818c.9545455-1.6141732 1.5909091-3.5511811 2.5454545-5.8110236l7.3181819-12.9133858h7.6363636l-12.7272727 19.0472441h8.5909091v3.5511811h-10.8181819v4.519685h10.5v3.5511811h-10.5v10.3307087z"/><path d="m.028 13.552 2.576-.112v.812c0 1.932.336 2.548 1.344 2.548.784 0 1.176-.644 1.176-1.848 0-1.232-.308-1.96-1.596-3.668l-1.288-1.904c-1.596-2.408-2.128-3.696-2.128-5.348 0-2.464 1.484-4.032 3.836-4.032 1.764 0 3.052 1.008 3.416 2.716.14.7.14.784.14 2.324l-2.548.252c0-.952-.028-1.288-.084-1.68-.084-.756-.504-1.176-1.092-1.176-.7 0-1.092.616-1.092 1.736 0 1.148.112 1.4 1.848 4.004l1.316 1.904c1.204 1.764 1.876 3.668 1.876 5.264 0 2.492-1.372 3.892-3.808 3.892-1.4 0-2.38-.448-3.108-1.428-.616-.84-.812-1.624-.812-3.248 0-.392 0-.56.028-1.008zm10.976 5.404v-16.24h-2.436v-2.436h7.588v2.436h-2.548v16.24zm6.468-18.676h6.3v2.436h-3.696v5.236h2.576v2.436h-2.576v6.132h3.92v2.436h-6.524zm8.232 0h2.464c2.268 0 3.108.28 3.864 1.232.784.98 1.008 1.96 1.008 4.34 0 2.492-.224 3.444-.98 4.312-.672.784-1.82 1.204-3.388 1.204h-.364v7.588h-2.604zm2.604 8.68h.364c1.54 0 1.848-.504 1.848-3.136 0-2.604-.308-3.108-1.848-3.108h-.364zm9.128 9.996v-15.036h-1.316v-1.876c1.092-.616 1.54-.952 2.296-1.764h1.624v18.676z"/></g></svg>