<?xml version="1.0" encoding="UTF-8"?>
<svg width="72px" height="48px" viewBox="0 0 72 48" version="1.1" xmlns="http://www.w3.org/2000/svg" xmlns:xlink="http://www.w3.org/1999/xlink">
    <!-- Generator: Sketch 57.1 (83088) - https://sketch.com -->
    <title>plan_premium</title>
    <desc>Created with Sketch.</desc>
    <g id="提供プラン" stroke="none" stroke-width="1" fill="none" fill-rule="evenodd">
        <g id="料金ページ1" transform="translate(-964.000000, -313.000000)" fill="#0EAA7C" fill-rule="nonzero">
            <g id="plan_premium" transform="translate(964.000000, 312.000000)">
                <path d="M11.987,10.132 L10.359,10.132 C10.425,9.692 10.447,9.307 10.447,8.713 L10.447,2.762 C10.447,2.234 10.425,1.838 10.359,1.343 C10.832,1.365 11.173,1.376 11.756,1.376 L14.055,1.376 C15.122,1.376 15.87,1.629 16.398,2.157 C16.849,2.597 17.08,3.257 17.08,4.049 C17.08,4.885 16.827,5.567 16.343,6.073 C15.804,6.612 15.056,6.865 14,6.865 L11.899,6.865 L11.899,8.702 C11.899,9.296 11.921,9.714 11.987,10.132 Z M11.899,5.6 L14,5.6 C15.012,5.6 15.562,5.061 15.562,4.093 C15.562,3.653 15.441,3.29 15.199,3.037 C14.946,2.762 14.583,2.641 14,2.641 L11.899,2.641 L11.899,5.6 Z M22.69,3.818 L22.305,5.204 C21.843,5.072 21.612,5.028 21.326,5.028 C20.776,5.028 20.358,5.204 20.05,5.567 C19.775,5.886 19.665,6.139 19.599,6.667 L19.599,8.702 C19.599,9.296 19.621,9.615 19.676,10.132 L18.103,10.132 C18.158,9.593 18.18,9.274 18.18,8.702 L18.18,5.248 C18.18,4.577 18.169,4.269 18.103,3.818 L19.599,3.818 L19.599,4.852 C19.995,4.071 20.677,3.697 21.667,3.697 C21.931,3.697 22.195,3.73 22.69,3.818 Z M29.411,7.338 L24.626,7.338 C24.681,7.943 24.78,8.251 25.033,8.57 C25.352,8.966 25.847,9.186 26.408,9.186 C26.947,9.186 27.409,8.988 27.728,8.636 C27.86,8.482 27.937,8.361 28.047,8.064 L29.345,8.482 C29.092,9.01 28.949,9.219 28.674,9.494 C28.102,10.055 27.332,10.341 26.408,10.341 C24.461,10.341 23.229,9.043 23.229,6.986 C23.229,4.951 24.45,3.62 26.331,3.62 C27.618,3.62 28.63,4.258 29.07,5.358 C29.279,5.886 29.356,6.282 29.389,7.03 C29.389,7.052 29.389,7.085 29.411,7.338 Z M24.659,6.249 L27.981,6.249 C27.904,5.765 27.772,5.468 27.497,5.193 C27.2,4.896 26.826,4.753 26.309,4.753 C25.451,4.753 24.824,5.325 24.659,6.249 Z M31.9630193,4.78595943 C32.2820328,4.11498271 33.0960184,3.686 34.009,3.686 C34.603,3.686 35.087,3.851 35.428,4.181 C35.626,4.357 35.714,4.5 35.846,4.841 C36.22,4.346 36.429,4.148 36.77,3.972 C37.133,3.774 37.507,3.686 38.002,3.686 C38.706,3.686 39.278,3.906 39.652,4.313 C40.015,4.709 40.169,5.204 40.169,5.985 L40.169,8.702 C40.169,9.318 40.191,9.681 40.257,10.132 L38.651,10.132 C38.717,9.681 38.739,9.351 38.739,8.702 L38.739,6.238 C38.739,5.27 38.398,4.83 37.661,4.83 C37.298,4.83 37.023,4.929 36.759,5.16 C36.374,5.49 36.198,5.842 36.066,6.524 L36.066,8.702 C36.066,9.307 36.088,9.681 36.143,10.132 L34.559,10.132 C34.625,9.67 34.647,9.329 34.647,8.702 L34.647,6.238 C34.647,5.314 34.295,4.852 33.58,4.852 C33.118,4.852 32.744,5.039 32.447,5.424 C32.205,5.743 32.095,5.996 31.974,6.524 L31.974,8.702 C31.974,9.296 31.996,9.626 32.051,10.132 L30.5,10.132 C30.555,9.659 30.577,9.296 30.577,8.702 L30.577,5.248 C30.577,4.555 30.555,4.236 30.5,3.818 L31.974,3.818 L31.974,4.379 C31.974,4.44308572 31.974,4.60051187 31.9639296,4.77071565 L31.9630193,4.78595943 Z M41.61,1.376 L43.227,1.376 L43.227,2.773 L41.61,2.773 L41.61,1.376 Z M41.61,3.818 L43.216,3.818 C43.161,4.225 43.139,4.588 43.139,5.259 L43.139,8.691 C43.139,9.296 43.161,9.67 43.216,10.132 L41.61,10.132 C41.676,9.637 41.698,9.252 41.698,8.702 L41.698,5.248 C41.698,4.643 41.676,4.269 41.61,3.818 Z M49.035,3.818 L50.619,3.818 C50.542,4.291 50.531,4.632 50.531,5.248 L50.531,8.702 C50.531,9.307 50.553,9.681 50.619,10.132 L49.123,10.132 L49.123,9.549 C49.123,9.384 49.123,9.351 49.134,9.076 C48.529,9.934 47.924,10.253 46.879,10.253 C46.318,10.253 45.922,10.154 45.559,9.934 C44.954,9.549 44.668,8.933 44.668,8.031 L44.668,5.248 C44.668,4.643 44.635,4.225 44.58,3.818 L46.175,3.818 C46.109,4.313 46.098,4.687 46.098,5.248 L46.098,7.69 C46.098,8.328 46.263,8.735 46.604,8.944 C46.769,9.032 47,9.098 47.209,9.098 C48.001,9.098 48.628,8.559 49.123,7.47 L49.123,5.248 C49.123,4.709 49.09,4.291 49.035,3.818 Z M53.545,10.132 L51.994,10.132 C52.049,9.659 52.071,9.296 52.071,8.702 L52.071,5.248 C52.071,4.555 52.049,4.236 51.994,3.818 L53.468,3.818 L53.468,4.379 C53.468,4.445 53.468,4.61 53.457,4.786 C53.776,4.115 54.59,3.686 55.503,3.686 C56.097,3.686 56.581,3.851 56.922,4.181 C57.12,4.357 57.208,4.5 57.34,4.841 C57.714,4.346 57.923,4.148 58.264,3.972 C58.627,3.774 59.001,3.686 59.496,3.686 C60.2,3.686 60.772,3.906 61.146,4.313 C61.509,4.709 61.663,5.204 61.663,5.985 L61.663,8.702 C61.663,9.318 61.685,9.681 61.751,10.132 L60.145,10.132 C60.211,9.681 60.233,9.351 60.233,8.702 L60.233,6.238 C60.233,5.27 59.892,4.83 59.155,4.83 C58.792,4.83 58.517,4.929 58.253,5.16 C57.868,5.49 57.692,5.842 57.56,6.524 L57.56,8.702 C57.56,9.307 57.582,9.681 57.637,10.132 L56.053,10.132 C56.119,9.67 56.141,9.329 56.141,8.702 L56.141,6.238 C56.141,5.314 55.789,4.852 55.074,4.852 C54.612,4.852 54.238,5.039 53.941,5.424 C53.699,5.743 53.589,5.996 53.468,6.524 L53.468,8.702 C53.468,9.296 53.49,9.626 53.545,10.132 Z" id="Premium"></path>
                <g id="icon_reg-copy-2" transform="translate(0.000000, 17.000000)">
                    <path d="M31.5870556,-5.33333333 L11.3866667,-5.33333333 C8.53902778,-5.33333333 6.22222222,-3.34766667 6.22222222,-0.906583333 L6.22222222,32.9065833 C6.22222222,35.3474167 8.53902778,37.3333333 11.3866667,37.3333333 L31.5870556,37.3333333 C34.4348889,37.3333333 36.7515972,35.3473333 36.7515972,32.9069167 L36.7515972,-0.906583333 C36.7515972,-3.34766667 34.4348889,-5.33333333 31.5870556,-5.33333333 Z M33.6941528,-0.394083333 L33.6941528,31.95225 C33.6941528,33.0568195 32.7987223,33.95225 31.6941528,33.95225 L11.2795694,33.95225 C10.1749999,33.95225 9.27956944,33.0568195 9.27956944,31.95225 L9.27956944,-0.394083333 C9.27956944,-1.49865283 10.1749999,-2.39408333 11.2795694,-2.39408333 L31.6941528,-2.39408333 C32.7987223,-2.39408333 33.6941528,-1.49865283 33.6941528,-0.394083333 Z M11.5555556,-4.06785716e-13 L31.1111111,-4.06785716e-13 L31.1111111,32 L11.5555556,32 L11.5555556,-4.06785716e-13 Z" id="Shape-Copy" transform="translate(21.486910, 16.000000) rotate(90.000000) translate(-21.486910, -16.000000) "></path>
                    <path d="M63.1426111,7.55555556 L52.72,7.55555556 C49.8723611,7.55555556 47.5555556,9.54122222 47.5555556,11.9823056 L47.5555556,29.7954722 C47.5555556,32.2363056 49.8723611,34.2222222 52.72,34.2222222 L63.1426111,34.2222222 C65.9904444,34.2222222 68.3071528,32.2362222 68.3071528,29.7958056 L68.3071528,11.9823056 C68.3071528,9.54122222 65.9904444,7.55555556 63.1426111,7.55555556 Z M65.2497083,12.4948056 L65.2497083,28.8411389 C65.2497083,29.9457084 64.3542778,30.8411389 63.2497083,30.8411389 L52.6129028,30.8411389 C51.5083333,30.8411389 50.6129028,29.9457084 50.6129028,28.8411389 L50.6129028,12.4948056 C50.6129028,11.3902361 51.5083333,10.4948056 52.6129028,10.4948056 L63.2497083,10.4948056 C64.3542778,10.4948056 65.2497083,11.3902361 65.2497083,12.4948056 Z M53.7777778,13.7777778 L57.3333333,13.7777778 L57.3333333,27.1111111 L53.7777778,27.1111111 L53.7777778,13.7777778 Z" id="Shape-Copy-2" transform="translate(57.931354, 20.888889) rotate(90.000000) translate(-57.931354, -20.888889) "></path>
                </g>
            </g>
        </g>
    </g>
</svg>