<?xml version="1.0" encoding="UTF-8"?>
<svg width="72px" height="48px" viewBox="0 0 72 48" version="1.1" xmlns="http://www.w3.org/2000/svg" xmlns:xlink="http://www.w3.org/1999/xlink">
    <!-- Generator: Sketch 57.1 (83088) - https://sketch.com -->
    <title>plan_standard</title>
    <desc>Created with Sketch.</desc>
    <g id="提供プラン" stroke="none" stroke-width="1" fill="none" fill-rule="evenodd">
        <g id="料金ページ1" transform="translate(-684.000000, -313.000000)" fill="#0EAA7C" fill-rule="nonzero">
            <g id="plan_standard" transform="translate(684.000000, 312.000000)">
                <path d="M8.017,7.569 L9.601,7.404 C9.645,7.899 9.711,8.119 9.909,8.372 C10.228,8.79 10.8,9.021 11.515,9.021 C12.615,9.021 13.275,8.526 13.275,7.701 C13.275,7.25 13.066,6.876 12.725,6.689 C12.395,6.513 12.329,6.502 10.811,6.15 C9.986,5.963 9.546,5.787 9.15,5.479 C8.589,5.039 8.303,4.434 8.303,3.697 C8.303,2.168 9.535,1.178 11.427,1.178 C12.681,1.178 13.627,1.563 14.166,2.289 C14.441,2.652 14.573,2.982 14.705,3.565 L13.132,3.752 C13.066,3.378 12.989,3.191 12.802,2.971 C12.516,2.63 12.032,2.443 11.427,2.443 C10.47,2.443 9.821,2.927 9.821,3.642 C9.821,4.104 10.063,4.423 10.569,4.643 C10.811,4.742 10.899,4.764 12.12,5.039 C12.989,5.226 13.517,5.435 13.913,5.71 C14.54,6.172 14.826,6.777 14.826,7.602 C14.826,8.383 14.584,9.021 14.133,9.472 C13.55,10.033 12.681,10.308 11.504,10.308 C10.602,10.308 9.722,10.088 9.194,9.736 C8.754,9.439 8.435,9.021 8.226,8.482 C8.127,8.229 8.083,8.02 8.017,7.569 Z M16.806,2.124 L18.379,2.124 C18.335,2.509 18.302,2.982 18.302,3.477 L18.302,3.818 L18.764,3.818 C19.281,3.818 19.523,3.807 19.875,3.752 L19.875,5.05 C19.512,4.995 19.303,4.984 18.797,4.984 L18.302,4.984 L18.302,8.394 C18.302,8.933 18.5,9.131 19.028,9.131 C19.314,9.131 19.49,9.076 19.831,8.889 L20.029,10.055 C19.556,10.231 19.226,10.286 18.654,10.286 C17.389,10.286 16.883,9.835 16.883,8.68 L16.883,4.984 L16.465,4.984 C16.058,4.984 15.849,4.995 15.486,5.05 L15.486,3.752 C15.805,3.807 16.014,3.818 16.476,3.818 L16.883,3.818 L16.883,3.477 C16.883,3.004 16.85,2.52 16.806,2.124 Z M25.023,10.132 L25.023,9.417 C24.583,9.835 24.308,9.989 23.857,10.11 C23.538,10.198 23.186,10.242 22.834,10.242 C21.492,10.242 20.678,9.549 20.678,8.394 C20.678,7.624 21.162,6.931 21.921,6.612 C22.636,6.315 23.45,6.205 25.023,6.172 L25.023,5.611 C25.023,4.973 24.594,4.643 23.758,4.643 C23.318,4.643 22.867,4.764 22.614,4.962 C22.405,5.116 22.306,5.27 22.174,5.666 L20.766,5.413 C21.019,4.775 21.217,4.489 21.635,4.192 C22.174,3.796 22.79,3.631 23.736,3.631 C24.792,3.631 25.43,3.818 25.903,4.28 C26.277,4.632 26.42,5.05 26.42,5.798 L26.42,8.757 C26.42,9.34 26.442,9.637 26.508,10.132 L25.023,10.132 Z M25.023,7.679 L25.023,7.129 C22.922,7.173 22.097,7.536 22.097,8.394 C22.097,8.911 22.482,9.23 23.098,9.23 C23.681,9.23 24.253,9.01 24.627,8.647 C24.891,8.383 25.023,8.064 25.023,7.679 Z M29.401,10.132 L27.817,10.132 C27.883,9.659 27.905,9.318 27.905,8.702 L27.905,5.248 C27.905,4.643 27.883,4.269 27.817,3.818 L29.313,3.818 L29.313,4.401 C29.313,4.566 29.313,4.599 29.291,4.874 C29.962,4.016 30.545,3.708 31.535,3.708 C32.382,3.708 33.009,3.983 33.405,4.522 C33.669,4.885 33.779,5.325 33.779,6.062 L33.779,8.702 C33.779,9.307 33.801,9.725 33.867,10.132 L32.272,10.132 C32.327,9.637 32.349,9.263 32.349,8.702 L32.349,6.26 C32.349,5.798 32.294,5.501 32.162,5.292 C31.986,5.006 31.656,4.841 31.238,4.841 C30.446,4.841 29.797,5.391 29.313,6.48 L29.313,8.702 C29.313,9.241 29.335,9.659 29.401,10.132 Z M40.159,10.132 L40.159,9.593 C40.159,9.461 40.159,9.34 40.17,9.197 C39.598,10 39.015,10.286 37.948,10.286 C37.178,10.286 36.595,10.11 36.111,9.725 C35.374,9.153 34.967,8.152 34.967,6.964 C34.967,4.951 36.122,3.675 37.937,3.675 C38.619,3.675 39.18,3.84 39.609,4.181 C39.807,4.335 39.928,4.467 40.17,4.786 C40.17,4.654 40.17,4.654 40.159,4.434 C40.148,4.357 40.148,4.148 40.148,3.961 L40.148,2.861 C40.148,2.201 40.126,1.838 40.071,1.376 L41.622,1.376 C41.567,1.904 41.545,2.289 41.545,2.85 L41.545,8.647 C41.545,9.296 41.567,9.648 41.622,10.132 L40.159,10.132 Z M36.397,6.975 C36.397,8.284 37.101,9.109 38.201,9.109 C38.784,9.109 39.345,8.834 39.675,8.383 C39.95,8.02 40.104,7.481 40.104,6.909 C40.104,6.37 39.895,5.798 39.576,5.446 C39.235,5.072 38.674,4.83 38.146,4.83 C37.079,4.83 36.397,5.666 36.397,6.975 Z M47.177,10.132 L47.177,9.417 C46.737,9.835 46.462,9.989 46.011,10.11 C45.692,10.198 45.34,10.242 44.988,10.242 C43.646,10.242 42.832,9.549 42.832,8.394 C42.832,7.624 43.316,6.931 44.075,6.612 C44.79,6.315 45.604,6.205 47.177,6.172 L47.177,5.611 C47.177,4.973 46.748,4.643 45.912,4.643 C45.472,4.643 45.021,4.764 44.768,4.962 C44.559,5.116 44.46,5.27 44.328,5.666 L42.92,5.413 C43.173,4.775 43.371,4.489 43.789,4.192 C44.328,3.796 44.944,3.631 45.89,3.631 C46.946,3.631 47.584,3.818 48.057,4.28 C48.431,4.632 48.574,5.05 48.574,5.798 L48.574,8.757 C48.574,9.34 48.596,9.637 48.662,10.132 L47.177,10.132 Z M47.177,7.679 L47.177,7.129 C45.076,7.173 44.251,7.536 44.251,8.394 C44.251,8.911 44.636,9.23 45.252,9.23 C45.835,9.23 46.407,9.01 46.781,8.647 C47.045,8.383 47.177,8.064 47.177,7.679 Z M54.58,3.818 L54.195,5.204 C53.733,5.072 53.502,5.028 53.216,5.028 C52.666,5.028 52.248,5.204 51.94,5.567 C51.665,5.886 51.555,6.139 51.489,6.667 L51.489,8.702 C51.489,9.296 51.511,9.615 51.566,10.132 L49.993,10.132 C50.048,9.593 50.07,9.274 50.07,8.702 L50.07,5.248 C50.07,4.577 50.059,4.269 49.993,3.818 L51.489,3.818 L51.489,4.852 C51.885,4.071 52.567,3.697 53.557,3.697 C53.821,3.697 54.085,3.73 54.58,3.818 Z M60.322,10.132 L60.322,9.593 C60.322,9.461 60.322,9.34 60.333,9.197 C59.761,10 59.178,10.286 58.111,10.286 C57.341,10.286 56.758,10.11 56.274,9.725 C55.537,9.153 55.13,8.152 55.13,6.964 C55.13,4.951 56.285,3.675 58.1,3.675 C58.782,3.675 59.343,3.84 59.772,4.181 C59.97,4.335 60.091,4.467 60.333,4.786 C60.333,4.654 60.333,4.654 60.322,4.434 C60.311,4.357 60.311,4.148 60.311,3.961 L60.311,2.861 C60.311,2.201 60.289,1.838 60.234,1.376 L61.785,1.376 C61.73,1.904 61.708,2.289 61.708,2.85 L61.708,8.647 C61.708,9.296 61.73,9.648 61.785,10.132 L60.322,10.132 Z M56.56,6.975 C56.56,8.284 57.264,9.109 58.364,9.109 C58.947,9.109 59.508,8.834 59.838,8.383 C60.113,8.02 60.267,7.481 60.267,6.909 C60.267,6.37 60.058,5.798 59.739,5.446 C59.398,5.072 58.837,4.83 58.309,4.83 C57.242,4.83 56.56,5.666 56.56,6.975 Z" id="Standard"></path>
                <g id="icon_reg-copy" transform="translate(0.000000, 17.000000)">
                    <path d="M31.5870556,-5.33333333 L11.3866667,-5.33333333 C8.53902778,-5.33333333 6.22222222,-3.34766667 6.22222222,-0.906583333 L6.22222222,32.9065833 C6.22222222,35.3474167 8.53902778,37.3333333 11.3866667,37.3333333 L31.5870556,37.3333333 C34.4348889,37.3333333 36.7515972,35.3473333 36.7515972,32.9069167 L36.7515972,-0.906583333 C36.7515972,-3.34766667 34.4348889,-5.33333333 31.5870556,-5.33333333 Z M33.6941528,-0.394083333 L33.6941528,31.95225 C33.6941528,33.0568195 32.7987223,33.95225 31.6941528,33.95225 L11.2795694,33.95225 C10.1749999,33.95225 9.27956944,33.0568195 9.27956944,31.95225 L9.27956944,-0.394083333 C9.27956944,-1.49865283 10.1749999,-2.39408333 11.2795694,-2.39408333 L31.6941528,-2.39408333 C32.7987223,-2.39408333 33.6941528,-1.49865283 33.6941528,-0.394083333 Z M11.5555556,-4.06785716e-13 L31.1111111,-4.06785716e-13 L31.1111111,32 L11.5555556,32 L11.5555556,-4.06785716e-13 Z" id="Shape-Copy" transform="translate(21.486910, 16.000000) rotate(90.000000) translate(-21.486910, -16.000000) "></path>
                    <path d="M63.1426111,7.55555556 L52.72,7.55555556 C49.8723611,7.55555556 47.5555556,9.54122222 47.5555556,11.9823056 L47.5555556,29.7954722 C47.5555556,32.2363056 49.8723611,34.2222222 52.72,34.2222222 L63.1426111,34.2222222 C65.9904444,34.2222222 68.3071528,32.2362222 68.3071528,29.7958056 L68.3071528,11.9823056 C68.3071528,9.54122222 65.9904444,7.55555556 63.1426111,7.55555556 Z M65.2497083,12.4948056 L65.2497083,28.8411389 C65.2497083,29.9457084 64.3542778,30.8411389 63.2497083,30.8411389 L52.6129028,30.8411389 C51.5083333,30.8411389 50.6129028,29.9457084 50.6129028,28.8411389 L50.6129028,12.4948056 C50.6129028,11.3902361 51.5083333,10.4948056 52.6129028,10.4948056 L63.2497083,10.4948056 C64.3542778,10.4948056 65.2497083,11.3902361 65.2497083,12.4948056 Z M53.7777778,13.7777778 L57.3333333,13.7777778 L57.3333333,27.1111111 L53.7777778,27.1111111 L53.7777778,13.7777778 Z" id="Shape-Copy-2" transform="translate(57.931354, 20.888889) rotate(90.000000) translate(-57.931354, -20.888889) "></path>
                </g>
            </g>
        </g>
    </g>
</svg>