<?xml version="1.0" encoding="UTF-8"?>
<svg width="72px" height="48px" viewBox="0 0 72 48" version="1.1" xmlns="http://www.w3.org/2000/svg" xmlns:xlink="http://www.w3.org/1999/xlink">
    <!-- Generator: Sketch 57.1 (83088) - https://sketch.com -->
    <title>plan_free</title>
    <desc>Created with Sketch.</desc>
    <g id="提供プラン" stroke="none" stroke-width="1" fill="none" fill-rule="evenodd">
        <g id="料金ページ1" transform="translate(-404.000000, -313.000000)" fill="#0EAA7C" fill-rule="nonzero">
            <g id="plan_free" transform="translate(404.000000, 312.000000)">
                <path d="M25.077,6.348 L25.077,8.548 C25.077,9.329 25.099,9.714 25.165,10.132 L23.526,10.132 C23.592,9.758 23.614,9.296 23.614,8.57 L23.614,2.773 C23.614,2.168 23.592,1.849 23.526,1.343 C23.977,1.365 24.252,1.376 24.923,1.376 L28.003,1.376 C28.696,1.376 29.048,1.354 29.51,1.299 L29.51,2.784 C29.114,2.729 28.707,2.707 28.003,2.707 L25.077,2.707 L25.077,5.039 L27.431,5.039 C28.113,5.039 28.498,5.017 28.927,4.962 L28.927,6.425 C28.52,6.37 28.102,6.348 27.431,6.348 L25.077,6.348 Z M35.12,3.818 L34.735,5.204 C34.273,5.072 34.042,5.028 33.756,5.028 C33.206,5.028 32.788,5.204 32.48,5.567 C32.205,5.886 32.095,6.139 32.029,6.667 L32.029,8.702 C32.029,9.296 32.051,9.615 32.106,10.132 L30.533,10.132 C30.588,9.593 30.61,9.274 30.61,8.702 L30.61,5.248 C30.61,4.577 30.599,4.269 30.533,3.818 L32.029,3.818 L32.029,4.852 C32.425,4.071 33.107,3.697 34.097,3.697 C34.361,3.697 34.625,3.73 35.12,3.818 Z M41.841,7.338 L37.056,7.338 C37.111,7.943 37.21,8.251 37.463,8.57 C37.782,8.966 38.277,9.186 38.838,9.186 C39.377,9.186 39.839,8.988 40.158,8.636 C40.29,8.482 40.367,8.361 40.477,8.064 L41.775,8.482 C41.522,9.01 41.379,9.219 41.104,9.494 C40.532,10.055 39.762,10.341 38.838,10.341 C36.891,10.341 35.659,9.043 35.659,6.986 C35.659,4.951 36.88,3.62 38.761,3.62 C40.048,3.62 41.06,4.258 41.5,5.358 C41.709,5.886 41.786,6.282 41.819,7.03 C41.819,7.052 41.819,7.085 41.841,7.338 Z M37.089,6.249 L40.411,6.249 C40.334,5.765 40.202,5.468 39.927,5.193 C39.63,4.896 39.256,4.753 38.739,4.753 C37.881,4.753 37.254,5.325 37.089,6.249 Z M48.848,7.338 L44.063,7.338 C44.118,7.943 44.217,8.251 44.47,8.57 C44.789,8.966 45.284,9.186 45.845,9.186 C46.384,9.186 46.846,8.988 47.165,8.636 C47.297,8.482 47.374,8.361 47.484,8.064 L48.782,8.482 C48.529,9.01 48.386,9.219 48.111,9.494 C47.539,10.055 46.769,10.341 45.845,10.341 C43.898,10.341 42.666,9.043 42.666,6.986 C42.666,4.951 43.887,3.62 45.768,3.62 C47.055,3.62 48.067,4.258 48.507,5.358 C48.716,5.886 48.793,6.282 48.826,7.03 C48.826,7.052 48.826,7.085 48.848,7.338 Z M44.096,6.249 L47.418,6.249 C47.341,5.765 47.209,5.468 46.934,5.193 C46.637,4.896 46.263,4.753 45.746,4.753 C44.888,4.753 44.261,5.325 44.096,6.249 Z" id="Free"></path>
                <g id="icon_reg" transform="translate(0.000000, 17.000000)">
                    <path d="M31.5870556,-5.33333333 L11.3866667,-5.33333333 C8.53902778,-5.33333333 6.22222222,-3.34766667 6.22222222,-0.906583333 L6.22222222,32.9065833 C6.22222222,35.3474167 8.53902778,37.3333333 11.3866667,37.3333333 L31.5870556,37.3333333 C34.4348889,37.3333333 36.7515972,35.3473333 36.7515972,32.9069167 L36.7515972,-0.906583333 C36.7515972,-3.34766667 34.4348889,-5.33333333 31.5870556,-5.33333333 Z M33.6941528,-0.394083333 L33.6941528,31.95225 C33.6941528,33.0568195 32.7987223,33.95225 31.6941528,33.95225 L11.2795694,33.95225 C10.1749999,33.95225 9.27956944,33.0568195 9.27956944,31.95225 L9.27956944,-0.394083333 C9.27956944,-1.49865283 10.1749999,-2.39408333 11.2795694,-2.39408333 L31.6941528,-2.39408333 C32.7987223,-2.39408333 33.6941528,-1.49865283 33.6941528,-0.394083333 Z M11.5555556,-4.06785716e-13 L31.1111111,-4.06785716e-13 L31.1111111,32 L11.5555556,32 L11.5555556,-4.06785716e-13 Z" id="Shape-Copy" transform="translate(21.486910, 16.000000) rotate(90.000000) translate(-21.486910, -16.000000) "></path>
                    <path d="M63.1426111,7.55555556 L52.72,7.55555556 C49.8723611,7.55555556 47.5555556,9.54122222 47.5555556,11.9823056 L47.5555556,29.7954722 C47.5555556,32.2363056 49.8723611,34.2222222 52.72,34.2222222 L63.1426111,34.2222222 C65.9904444,34.2222222 68.3071528,32.2362222 68.3071528,29.7958056 L68.3071528,11.9823056 C68.3071528,9.54122222 65.9904444,7.55555556 63.1426111,7.55555556 Z M65.2497083,12.4948056 L65.2497083,28.8411389 C65.2497083,29.9457084 64.3542778,30.8411389 63.2497083,30.8411389 L52.6129028,30.8411389 C51.5083333,30.8411389 50.6129028,29.9457084 50.6129028,28.8411389 L50.6129028,12.4948056 C50.6129028,11.3902361 51.5083333,10.4948056 52.6129028,10.4948056 L63.2497083,10.4948056 C64.3542778,10.4948056 65.2497083,11.3902361 65.2497083,12.4948056 Z M53.7777778,13.7777778 L57.3333333,13.7777778 L57.3333333,27.1111111 L53.7777778,27.1111111 L53.7777778,13.7777778 Z" id="Shape-Copy-2" transform="translate(57.931354, 20.888889) rotate(90.000000) translate(-57.931354, -20.888889) "></path>
                </g>
            </g>
        </g>
    </g>
</svg>