<?xml version="1.0" encoding="UTF-8"?>
<svg width="31px" height="28px" viewBox="0 0 31 28" version="1.1" xmlns="http://www.w3.org/2000/svg" xmlns:xlink="http://www.w3.org/1999/xlink">
    <!-- Generator: Sketch 57.1 (83088) - https://sketch.com -->
    <title>icon_sales</title>
    <desc>Created with Sketch.</desc>
    <g id="Page-1" stroke="none" stroke-width="1" fill="none" fill-rule="evenodd">
        <g id="icon_sales" fill="#EB8602" fill-rule="nonzero">
            <path d="M8.71475862,9.45265517 C8.71475862,8.02338793 7.55631897,6.86494828 6.12650862,6.86494828 L5.59716379,6.86494828 C4.16735345,6.86494828 3.00885345,8.02338793 3.00885345,9.45265517 L3.00885345,23.9824224 L8.71469828,23.9824224 L8.71469828,9.45265517 L8.71475862,9.45265517 Z" id="Path"></path>
            <path d="M20.0846293,11.4323879 C19.7820603,11.8374828 19.6165948,12.3283879 19.6165948,12.8415603 C19.6165948,13.4751207 19.8617759,14.063 20.3069397,14.5075603 C20.7521638,14.9527845 21.3455948,15.1979655 21.9730603,15.1979655 C22.6010086,15.1979655 23.1944397,14.9527845 23.6391207,14.5137155 C24.4782759,13.6745603 24.5523793,12.35675 23.8558793,11.4323276 L20.0846293,11.4323276 L20.0846293,11.4323879 Z" id="Path"></path>
            <path d="M21.973,20.8981983 C20.9348879,20.8981983 19.9191034,20.6986983 18.9835776,20.3276379 L18.9835776,23.9851983 L24.688819,23.9851983 L24.688819,20.4301638 C23.8273966,20.7383448 22.9091293,20.8981983 21.973,20.8981983 Z" id="Path"></path>
            <path d="M16.7012155,18.9296293 C16.5524655,18.8098448 16.4159052,18.6788966 16.2788621,18.5418534 C14.7553966,17.0183879 13.9218534,14.9985259 13.9218534,12.8415603 C13.9218534,10.69075 14.7553966,8.67088793 16.2788621,7.14742241 C16.4159052,7.01037931 16.5524655,6.87882759 16.7012155,6.75910345 L16.7012155,2.60840517 C16.7012155,1.17913793 15.5421724,0.0206982759 14.1130259,0.0206982759 L13.5830776,0.0206982759 C12.1538707,0.0206982759 10.995431,1.17913793 10.995431,2.60840517 L10.995431,23.9851983 L16.7012759,23.9851983 L16.7012759,18.9296293 L16.7012155,18.9296293 Z" id="Path"></path>
            <path d="M30.3795776,19.2801121 L27.3010259,16.2812155 C27.9574569,15.2660345 28.3129483,14.0836379 28.3129483,12.8437931 C28.3129483,11.147681 27.6537414,9.55518103 26.4574052,8.35884483 C25.261069,7.16250862 23.668569,6.50330172 21.9724569,6.50330172 C20.2762845,6.50330172 18.6837845,7.16250862 17.4869052,8.35884483 C16.2906293,9.55518103 15.6314224,11.147681 15.6314224,12.8437931 C15.6314224,14.5399655 16.2906293,16.1330086 17.4869052,17.3293448 C18.6837845,18.5256207 20.2762845,19.1848276 21.9724569,19.1848276 C23.212181,19.1848276 24.395181,18.8287931 25.4104224,18.1723621 L28.4082328,21.2498276 C28.9670862,21.9234569 29.7917586,21.9635862 30.4292414,21.3261034 C31.0672069,20.6892845 31.0532672,19.8373362 30.3795776,19.2801121 Z M21.9724569,16.2466983 C21.0636638,16.2466983 20.2089397,15.8922931 19.5658448,15.2498017 C18.9233534,14.6073707 18.5695517,13.7525862 18.5695517,12.8437931 C18.5695517,11.935 18.9233534,11.080819 19.5658448,10.4383276 C20.2088793,9.79583621 21.0630603,9.44143103 21.9724569,9.44143103 C22.8807069,9.44143103 23.735431,9.79583621 24.3779224,10.4383276 C25.7046638,11.765069 25.7046638,13.9236638 24.3779224,15.2504052 C23.735431,15.8928362 22.8811897,16.2466983 21.9724569,16.2466983 Z" id="Shape"></path>
            <rect id="Rectangle" x="0" y="25.6969397" width="27.3879828" height="2.28236207"></rect>
        </g>
    </g>
</svg>