<?xml version="1.0" encoding="UTF-8"?>
<svg width="54px" height="24px" viewBox="0 0 54 24" version="1.1" xmlns="http://www.w3.org/2000/svg" xmlns:xlink="http://www.w3.org/1999/xlink">
    <!-- Generator: Sketch 57.1 (83088) - https://sketch.com -->
    <title>icon_reg</title>
    <desc>Created with Sketch.</desc>
    <g id="Page-1" stroke="none" stroke-width="1" fill="none" fill-rule="evenodd">
        <g id="Artboard" transform="translate(-370.000000, -297.000000)" fill="#EB8602" fill-rule="nonzero">
            <g id="icon_reg" transform="translate(370.000000, 297.000000)">
                <path d="M23.6902917,-4 L8.54,-4 C6.40427083,-4 4.66666667,-2.51075 4.66666667,-0.6799375 L4.66666667,24.6799375 C4.66666667,26.5105625 6.40427083,28 8.54,28 L23.6902917,28 C25.8261667,28 27.5636979,26.5105 27.5636979,24.6801875 L27.5636979,-0.6799375 C27.5636979,-2.51075 25.8261667,-4 23.6902917,-4 Z M25.2706146,0.2044375 L25.2706146,23.4641875 C25.2706146,24.568757 24.3751841,25.4641875 23.2706146,25.4641875 L8.95967708,25.4641875 C7.85510758,25.4641875 6.95967708,24.568757 6.95967708,23.4641875 L6.95967708,0.2044375 C6.95967708,-0.900132 7.85510758,-1.7955625 8.95967708,-1.7955625 L23.2706146,-1.7955625 C24.3751841,-1.7955625 25.2706146,-0.900132 25.2706146,0.2044375 Z M8.66666667,-3.02868841e-13 L23.3333333,-3.02868841e-13 L23.3333333,24 L8.66666667,24 L8.66666667,-3.02868841e-13 Z" id="Shape-Copy" transform="translate(16.115182, 12.000000) rotate(90.000000) translate(-16.115182, -12.000000) "></path>
                <path d="M47.3569583,5.66666667 L39.54,5.66666667 C37.4042708,5.66666667 35.6666667,7.15591667 35.6666667,8.98672917 L35.6666667,22.3466042 C35.6666667,24.1772292 37.4042708,25.6666667 39.54,25.6666667 L47.3569583,25.6666667 C49.4928333,25.6666667 51.2303646,24.1771667 51.2303646,22.3468542 L51.2303646,8.98672917 C51.2303646,7.15591667 49.4928333,5.66666667 47.3569583,5.66666667 Z M48.9372813,9.87110417 L48.9372813,21.1308542 C48.9372813,22.2354237 48.0418507,23.1308542 46.9372813,23.1308542 L39.9596771,23.1308542 C38.8551076,23.1308542 37.9596771,22.2354237 37.9596771,21.1308542 L37.9596771,9.87110417 C37.9596771,8.76653467 38.8551076,7.87110417 39.9596771,7.87110417 L46.9372813,7.87110417 C48.0418507,7.87110417 48.9372813,8.76653467 48.9372813,9.87110417 Z M40.3333333,10.3333333 L43,10.3333333 L43,20.3333333 L40.3333333,20.3333333 L40.3333333,10.3333333 Z" id="Shape-Copy-2" transform="translate(43.448516, 15.666667) rotate(90.000000) translate(-43.448516, -15.666667) "></path>
            </g>
        </g>
    </g>
</svg>