<?xml version="1.0" encoding="UTF-8"?>
<svg width="40px" height="28px" viewBox="0 0 40 28" version="1.1" xmlns="http://www.w3.org/2000/svg" xmlns:xlink="http://www.w3.org/1999/xlink">
    <!-- Generator: Sketch 57.1 (83088) - https://sketch.com -->
    <title>icon_setting2</title>
    <desc>Created with Sketch.</desc>
    <g id="Page-1" stroke="none" stroke-width="1" fill="none" fill-rule="evenodd">
        <g id="Artboard" transform="translate(-927.000000, -295.000000)" fill="#EB8602" fill-rule="nonzero">
            <g id="icon_setting2" transform="translate(927.000000, 295.000000)">
                <path d="M21.3098462,14.5194615 L19.2627692,14.2977692 C18.9826923,14.2674615 18.7458462,14.0833077 18.6383077,13.823 C18.637,13.8199231 18.6356923,13.8167692 18.6344615,13.8136923 C18.5265385,13.5534615 18.5636923,13.2558462 18.7403077,13.0363846 L20.0310769,11.4321538 C20.2744615,11.1296923 20.2508462,10.6924615 19.9763077,10.4179231 L17.5600769,8.00169231 C17.2855385,7.72715385 16.8483846,7.70353846 16.5458462,7.94692308 L14.9409231,9.23823077 C14.722,9.41438462 14.4252308,9.45176923 14.1653846,9.34484615 C14.1625385,9.34369231 14.1596923,9.34253846 14.1568462,9.34138462 C13.8956154,9.23415385 13.7107692,8.99692308 13.6803846,8.71615385 L13.4586154,6.66815385 C13.4168462,6.28215385 13.091,5.98969231 12.7027692,5.98969231 L9.28569231,5.98969231 C8.89746154,5.98969231 8.57161538,6.28215385 8.52984615,6.66815385 L8.30807692,8.71615385 C8.27769231,8.99684615 8.09276923,9.23415385 7.83153846,9.34138462 C7.82869231,9.34253846 7.82584615,9.34369231 7.82307692,9.34484615 C7.56323077,9.45184615 7.26646154,9.41438462 7.04753846,9.23823077 L5.44246154,7.94692308 C5.14,7.70353846 4.70276923,7.72715385 4.42830769,8.00169231 L2.01207692,10.4179231 C1.73753846,10.6924615 1.71392308,11.1296923 1.95730769,11.4321538 L3.24807692,13.0363846 C3.42469231,13.2559231 3.46184615,13.5534615 3.35392308,13.8136923 C3.35261538,13.8167692 3.35138462,13.8199231 3.35007692,13.823 C3.24246154,14.0833077 3.00569231,14.2674615 2.72561538,14.2977692 L0.678461538,14.5194615 C0.292461538,14.5612308 0,14.8870769 0,15.2753077 L0,18.6923846 C0,19.0806154 0.292461538,19.4064615 0.678461538,19.4482308 L2.72553846,19.6698462 C3.00561538,19.7001538 3.24246154,19.8843077 3.35,20.1446154 C3.35130769,20.1476923 3.35253846,20.1508462 3.35384615,20.1539231 C3.46176923,20.4141538 3.42461538,20.7117692 3.248,20.9313077 L1.95723077,22.5355385 C1.71384615,22.838 1.73746154,23.2752308 2.012,23.5497692 L4.42823077,25.966 C4.70276923,26.2405385 5.14,26.2641538 5.44246154,26.0207692 L7.04738462,24.7294615 C7.26630769,24.5532308 7.56307692,24.5158462 7.82292308,24.6228462 C7.82576923,24.624 7.82861538,24.6251538 7.83146154,24.6263077 C8.09269231,24.7335385 8.27753846,24.9707692 8.30792308,25.2515385 L8.52969231,27.2995385 C8.57146154,27.6855385 8.89730769,27.978 9.28553846,27.978 L12.7026154,27.978 C13.0908462,27.978 13.4166923,27.6855385 13.4584615,27.2995385 L13.6802308,25.2515385 C13.7106154,24.9708462 13.8954615,24.7335385 14.1566923,24.6263077 C14.1595385,24.6251538 14.1623846,24.624 14.1651538,24.6228462 C14.425,24.5158462 14.7217692,24.5532308 14.9407692,24.7294615 L16.5456923,26.0207692 C16.8481538,26.2641538 17.2853846,26.2405385 17.5599231,25.966 L19.9761538,23.5497692 C20.2506923,23.2752308 20.2742308,22.838 20.0309231,22.5355385 L18.7401538,20.9313077 C18.5635385,20.7118462 18.5263846,20.4142308 18.6343077,20.1539231 C18.6355385,20.1508462 18.6368462,20.1477692 18.6381538,20.1446154 C18.7457692,19.8843077 18.9825385,19.7001538 19.2626154,19.6698462 L21.3096923,19.4482308 C21.6956154,19.4063846 21.9881539,19.0805385 21.9881539,18.6923846 L21.9881539,15.2753077 C21.9881539,14.8870769 21.6958462,14.5612308 21.3098462,14.5194615 Z M10.9941538,20.4114615 C9.10115385,20.4114615 7.56653846,18.8768462 7.56653846,16.9838462 C7.56653846,15.0908462 9.10115385,13.5562308 10.9941538,13.5562308 C12.8871538,13.5562308 14.4217692,15.0908462 14.4217692,16.9838462 C14.4217692,18.8768462 12.8871538,20.4114615 10.9941538,20.4114615 Z" id="Shape"></path>
                <path d="M39.0360769,11.0932308 L37.6307692,9.98346154 C37.4069231,9.80669231 37.2826154,9.53569231 37.2824615,9.25038462 C37.2824615,9.24738462 37.2824615,9.24438462 37.2824615,9.24130769 C37.282,8.95538462 37.4063846,8.68369231 37.6307692,8.50653846 L39.0360769,7.39669231 C39.3579231,7.14253846 39.4717692,6.70553846 39.3148462,6.32669231 L38.6975385,4.83638462 C38.5406154,4.45746154 38.1510769,4.229 37.7438462,4.27684615 L35.9653846,4.48576923 C35.6813846,4.51915385 35.4013077,4.415 35.1995385,4.21246154 C35.1974615,4.21030769 35.1953077,4.20815385 35.1931538,4.20607692 C34.9914615,4.00423077 34.8877692,3.72469231 34.9210769,3.44138462 L35.13,1.663 C35.1778462,1.25576923 34.9493077,0.866230769 34.5704615,0.709307692 L33.0801538,0.0920769231 C32.7013077,-0.0648461538 32.2643077,0.049 32.0101538,0.370769231 L30.9003077,1.776 C30.7234615,1.99992308 30.4524615,2.12415385 30.1672308,2.12430769 C30.1641538,2.12430769 30.1611538,2.12430769 30.1581538,2.12430769 C29.8723077,2.12476923 29.6006154,2.00038462 29.4233846,1.776 L28.3135385,0.370692308 C28.0593846,0.0488461538 27.6223077,-0.065 27.2434615,0.0919230769 L25.7531538,0.709230769 C25.3743077,0.866153846 25.1457692,1.25569231 25.1936154,1.663 L25.4025385,3.44146154 C25.4359231,3.72538462 25.3317692,4.00546154 25.1292308,4.20730769 C25.1270769,4.20946154 25.1249231,4.21161538 25.1227692,4.21376923 C24.9209231,4.41546154 24.6414615,4.51915385 24.3580769,4.48584615 L22.5796923,4.27692308 C22.1723846,4.22907692 21.7829231,4.45761538 21.626,4.83646154 L21.0086923,6.32676923 C20.8517692,6.70561538 20.9656154,7.14269231 21.2874615,7.39684615 L22.6926923,8.50661538 C22.9166154,8.68346154 23.0408462,8.95438462 23.041,9.23969231 C23.041,9.24276923 23.041,9.24576923 23.041,9.24876923 C23.0415385,9.53469231 22.9170769,9.80638462 22.6926923,9.98353846 L21.2873846,11.0933846 C20.9655385,11.3475385 20.8516923,11.7845385 21.0086923,12.1633846 L21.6259231,13.6536923 C21.7828462,14.0325385 22.1723846,14.2610769 22.5796154,14.2132308 L24.3581538,14.0043077 C24.6420769,13.9709231 24.9221538,14.0750769 25.124,14.2776154 C25.1261538,14.2797692 25.1282308,14.2819231 25.1303846,14.284 C25.3320769,14.4858462 25.4357692,14.7653077 25.4024615,15.0486923 L25.1935385,16.8271538 C25.1456923,17.2344615 25.3742308,17.6239231 25.7530769,17.7808462 L27.2433846,18.3981538 C27.6222308,18.5550769 28.0592308,18.4412308 28.3134615,18.1193846 L29.4232308,16.7141538 C29.6000769,16.4902308 29.871,16.366 30.1563077,16.3658462 C30.1593077,16.3658462 30.1623077,16.3658462 30.1653846,16.3658462 C30.4512308,16.3653077 30.723,16.4897692 30.9001538,16.7141538 L32.01,18.1194615 C32.2641538,18.4413077 32.7011538,18.5551538 33.0800769,18.3982308 L34.5703846,17.7809231 C34.9492308,17.624 35.1777692,17.2344615 35.1299231,16.8272308 L34.921,15.0487692 C34.8876154,14.7648462 34.9917692,14.4846923 35.1943077,14.2829231 C35.1964615,14.2807692 35.1986154,14.2786154 35.2007692,14.2765385 C35.4026154,14.0749231 35.6820769,13.9711538 35.9654615,14.0044615 L37.7439231,14.2133846 C38.1512308,14.2612308 38.5406923,14.0326923 38.6976154,13.6538462 L39.3149231,12.1635385 C39.4716923,11.7844615 39.3579231,11.3473846 39.0360769,11.0932308 Z M31.0729231,11.9000769 C29.6433846,12.4922308 28.0044615,11.8133846 27.4123077,10.3837692 C26.8201538,8.95415385 27.4990769,7.31530769 28.9286154,6.72315385 C30.3581538,6.131 31.9970769,6.80984615 32.5892308,8.23946154 C33.1813077,9.669 32.5024615,11.308 31.0729231,11.9000769 Z" id="Shape"></path>
            </g>
        </g>
    </g>
</svg>