<?xml version="1.0" encoding="UTF-8"?>
<svg width="23px" height="36px" viewBox="0 0 23 36" version="1.1" xmlns="http://www.w3.org/2000/svg" xmlns:xlink="http://www.w3.org/1999/xlink">
    <!-- Generator: Sketch 57.1 (83088) - https://sketch.com -->
    <title>icon_handy</title>
    <desc>Created with Sketch.</desc>
    <g id="Page-1" stroke="none" stroke-width="1" fill="none" fill-rule="evenodd">
        <path d="M18.4015781,0 L4.3575,0 C1.95480469,0 0,1.67540625 0,3.73507031 L0,32.2649297 C0,34.3243828 1.95480469,36 4.3575,36 L18.4015781,36 C20.8044375,36 22.7591602,34.3243125 22.7591602,32.2652109 L22.7591602,3.73507031 C22.7591602,1.67540625 20.8044375,0 18.4015781,0 Z M11.3795391,33.7937344 C10.4059102,33.7937344 9.61373437,33.1146563 9.61373437,32.2801875 C9.61373437,31.4455078 10.4058281,30.7666406 11.3795391,30.7666406 C12.353168,30.7666406 13.1453438,31.4455078 13.1453438,32.2801875 C13.1453438,33.1146563 12.353168,33.7937344 11.3795391,33.7937344 Z M20.1794414,4.72999219 L20.1794414,28.6472109 L2.57963672,28.6472109 L2.57963672,4.72999219 L20.1794414,4.72999219 Z" id="icon_handy" fill="#EB8602" fill-rule="nonzero"></path>
    </g>
</svg>