<?xml version="1.0" encoding="UTF-8"?>
<svg width="240px" height="110px" viewBox="0 0 240 110" version="1.1" xmlns="http://www.w3.org/2000/svg" xmlns:xlink="http://www.w3.org/1999/xlink">
    <!-- Generator: Sketch 51.2 (57519) - http://www.bohemiancoding.com/sketch -->
    <title>operation-img01</title>
    <desc>Created with Sketch.</desc>
    <defs></defs>
    <g id="Page-1" stroke="none" stroke-width="1" fill="none" fill-rule="evenodd">
        <g id="Artboard" transform="translate(-254.000000, -827.000000)">
            <g id="operation-img01" transform="translate(254.000000, 827.000000)">
                <rect id="Rectangle-8" fill="#FFFFFF" x="0" y="0" width="240" height="110"></rect>
                <g id="Group-5" transform="translate(3.000000, 17.000000)">
                    <polygon id="Shape" fill="#3588AD" fill-rule="nonzero" points="105.740202 23 103.323833 25.375332 114.457404 36.3204102 92 36.3204102 92 39.6795898 114.457404 39.6795898 103.323833 50.624668 105.740202 53 121 38"></polygon>
                    <text id="申請時" font-family="HiraKakuPro-W6, Hiragino Kaku Gothic Pro" font-size="12" font-weight="500" fill="#3588AD">
                        <tspan x="14" y="75">申請時</tspan>
                    </text>
                    <text id="申請後" font-family="HiraKakuPro-W6, Hiragino Kaku Gothic Pro" font-size="12" font-weight="500" fill="#3588AD">
                        <tspan x="172" y="75">申請後</tspan>
                    </text>
                    <g id="Group-3" fill="#3588AD" fill-rule="nonzero">
                        <path d="M61.7353846,44.6298938 L1.99711368,44.6298938 C0.894369347,44.6298938 0,45.518708 0,46.6149204 L0,49.9210265 C0,56.7040885 14.2674628,55.843646 31.8661869,55.843646 C49.464911,55.843646 63.7323738,55.5729381 63.7323738,49.9210265 L63.7323738,46.6149204 C63.7323738,45.518708 62.8380045,44.6298938 61.7353846,44.6298938 Z" id="Shape"></path>
                        <path d="M5.34430808,40.124 L58.3878168,40.124 C60.3686239,40.124 61.9720159,38.526885 61.9720159,36.5566018 L61.9720159,33.4255575 C61.9720159,31.4567611 60.3686239,29.8610088 58.3878168,29.8610088 L53.5712924,29.8610088 L45.9578878,37.4373628 C44.0095692,39.3777876 40.850211,39.3777876 38.9005232,37.4373628 L31.2884878,29.8610088 L5.34430808,29.8610088 C3.36350092,29.8610088 1.76023339,31.4567611 1.76023339,33.4255575 L1.76023339,36.5566018 C1.76023339,38.526885 3.3636254,40.124 5.34430808,40.124 Z" id="Shape"></path>
                        <path d="M31.8661869,0.121044248 C14.2675873,0.121044248 0,9.30529204 0,21.4994159 L0,24.0688496 C0,25.1650619 0.894369347,26.055115 1.99711368,26.055115 L61.7353846,26.055115 C62.8380045,26.055115 63.7323738,25.1649381 63.7323738,24.0688496 L63.7323738,21.4994159 C63.7323738,9.30529204 49.4647865,0.121044248 31.8661869,0.121044248 Z M16.0209744,14.1385133 C14.8533774,14.1385133 13.9089682,13.1986549 13.9089682,12.0364071 C13.9089682,10.8755221 14.8533774,9.93293805 16.0209744,9.93293805 C17.1873267,9.93293805 18.1343499,10.875646 18.1343499,12.0364071 C18.1343499,13.1986549 17.1873267,14.1385133 16.0209744,14.1385133 Z M25.5273053,7.83070796 C24.360953,7.83070796 23.415299,6.88936283 23.415299,5.72860177 C23.415299,4.56635398 24.3610775,3.62649558 25.5273053,3.62649558 C26.6949023,3.62649558 27.6406807,4.56635398 27.6406807,5.72860177 C27.6406807,6.88948673 26.6949023,7.83070796 25.5273053,7.83070796 Z M31.8661869,16.2421062 C30.6998347,16.2421062 29.7528114,15.2993982 29.7528114,14.1386372 C29.7528114,12.9777522 30.6999592,12.036531 31.8661869,12.036531 C33.0325391,12.036531 33.9795624,12.9778761 33.9795624,14.1386372 C33.9795624,15.2993982 33.0324147,16.2421062 31.8661869,16.2421062 Z M38.2050686,7.83070796 C37.0374716,7.83070796 36.0916931,6.88936283 36.0916931,5.72860177 C36.0916931,4.56635398 37.0374716,3.62649558 38.2050686,3.62649558 C39.3714208,3.62649558 40.3170748,4.56635398 40.3170748,5.72860177 C40.3170748,6.88948673 39.3712963,7.83070796 38.2050686,7.83070796 Z M47.7112749,14.1385133 C46.5449227,14.1385133 45.5978994,13.1986549 45.5978994,12.0364071 C45.5978994,10.8755221 46.5450472,9.93293805 47.7112749,9.93293805 C48.8789964,9.93293805 49.8232811,10.875646 49.8232811,12.0364071 C49.8232811,13.1986549 48.8789964,14.1385133 47.7112749,14.1385133 Z" id="Shape"></path>
                    </g>
                    <g id="ホットドッグ-2" transform="translate(146.000000, 4.000000)">
                        <path d="M88.1056628,14.12424 C87.3799571,11.9816667 86.0505088,10.0852267 84.1501072,8.77032 C82.7276686,7.77989333 81.0106452,7.13318667 79.0715556,6.87266667 C78.869961,5.58774667 78.3555653,4.33316 77.5125809,3.22573333 C74.7933099,-0.347706667 69.6916842,-1.04138667 66.1164172,1.6744 C58.108499,7.75944 49.3615166,11.65008 41.1291033,14.0074133 C32.9084873,16.367 25.1989708,17.173 19.5787856,17.1681467 C17.0418519,17.1704 14.9263236,17.0015733 13.5075283,16.7868133 C9.06585575,16.12208 4.92484016,19.1802 4.25760039,23.61736 C4.09278558,24.7162933 4.15801754,25.7959867 4.41460819,26.8105067 C3.21492982,27.79504 2.2314191,28.94476 1.50588694,30.21252 C0.517518519,31.9340667 -0.00104093567,33.8677733 0.000173489279,35.8354533 C-0.00346978558,38.9504267 1.30064912,42.1255467 3.84903314,44.7482533 C6.39793762,47.37824 10.1640429,49.4760933 15.1522066,50.6608267 C18.9767778,51.56788 23.3280624,51.9805867 27.9791365,51.9830133 C35.4913957,51.9805867 43.7874795,50.89604 51.8236764,48.9307867 C59.8593528,46.96068 67.6295906,44.1148933 74.0858207,40.5343467 C78.9567057,37.8308667 82.6310351,34.2345467 85.0944094,30.3922667 C87.5551813,26.5463467 88.8218265,22.4579333 88.8266842,18.6964267 C88.8265107,17.0967333 88.5935146,15.55372 88.1056628,14.12424 Z M12.4738791,19.9062933 C12.6744327,18.8701067 13.6782417,18.1922 14.7160546,18.3924 C15.1424912,18.4816667 15.3772222,18.6348933 15.5534873,18.75068 C15.7280175,18.8701067 15.8444288,18.9775733 15.9483489,19.07776 C16.1518519,19.27796 16.3027875,19.4613467 16.4639591,19.6579067 C16.7779747,20.04756 17.1081248,20.49268 17.4915361,20.96796 C18.2486433,21.9160933 19.2128967,22.9451733 20.2215634,23.53884 C20.8971306,23.9380267 21.5522261,24.1527867 22.2616238,24.154 L22.3998947,24.1515733 L22.4101306,24.14776 C22.4469103,24.13216 22.5291442,24.09108 22.6401774,24.0139467 C22.8643255,23.8595067 23.1920468,23.5605067 23.552384,23.16704 C24.2846823,22.3780267 25.137729,21.2452933 26.1321696,20.1909067 C26.8011442,19.4899467 27.5384737,18.80476 28.4716725,18.2897867 C29.0048051,17.9989333 29.6114971,17.7685733 30.2853294,17.67688 L30.2835945,17.67688 C30.4615945,17.6526133 30.6392476,17.6406533 30.8136043,17.6418667 C31.6897251,17.64672 32.4303509,17.9001333 33.0988051,18.2065867 C33.7683002,18.5165067 34.3805439,18.8990533 34.9733567,19.29356 C36.1494405,20.0824 37.2766004,20.9329467 38.1870721,21.4084 C38.7901209,21.73392 39.2635731,21.85352 39.4590955,21.8438133 L39.5859162,21.83064 C39.5938967,21.83064 39.7042359,21.7966667 39.9136374,21.5990667 C40.1249474,21.40112 40.4039181,21.05376 40.6950331,20.6072533 C41.2854172,19.7158 41.9103255,18.46832 42.6577173,17.27284 C43.164306,16.4755067 43.7220741,15.6840667 44.5020819,15.0084133 C44.9476023,14.62604 45.4814288,14.2809333 46.117614,14.0673867 C46.6059864,13.9046267 47.0938382,13.8441333 47.5515029,13.8441333 C48.2451131,13.84656 48.8821657,13.97448 49.4912865,14.14452 C50.1005809,14.3157733 50.6848928,14.5366 51.2525497,14.7681733 C52.3833528,15.23028 53.4681813,15.7332933 54.3569669,16.0276133 C54.9450955,16.2278133 55.4376316,16.3195067 55.7141735,16.3146533 C55.9025828,16.3146533 55.981,16.2857067 56.0146569,16.2699333 C56.0316589,16.2626533 56.1329766,16.2071867 56.2960565,15.9646933 C56.4565341,15.72948 56.6461579,15.3325467 56.8236374,14.8378533 C57.187271,13.8437867 57.4962554,12.4938667 57.9225185,11.1619733 C58.2158889,10.2729467 58.5552339,9.37525333 59.1287895,8.5332 C59.4572047,8.05549333 59.8773957,7.59096 60.431694,7.22193333 C60.9797466,6.85758667 61.5618031,6.65617333 62.1197446,6.539 C62.6811559,6.42321333 63.2281676,6.3882 63.7678928,6.3882 C64.7628538,6.39062667 65.7422008,6.51005333 66.6672456,6.61734667 C67.5884737,6.72585333 68.4553996,6.8224 69.1340897,6.82014667 C69.5698947,6.82136 69.9225984,6.78028 70.1410214,6.72117333 C70.366731,6.66085333 70.4392495,6.60174667 70.463538,6.57886667 C71.232616,5.85502667 72.4437446,5.89108 73.1682359,6.65842667 C73.8927271,7.4282 73.8576823,8.63824 73.0884308,9.36069333 C72.4919747,9.92298667 71.7830975,10.24504 71.1130819,10.41872 C70.4380351,10.59604 69.7787758,10.6430133 69.1339162,10.6442267 C68.1304542,10.6418 67.146423,10.52116 66.2215517,10.4149067 C65.3003236,10.3051867 64.435653,10.2098533 63.7678928,10.2110667 C63.408076,10.2110667 63.1086335,10.2388 62.9011404,10.2823067 C62.6922593,10.3258133 62.5859103,10.38128 62.5496511,10.4053733 C62.4892768,10.4428133 62.3371267,10.58408 62.1596472,10.8952133 C61.9821676,11.2004533 61.7937583,11.65164 61.6150643,12.1848133 C61.2528187,13.2560133 60.9460897,14.6243067 60.4898129,15.9475333 C60.1782261,16.83188 59.808694,17.71848 59.1494347,18.5328 C58.772616,18.9936933 58.2776511,19.4291067 57.6546511,19.7236 L57.6522222,19.7248133 C57.6534366,19.7248133 57.6534366,19.7248133 57.6534366,19.7248133 L57.5205439,19.7873867 L57.6520487,19.7248133 C57.0084035,20.02988 56.3335302,20.1397733 55.7141735,20.13856 C55.0162261,20.1361333 54.370152,20.01064 53.7532242,19.8406 C53.1362963,19.6693467 52.5445244,19.44852 51.9721832,19.2169467 C50.8323587,18.7538 49.7468363,18.2471467 48.8682865,17.9526533 C48.2864035,17.7524533 47.8039298,17.6631867 47.5515029,17.6678667 C47.4258967,17.6678667 47.3601442,17.6848533 47.3348148,17.6931733 C47.2574386,17.7162267 47.0763158,17.8126 46.8275322,18.0648 C46.5806569,18.31336 46.2865926,18.7005867 45.9861092,19.1698 C45.374386,20.11204 44.7496511,21.3619467 44.0034737,22.5368 C43.496885,23.3185333 42.9427602,24.09056 42.1306569,24.7312 C41.667614,25.09312 41.0977018,25.4091067 40.4269922,25.5599067 L40.4233489,25.56112 C40.0996179,25.6335733 39.77554,25.6659867 39.4590955,25.6659867 C38.6844659,25.6649467 37.9872125,25.4791333 37.3543236,25.2317867 C36.7203938,24.9808 36.1402456,24.6622133 35.5871618,24.3233467 C34.4860253,23.6442267 33.4723275,22.8697733 32.5949922,22.3062667 C32.015885,21.9275333 31.4987135,21.6524533 31.1635322,21.54256 C30.972694,21.4761733 30.8509045,21.4642133 30.8134308,21.4652533 L30.7971228,21.4652533 L30.7959084,21.4652533 C30.6444522,21.4846667 30.4114561,21.5642267 30.0974405,21.7704933 C29.7858538,21.9755467 29.4135458,22.2988133 29.0233684,22.7030267 C28.2355536,23.5088533 27.4017641,24.6091733 26.497885,25.6127733 C25.8851209,26.28236 25.251885,26.9301067 24.3898168,27.4272267 C23.8995361,27.7047333 23.3037739,27.9326667 22.6165828,27.9688933 L22.6370546,27.96768 L22.6105107,27.9701067 C22.6124191,27.9701067 22.6146745,27.9688933 22.6165828,27.9688933 L22.6039181,27.9701067 C22.4940994,27.9735733 22.3799435,27.9772133 22.2616238,27.9772133 C20.4335673,27.9772133 18.8662651,27.28128 17.6412573,26.4210267 C16.408963,25.55488 15.4580682,24.5136667 14.7191774,23.621 C14.2295906,23.0275067 13.8303918,22.4919067 13.5552378,22.1455867 C13.463462,22.0285867 13.3933723,21.9453867 13.3427135,21.88732 C12.6900468,21.4818933 12.3186062,20.7062267 12.4738791,19.9062933 Z M81.871499,28.3294267 C79.7535419,31.6314267 76.5502359,34.79216 72.2261891,37.1926533 C66.1611774,40.5608667 58.6699103,43.3187733 50.9126842,45.2162533 C43.1545906,47.1163333 35.122384,48.1598 27.9791365,48.15876 C23.5586296,48.15876 19.4785088,47.7581867 16.036655,46.9402267 C11.6105965,45.8896533 8.535846,44.0908 6.59849123,42.08828 C4.6604425,40.0809067 3.83151072,37.8911867 3.82734698,35.8356267 C3.8285614,34.5314667 4.1635692,33.2720267 4.82647173,32.1138133 C5.19964717,31.4622533 5.69044834,30.84952 6.27718908,30.28012 C7.49369591,31.6215467 9.16248928,32.56864 11.0944659,32.8581067 C13.5269591,33.2200267 16.3489357,33.41676 19.5787856,33.4178 C26.6920195,33.4143333 35.7601306,32.44436 45.6101579,29.6287333 C55.4485614,26.8105067 66.0647173,22.1261733 75.9612398,14.61148 C77.3184464,13.5789333 78.2591053,12.2035333 78.756499,10.6991733 C79.4556608,10.8078533 80.0882027,10.9742533 80.6461442,11.19872 C82.105883,11.7984533 83.13346,12.7344533 83.8676667,13.9904267 C84.5945867,15.2450133 84.9989903,16.8507733 84.9989903,18.6966 C85.0036745,21.58572 83.9906706,25.0298533 81.871499,28.3294267 Z" id="Shape" fill="#3588AD" fill-rule="nonzero"></path>
                        <g id="Group-9" transform="translate(20.000000, 6.000000)" fill="#F00000">
                            <rect id="Rectangle-6" transform="translate(24.000000, 24.857143) rotate(45.000000) translate(-24.000000, -24.857143) " x="-6.85714286" y="21.4285714" width="61.7142857" height="6.85714286"></rect>
                            <rect id="Rectangle-6" transform="translate(24.000000, 24.857143) rotate(135.000000) translate(-24.000000, -24.857143) " x="-6.85714286" y="21.4285714" width="61.7142857" height="6.85714286"></rect>
                        </g>
                    </g>
                </g>
            </g>
        </g>
    </g>
</svg>