<?xml version="1.0" encoding="UTF-8"?>
<svg width="240px" height="110px" viewBox="0 0 240 110" version="1.1" xmlns="http://www.w3.org/2000/svg" xmlns:xlink="http://www.w3.org/1999/xlink">
    <!-- Generator: Sketch 51.2 (57519) - http://www.bohemiancoding.com/sketch -->
    <title>operation-img03</title>
    <desc>Created with Sketch.</desc>
    <defs></defs>
    <g id="Page-1" stroke="none" stroke-width="1" fill="none" fill-rule="evenodd">
        <g id="Artboard" transform="translate(-254.000000, -1146.000000)">
            <g id="operation-img03" transform="translate(254.000000, 1146.000000)">
                <rect id="Rectangle-8-Copy-2" fill="#FFFFFF" x="0" y="0" width="240" height="110"></rect>
                <g id="Group-10" transform="translate(48.000000, 2.000000)">
                    <g id="テイクアウトのコーヒーのアイコン2" transform="translate(0.000000, 26.000000)" fill="#3588AD" fill-rule="nonzero">
                        <path d="M60.9985851,23.4667188 L60.9985851,9.244375 L56.4455954,9.244375 L55.9230077,0 L53.8938144,0 L5.07714948,0 L4.55456186,9.244375 L0.00157216495,9.244375 L0.00157216495,23.4665625 L4.15648969,23.4665625 L4.56446649,30.7026563 L3.79174742,30.7026563 L5.7063299,64.5859375 L6.38267526,64.5859375 L6.47763402,64.5859375 L7.34798454,80 L53.6521727,80 L54.5228376,64.5860938 L55.2941418,64.5860938 L57.2073093,30.7028125 L56.4360052,30.7028125 L56.843982,23.4667187 L60.9985851,23.4667188 Z M49.5937861,75.7332813 L11.4063711,75.7332813 L10.7775052,64.5860938 L50.2228093,64.5860938 L49.5937861,75.7332813 Z M19.7674588,47.0764062 C19.7674588,41.1846875 24.5719948,36.4096875 30.5001572,36.4096875 C36.4269046,36.4096875 41.2328557,41.1846875 41.2328557,47.0764062 C41.2328557,52.968125 36.4269046,57.7429688 30.5001572,57.7429688 C24.5719948,57.743125 19.7674588,52.968125 19.7674588,47.0764062 Z M52.1358196,30.7028125 L8.86418041,30.7028125 L8.41564175,22.755625 L52.5845155,22.755625 L52.1358196,30.7028125 Z M56.7056314,19.2 L54.8147887,19.2 L52.7855954,19.2 L52.7450335,19.2 L8.25496649,19.2 L8.21440464,19.2 L4.29452577,19.2 L4.29452577,13.5110938 L8.61279124,13.5110938 L9.13553608,4.26671875 L51.8647784,4.26671875 L52.3875232,13.5110938 L56.7056314,13.5110938 L56.7056314,19.2 Z" id="Shape"></path>
                        <polygon id="Shape" points="30.5 49.9764062 33.6248351 51.6082812 33.0294562 48.15 35.5574974 45.7 32.0638325 45.1959375 30.5 42.04875 28.9363247 45.1959375 25.4426598 45.7 27.970701 48.15 27.3753222 51.6082812"></polygon>
                        <path d="M39.0862216,47.0764063 C39.0862216,42.3626563 35.2418067,38.5429688 30.5001572,38.5429688 C25.7570928,38.5429688 21.9140928,42.3625 21.9140928,47.0764063 C21.9140928,51.7903125 25.7570928,55.6096875 30.5001572,55.6096875 C35.2416495,55.6096875 39.0862216,51.7903125 39.0862216,47.0764063 Z M23.3449201,47.0764063 C23.3449201,45.1096875 24.1442088,43.3360938 25.4396727,42.0473438 C26.7365515,40.7598438 28.521116,39.9653125 30.5,39.9653125 C32.4774691,39.9653125 34.2620335,40.7596875 35.5589124,42.0473438 C36.8557912,43.3360938 37.6552371,45.1098438 37.6552371,47.0764063 C37.6552371,49.0429688 36.8559485,50.8153125 35.5589124,52.105625 C34.2620335,53.3929688 32.4774691,54.1875 30.5,54.1875 C28.521116,54.1875 26.7365515,53.393125 25.4396727,52.105625 C24.144366,50.8167187 23.3449201,49.043125 23.3449201,47.0764063 Z" id="Shape"></path>
                    </g>
                    <g id="Group-6" transform="translate(65.000000, 0.000000)" fill="#3588AD" fill-rule="nonzero">
                        <path d="M69.1465246,9.38513095 C62.140451,3.45889801 52.1232924,-0.00281077946 39.8756714,1.71244864e-06 C28.2510173,1.71244864e-06 18.3280771,3.27827353 11.2293475,9.1266942 C7.68373275,12.0463733 4.86092837,15.6096443 2.9387464,19.6622889 C1.01531444,23.7135272 -0.00155763586,28.2436704 4.8596449e-06,33.0531878 C-0.00280763226,38.8678586 1.21515761,44.2384681 3.67358804,48.9245484 C6.01733129,53.4032855 9.50138377,57.2120246 13.9390272,60.1906097 C12.8898115,64.6076283 11.4159095,70.9202664 11.4159095,70.9232351 C11.3484097,71.206828 11.3130973,71.5022959 11.3146598,71.8019826 C11.3116911,72.9879167 11.8655957,74.1294759 12.8252804,74.8657238 L12.8312179,74.8700987 L12.8326242,74.8716612 C13.5204347,75.3947847 14.3491823,75.662284 15.1763674,75.662284 C15.7993344,75.662284 16.4312076,75.5108782 17.0013622,75.2038478 L17.0587058,75.1744729 L17.1144869,75.140723 C17.1160494,75.1391605 17.9065158,74.6704118 19.1232311,73.9504139 C20.9468196,72.8718232 23.7224366,71.230578 26.1999295,69.7715197 C27.4372696,69.0426155 28.60086,68.3593362 29.5311699,67.8171503 C30.4555422,67.2765268 31.1681964,66.863403 31.4311644,66.718091 L31.4444456,66.7107472 L31.4621018,66.7004348 C34.9152169,64.7432529 37.665834,64.4140351 39.8759839,64.4023164 C49.0465825,64.3890352 58.8153043,62.6110715 66.6149694,57.7429605 C70.5046457,55.3051551 73.8901047,52.0534457 76.2721291,47.8904889 C78.6583722,43.7305009 80.0043059,38.6947341 79.9999309,32.8655321 C80.0188371,23.6972773 76.1586919,15.2966764 69.1465246,9.38513095 Z M71.0480816,44.8997162 C69.6712106,47.3020531 67.8652783,49.3240785 65.699347,51.0375111 C62.4534189,53.6045349 58.3771806,55.4574984 53.9057872,56.6521824 C49.4373626,57.849679 44.5867515,58.3846774 39.8758276,58.3831149 C36.9825547,58.3713962 32.9416288,58.9165509 28.5069541,61.4585748 L28.5069541,61.4571686 C28.0163305,61.7304491 26.9244586,62.3668535 25.4843065,63.2101323 C23.418375,64.4224726 20.6999453,66.0255929 18.4296393,67.3685578 C18.983544,65.0101271 19.6257296,62.2785725 20.106197,60.272797 L20.106197,60.2698283 C20.185728,59.9348292 20.2427591,59.5717053 20.2443216,59.158894 C20.2501028,58.5770206 20.1002595,57.8673352 19.7638542,57.2767119 C19.5154174,56.8342132 19.1952621,56.4860892 18.9144817,56.2481211 C18.4869829,55.8910909 18.1651088,55.7367163 17.9857343,55.6382791 L17.8049536,55.5457794 L17.7844849,55.5339044 C13.8538712,53.0020367 10.9634108,49.8575145 9.00466645,46.1294002 C7.04889082,42.395661 6.02030003,38.0387985 6.01873754,33.0530316 C6.02030003,29.0841368 6.84607891,25.4708659 8.37576201,22.2424377 C10.6754429,17.4080766 14.5738692,13.3980882 19.9047913,10.5399714 C25.2314947,7.68779209 31.998194,6.01857814 39.8756714,6.01857814 C51.0125143,6.02154688 59.552646,9.14841288 65.2584108,13.9798052 C70.9568319,18.8274475 73.9618233,25.3546162 73.9808857,32.8647509 C73.976667,37.7877055 72.8774514,41.6948817 71.0480816,44.8997162 Z" id="Shape"></path>
                    </g>
                    <path d="M87,14 L94.67,14 L94.67,16.99 L92.434,16.99 L92.434,31.03 L89.262,31.03 L89.262,16.99 L87,16.99 L87,14 Z M98.466,27.416 L98.024,31.03 L94.904,31.03 L97.816,14 L101.612,14 L104.524,31.03 L101.326,31.03 L100.884,27.416 L98.466,27.416 Z M99.662,17.64 L98.778,24.92 L100.572,24.92 L99.714,17.64 L99.662,17.64 Z M114.352,31.03 L110.998,31.03 L109.074,24.166 L109.022,24.166 L108.502,25.622 L108.502,31.03 L105.434,31.03 L105.434,14 L108.502,14 L108.502,21.488 L108.554,21.488 L110.764,14 L114.144,14 L111.076,21.462 L114.352,31.03 Z M115.106,14 L121.814,14 L121.814,16.99 L118.278,16.99 L118.278,20.864 L120.93,20.864 L120.93,23.49 L118.278,23.49 L118.278,28.092 L121.944,28.092 L121.944,31.03 L115.106,31.03 L115.106,14 Z M95.632,34.766 C98.44,34.766 99.844,36.534 99.844,39.836 L99.844,47.22 C99.844,50.522 98.44,52.264 95.632,52.264 C92.798,52.264 91.42,50.522 91.42,47.22 L91.42,39.836 C91.42,36.534 92.798,34.766 95.632,34.766 Z M96.672,47.22 L96.672,39.836 C96.672,38.068 96.386,37.652 95.632,37.652 C94.878,37.652 94.54,38.068 94.54,39.836 L94.54,47.22 C94.54,48.988 94.852,49.456 95.632,49.456 C96.386,49.456 96.672,48.988 96.672,47.22 Z M106.396,35 L109.542,35 L109.542,47.246 C109.542,50.652 108.008,52.264 105.33,52.264 C102.626,52.264 101.092,50.704 101.092,47.35 L101.092,35 L104.264,35 L104.264,47.35 C104.264,48.78 104.628,49.196 105.33,49.196 C106.032,49.196 106.396,48.806 106.396,47.35 L106.396,35 Z M110.426,35 L118.096,35 L118.096,37.99 L115.86,37.99 L115.86,52.03 L112.688,52.03 L112.688,37.99 L110.426,37.99 L110.426,35 Z" id="TAKE-OUT" fill="#3588AD"></path>
                    <g id="Group-9" transform="translate(39.000000, 36.000000)" fill="#F00000">
                        <rect id="Rectangle-6" transform="translate(28.000000, 29.000000) rotate(45.000000) translate(-28.000000, -29.000000) " x="-8" y="25" width="72" height="8"></rect>
                        <rect id="Rectangle-6" transform="translate(28.000000, 29.000000) rotate(135.000000) translate(-28.000000, -29.000000) " x="-8" y="25" width="72" height="8"></rect>
                    </g>
                </g>
            </g>
        </g>
    </g>
</svg>