<?xml version="1.0" encoding="UTF-8"?>
<svg width="240px" height="110px" viewBox="0 0 240 110" version="1.1" xmlns="http://www.w3.org/2000/svg" xmlns:xlink="http://www.w3.org/1999/xlink">
    <!-- Generator: Sketch 51.2 (57519) - http://www.bohemiancoding.com/sketch -->
    <title>operation-img02</title>
    <desc>Created with Sketch.</desc>
    <defs></defs>
    <g id="Page-1" stroke="none" stroke-width="1" fill="none" fill-rule="evenodd">
        <g id="Artboard" transform="translate(-706.000000, -827.000000)">
            <g id="operation-img02" transform="translate(706.000000, 827.000000)">
                <rect id="Rectangle-8-Copy" fill="#FFFFFF" x="0" y="0" width="240" height="110"></rect>
                <g id="食事メニューのフリーイラスト4" transform="translate(85.000000, 11.000000)" fill="#3588AD" fill-rule="nonzero">
                    <polygon id="Shape" points="23.569415 70.998125 21.5316117 66.6703125 20.1559005 66.6703125 20.1559005 74.3032813 21.5912379 74.3032813 21.5912379 69.9548437 23.0574223 72.9788125 24.084165 72.9788125 25.508818 69.9716875 25.508818 74.3032813 26.9441553 74.3032813 26.9441553 66.6703125 25.5684442 66.6703125"></polygon>
                    <polygon id="Shape" points="29.1344709 74.3032813 34.1411772 74.3032813 34.1411772 72.9853438 30.5672233 72.9853438 30.5672233 71.1089844 33.6160874 71.1089844 33.6160874 69.8013594 30.5672233 69.8013594 30.5672233 67.986875 34.1411772 67.986875 34.1411772 66.6703125 29.1344709 66.6703125"></polygon>
                    <polygon id="Shape" points="40.3681529 71.4274687 37.2286432 66.6703125 35.9616723 66.6703125 35.9616723 74.3032813 37.3968374 74.3032813 37.3968374 69.5358125 40.5361748 74.3032813 41.800733 74.3032813 41.800733 66.6703125 40.3681529 66.6703125"></polygon>
                    <path d="M48.0382209,71.6261562 C48.0382209,72.078875 47.9167282,72.4217656 47.6684005,72.6733906 C47.4200728,72.9234687 47.0967816,73.0460156 46.6754345,73.0460156 C46.2565,73.0460156 45.9357937,72.9248437 45.690051,72.6745937 C45.4470655,72.4269219 45.3254005,72.0737187 45.3254005,71.6261562 L45.3254005,66.6703125 L43.8902354,66.6703125 L43.8902354,71.6777187 C43.8902354,72.0749219 43.9626141,72.4437656 44.1022015,72.7739375 C44.2443738,73.1053125 44.4435874,73.3890781 44.691915,73.6224844 C44.9376578,73.8558906 45.2375121,74.0389375 45.5788981,74.1704219 C45.917699,74.2995 46.2875194,74.3653281 46.6754345,74.3653281 C47.0631772,74.3653281 47.4357549,74.2995 47.7743835,74.1704219 C48.1159417,74.0389375 48.4132112,73.8570937 48.6667087,73.6236875 C48.917449,73.3902812 49.1166626,73.1053125 49.2615922,72.7737656 C49.4011796,72.4435937 49.4761432,72.0749219 49.4761432,71.6775469 L49.4761432,66.6703125 L48.0383932,66.6703125 L48.0383932,71.6261562 L48.0382209,71.6261562 Z" id="Shape"></path>
                    <path d="M20.2696383,40.9261875 C23.1582354,44.363 24.6530267,44.631125 26.7813034,44.6685937 C28.4958155,44.6995312 29.7526189,44.4829687 31.5603617,46.6197187 L32.5610825,47.7970625 L35.0953689,44.8026562 L34.5239223,44.1256406 C32.713767,41.9887187 33.1404563,40.7869687 33.3965388,39.0962344 C33.7146602,36.9993594 33.7015631,35.4853125 30.7898738,32.0679219 C30.7898738,32.0679219 28.4778932,29.3366562 26.5876044,27.1031406 C25.0100947,25.24225 22.4964879,27.2463125 24.1101869,29.1522344 L28.5606117,34.4073125 C28.9097524,34.8225625 28.8890728,35.4119219 28.5166675,35.72525 L28.3357209,35.8773594 C27.9659005,36.1906875 27.3763592,36.1119687 27.0272184,35.6980937 L22.5535291,30.4146562 C21.6510364,29.35075 20.733034,29.577625 20.1148859,30.1013281 C19.4917403,30.6236562 19.114165,31.4876719 20.0166578,32.5527812 L24.4879345,37.8362187 C24.8394879,38.2500937 24.8189806,38.839625 24.4464029,39.1541562 L24.2654563,39.3064375 C23.8928786,39.6197656 23.3085073,39.5410469 22.9567816,39.1259687 L18.5089417,33.8720937 C16.8926578,31.9635937 14.4903762,34.1017187 16.0677136,35.9638125 C17.9578301,38.1962969 20.2696383,40.9261875 20.2696383,40.9261875 Z" id="Shape"></path>
                    <polygon id="Shape" points="47.1822573 59.0772188 39.7112306 50.2524687 37.1769442 53.24825 44.2212816 61.5725"></polygon>
                    <path d="M25.0538665,59.1184688 L25.1029806,59.0887344 L28.0510316,61.5725 L39.069818,48.555375 C43.0006675,44.0534531 43.0652913,49.4529062 47.8286675,43.4924531 C49.8793956,41.0705625 51.7102306,36.5210313 52.7316311,34.0410469 C54.3220655,30.182625 50.9835146,28.4932656 48.9689757,30.8725312 C47.9889345,32.02925 43.3289563,37.5345781 37.7483908,44.1242656 C32.1083714,50.7875156 25.5527621,58.5289375 25.0872985,59.0770469 C25.0693762,59.101625 25.0538665,59.1184688 25.0538665,59.1184688 Z" id="Shape"></path>
                    <path d="M8.80348301,12.557875 C7.74055097,12.557875 6.8016966,12.1362656 6.10358738,11.4424062 C5.40789078,10.7433906 4.98637136,9.8071875 4.98378641,8.7470625 C4.98619903,7.68573437 5.40789078,6.74953125 6.10358738,6.05189062 C6.8016966,5.35923437 7.74055097,4.937625 8.80348301,4.93504687 L68.4882888,4.93625 L68.4882888,0.001203125 L8.80348301,0 C3.96238592,0.00240625 0.0368786408,3.91634375 0.0368786408,8.74723437 L0.0368786408,79.2527656 C0.0368786408,84.0834844 3.96238592,87.9974219 8.80348301,88 L70.9631214,88 L70.9631214,12.557875 L8.80348301,12.557875 Z M66.0134563,83.0647812 L8.80348301,83.0647812 C6.69588592,83.061 4.98912864,81.3585781 4.98395874,79.2527656 L4.98395874,16.6098281 C6.1397767,17.1694531 7.43294175,17.4944688 8.80348301,17.4944688 L66.0134563,17.4944688 L66.0134563,83.0647812 Z" id="Shape"></path>
                </g>
                <g id="Group-5-Copy" transform="translate(168.000000, 56.500000) rotate(45.000000) translate(-168.000000, -56.500000) translate(132.000000, 20.000000)" fill="#F00000">
                    <rect id="Rectangle-6" x="0" y="33" width="72" height="8"></rect>
                    <rect id="Rectangle-6" transform="translate(36.000000, 37.000000) rotate(90.000000) translate(-36.000000, -37.000000) " x="0" y="33" width="72" height="8"></rect>
                </g>
            </g>
        </g>
    </g>
</svg>