<?xml version="1.0" encoding="UTF-8"?>
<svg width="240px" height="110px" viewBox="0 0 240 110" version="1.1" xmlns="http://www.w3.org/2000/svg" xmlns:xlink="http://www.w3.org/1999/xlink">
    <!-- Generator: Sketch 51.2 (57519) - http://www.bohemiancoding.com/sketch -->
    <title>operation-img04</title>
    <desc>Created with Sketch.</desc>
    <defs></defs>
    <g id="Page-1" stroke="none" stroke-width="1" fill="none" fill-rule="evenodd">
        <g id="Artboard" transform="translate(-706.000000, -1146.000000)">
            <g id="operation-img04" transform="translate(706.000000, 1146.000000)">
                <rect id="Rectangle-8-Copy-3" fill="#FFFFFF" x="0" y="0" width="240" height="110"></rect>
                <g id="Group-4" transform="translate(44.000000, 10.000000)" fill="#3588AD" fill-rule="nonzero">
                    <g id="飴のフリーアイコン2" transform="translate(99.161629, 63.389991) rotate(-18.000000) translate(-99.161629, -63.389991) translate(73.346503, 51.389991)">
                        <path d="M51.6302521,12.1630588 C51.6302521,11.4492101 51.3269244,10.7683361 50.7947899,10.2927731 L47.8372437,7.64702521 L48.6068571,4.05680672 C48.6448739,3.88285714 48.6634286,3.70709244 48.6634286,3.53142857 C48.6634286,2.78127731 48.3255126,2.05905882 47.7274286,1.57663866 C47.2729412,1.21089076 46.7145882,1.02161345 46.1528067,1.02161345 C45.8013782,1.02161345 45.4466218,1.09603361 45.1162689,1.24547899 L45.1027563,1.25223529 L35.9135798,5.66359664 C35.209916,4.54255462 34.3237311,3.54655462 33.2981849,2.72047059 C31.2547563,1.06890756 28.6435966,0.0789579832 25.8154286,0.0789579832 C22.958521,0.0789579832 20.3236639,1.08927731 18.2717647,2.76867227 C17.2648739,3.59142857 16.3972437,4.57815126 15.7028571,5.68729412 L6.52880672,1.25314286 L6.51368067,1.24638655 C6.18332773,1.09603361 5.82857143,1.02161345 5.47714286,1.02161345 C4.91455462,1.02161345 4.3570084,1.21089076 3.90252101,1.57663866 L3.90332773,1.57663866 C3.30352941,2.05905882 2.96652101,2.78127731 2.96652101,3.53142857 C2.96652101,3.70709244 2.98588235,3.88285714 3.02218487,4.05862185 L3.79260504,7.64884034 L0.836268908,10.2927731 C0.304033613,10.7692437 0,11.4500168 0,12.1630588 C0,12.8768067 0.304033613,13.5576807 0.836268908,14.0333445 L3.79210084,16.6790924 L3.02248739,20.2693109 C2.98618487,20.4441681 2.96682353,20.6215462 2.96682353,20.7946891 C2.96682353,21.5465546 3.30383193,22.2679664 3.90282353,22.7503866 C4.35731092,23.1153277 4.91485714,23.3045042 5.47744538,23.3045042 C5.82887395,23.3045042 6.18201681,23.2318992 6.51317647,23.0806387 L6.53092437,23.0729748 L15.8636975,18.5628908 C16.5623193,19.6205042 17.4230924,20.5599328 18.4131429,21.3446723 C20.4430588,22.9565042 23.022958,23.9220504 25.8156303,23.9211429 C28.5264202,23.9219496 31.0387563,23.0112605 33.0416471,21.4824202 C34.0984538,20.6755966 35.0107563,19.6923025 35.7482017,18.5823529 L45.1012437,23.0738824 L45.1164706,23.0806387 C45.448437,23.2301849 45.8015798,23.3045042 46.1530084,23.3045042 C46.7147899,23.3045042 47.2731429,23.1153277 47.7276303,22.749479 C48.3257143,22.2671597 48.6636303,21.5465546 48.6636303,20.7946891 C48.6636303,20.6207395 48.6450756,20.4433613 48.6070588,20.2676975 L47.8374454,16.6791933 L50.7949916,14.0334454 C51.3269244,13.5576807 51.6302521,12.8768067 51.6302521,12.1630588 Z M44.9643025,15.7430924 L46.0093109,20.6113613 L36.9510252,16.2609076 C37.0693109,15.9517311 37.1756975,15.6375126 37.2686723,15.316437 C37.4688403,14.622958 37.0693109,13.8981176 36.3765378,13.6987563 C35.6838655,13.4976807 34.9583193,13.8972101 34.7588571,14.5899832 C34.1987899,16.5278319 33.0229916,18.2097479 31.4558319,19.4051092 C29.8879664,20.6003697 27.9409412,21.3083697 25.8154286,21.3083697 C23.6267899,21.3083697 21.6271261,20.5573109 20.0356639,19.2978151 C18.4467227,18.0374118 17.2792941,16.2685714 16.7783193,14.2445042 C16.6051765,13.5432605 15.8971765,13.1167059 15.1961345,13.2899496 C14.4967059,13.4622857 14.0683361,14.1709916 14.2423866,14.8713277 C14.3581513,15.3384202 14.5025546,15.7938151 14.6706555,16.2381176 L5.62084034,20.6105546 L6.66413445,15.7430924 L2.66430252,12.1630588 L6.66413445,8.58383193 L5.62084034,3.71647059 L14.5685042,8.03989916 C14.4021176,8.51213445 14.2651765,8.9952605 14.1586891,9.492 C14.0074286,10.1981849 14.4569748,10.8926723 15.1631597,11.0430252 C15.8676303,11.1950924 16.5620168,10.7448403 16.7132773,10.0394622 C17.1618151,7.94198319 18.3208739,6.10467227 19.9258487,4.79112605 C21.5334454,3.47838655 23.5760672,2.6927395 25.8154286,2.6927395 C28.032,2.6927395 30.0568739,3.46315966 31.6561008,4.75310924 C33.2560336,6.04386555 34.4184202,7.85173109 34.8906555,9.91794958 C35.0502857,10.6208067 35.7515294,11.0608739 36.4550924,10.900437 C37.1579496,10.7408067 37.5980168,10.039563 37.4375798,9.336 C37.334521,8.8857479 37.2036303,8.44568067 37.051563,8.0165042 L46.0093109,3.71586555 L44.9643025,8.58332773 L48.9658487,12.1633613 L44.9643025,15.7430924 Z" id="Shape"></path>
                    </g>
                    <g id="飴アイコン3" transform="translate(120.773906, 29.835203) rotate(20.000000) translate(-120.773906, -29.835203) translate(98.673186, 17.835203)">
                        <path d="M43.7388777,2.09948201 C43.8522302,1.50517986 43.3746475,0.547510791 42.1494388,0.975971223 C39.5606331,1.88020144 35.1898705,3.82066187 33.0661295,7.13041727 C31.1982734,2.93128058 26.9932662,0.00241726619 22.1007194,0.00241726619 C17.0448345,0.00241726619 12.7223309,3.13217266 10.9561727,7.55801439 C8.31910791,4.45821583 4.94503597,2.23286331 3.14892086,1.1734964 C2.37461871,0.715942446 1.69536691,0.775079137 1.42532374,1.34097842 C0.865208633,2.51870504 0,4.8541295 0,8.0531223 C0,12.2321439 1.31102158,17.3131511 0.462561151,21.7755971 C0.349208633,22.3707626 0.826705036,23.3283453 2.052,22.8999712 C4.62828777,21.9997986 8.96658993,20.074446 11.1028489,16.7955108 C12.9531799,21.0337554 17.1806331,23.9976691 22.1006331,23.9976691 C27.1890647,23.9976691 31.5348777,20.8279424 33.2785036,16.3571223 C35.9115108,19.4360288 39.2646043,21.647223 41.0524317,22.7015827 C41.8267338,23.159223 42.5068489,23.1 42.7760288,22.5341007 C43.3370072,21.3563741 44.2013525,19.0217266 44.2013525,15.8220432 C44.2014388,11.6428489 42.8903309,6.56279137 43.7388777,2.09948201 Z M1.84869065,15.1468489 C1.77953957,14.3641727 1.69614388,13.5848633 1.61361151,12.8122014 C1.5611223,12.3121727 1.50863309,11.8203453 1.46115108,11.3378417 L7.1988777,5.60011511 C7.92561151,6.22109353 8.65329496,6.90621583 9.34506475,7.64969784 L1.84869065,15.1468489 Z M15.6669928,20.5878561 C14.8727482,19.9902734 14.1650935,19.2851223 13.5624173,18.4957986 L28.5969496,3.46143885 C29.3870504,4.06402878 30.0922014,4.77246043 30.6880576,5.56679137 L15.6669928,20.5878561 Z M37.416777,18.6233094 C36.6841727,18.0190791 35.9406906,17.3481151 35.2272518,16.6162878 L42.4177554,9.42578417 C42.4711079,9.97415827 42.5302446,10.5201151 42.587741,11.0635683 C42.6669928,11.8070504 42.7435683,12.5312806 42.805295,13.2356547 L37.416777,18.6233094 Z" id="Shape"></path>
                    </g>
                    <g id="キャンディのイラスト5" transform="translate(44.168616, 43.464894) rotate(-20.000000) translate(-44.168616, -43.464894) translate(10.500000, 9.464894)">
                        <path d="M67.0710643,21.8207096 C66.2874074,16.1927485 63.6906823,11.2461131 59.9579727,7.51327096 C57.2651462,4.82269786 53.9808655,2.75539181 50.3515478,1.50196491 C46.7223626,0.248405458 42.7450916,-0.189419103 38.6877583,0.375524366 C33.0597973,1.15812086 28.1128967,3.75696686 24.3812476,7.48967641 C21.6884211,10.1814425 19.6224405,13.4657232 18.3688811,17.0950409 C17.1153216,20.7242261 16.6774971,24.7014971 17.2424405,28.7598908 C17.7326238,32.2876725 18.9380663,35.5474308 20.6869786,38.4078051 L1.79769201,57.298152 C0.616904483,58.4768187 0.0209434698,60.0368421 0.0231968811,61.5818869 C0.0210760234,63.1267992 0.616904483,64.6868226 1.79676413,65.8644288 L2.15757505,66.2264327 C3.33650682,67.4062924 4.89745809,68.0031813 6.44237037,68 C7.9874152,68.0021209 9.54624561,67.4062924 10.7250448,66.2253723 L29.7690214,47.1824561 C31.1015828,47.9352281 32.5034698,48.5737388 33.9619571,49.0777076 C37.5911423,50.3311345 41.5673528,50.770152 45.6258791,50.2041481 C51.2549006,49.4215517 56.2016686,46.8237661 59.9322573,43.0899961 C62.6241559,40.3971696 64.6911969,37.1138168 65.9447563,33.4846316 C67.1981832,29.8554464 67.6358752,25.8781754 67.0710643,21.8207096 Z M8.34610526,63.8464327 C7.81536062,64.376117 7.13642105,64.6334035 6.44237037,64.6355244 C5.74619883,64.6344639 5.06831969,64.376117 4.53757505,63.8476257 L4.17557115,63.4857544 C3.64707992,62.9560702 3.38979337,62.2771306 3.38767251,61.5820195 C3.38979337,60.8869084 3.64707992,60.2077037 4.17676413,59.6772242 L22.22977,41.6239532 L26.3993762,45.7934269 L8.34610526,63.8464327 Z M62.7649279,32.3858947 C61.6790487,35.529271 59.8863938,38.3769201 57.5522573,40.7110565 C54.6843275,43.5789864 51.0060975,45.6631267 46.8066667,46.5760234 C46.4820429,46.5941832 46.1552982,46.5994854 45.829614,46.5920624 C43.748655,46.5418246 41.6270019,45.9759532 39.5929669,44.9861754 C37.5610526,43.9985185 35.6209981,42.5901365 33.923384,40.891462 C31.3501209,38.3204522 29.3363665,35.0852164 28.3241871,31.6962183 C27.8159766,30.0027135 27.5574971,28.2699727 27.5885146,26.558308 C27.621653,24.844655 27.9408421,23.1490292 28.6017544,21.5080156 C29.2947446,19.7815049 30.3965302,18.1628928 31.7846316,16.7747914 C34.0877505,14.4684912 37.1745263,12.8178012 40.3658869,12.3074698 C41.9620975,12.0512437 43.5840234,12.0736452 45.1664483,12.4238519 C46.7487407,12.7761793 48.294846,13.4520702 49.758768,14.5294659 C50.3844211,14.9907524 50.9514854,15.4786823 51.4595634,15.9868928 C52.6330604,17.1602573 53.5053957,18.4469552 54.110768,19.7922417 C55.0183626,21.808117 55.3280078,23.960655 55.1037271,26.0543392 C54.8794464,28.1481559 54.1192515,30.1790097 52.890347,31.9300429 C52.5358986,32.4340117 52.1440702,32.8996725 51.7191033,33.3245068 C49.9007329,35.1449981 47.4856062,36.2149708 45.078963,36.4006784 C43.8767018,36.4935984 42.6786823,36.36754 41.555423,36.0173333 C40.4311033,35.6650058 39.3826043,35.0894581 38.4557895,34.2684211 C38.3126316,34.1414347 38.1759688,34.0132554 38.0436803,33.8808343 C36.4848499,32.319883 35.6433996,30.3840702 35.4949396,28.4163119 C35.34754,26.4484211 35.894191,24.4591891 37.1574269,22.78623 C37.3282885,22.5598285 37.5118752,22.3505263 37.7051384,22.1562027 C38.7407797,21.1204288 40.091501,20.5321559 41.4891462,20.429692 C42.8878519,20.3281559 44.3143938,20.7093801 45.5219571,21.6212164 C45.6704172,21.7322963 45.8134425,21.8582222 45.9501053,21.9938246 C46.3280156,22.3718674 46.6536998,22.8384561 46.8929591,23.349848 C47.2548304,24.1144172 47.4161481,24.9707135 47.3392671,25.7404522 C47.3008265,26.128039 47.206846,26.495345 47.0541442,26.8349474 C46.8993216,27.1733567 46.6869708,27.4883041 46.3965458,27.7788616 C46.2812242,27.8952437 46.1519844,28.0072515 46.0078986,28.1151501 C45.4430877,28.5390565 44.7939727,28.7173411 44.1874074,28.6884444 C43.5767329,28.6584873 43.0257076,28.4225419 42.6243353,28.021037 C42.4021754,27.7968889 42.2185887,27.5202495 42.0861676,27.1647407 C41.8181442,26.4398051 41.0130136,26.0671969 40.2848967,26.3350877 C39.559961,26.6020507 39.1873528,27.4071813 39.4553762,28.1343704 C39.7223392,28.8614269 40.1323275,29.4956959 40.6415984,30.0039064 C41.5684133,30.9307212 42.7973177,31.4283275 44.0487563,31.4891696 C45.3032437,31.5500117 46.5994854,31.1774035 47.6907992,30.3584873 C47.9384094,30.1715867 48.1691852,29.9730214 48.3794152,29.7626589 C49.087384,29.055883 49.5763743,28.2166862 49.8560624,27.3431579 C50.277848,26.0288889 50.2404678,24.6515244 49.8892008,23.3851072 C49.533692,22.1177622 48.8641637,20.9442651 47.9341676,20.0121481 C47.7089591,19.7869396 47.4686394,19.576577 47.2134737,19.3833138 C45.4495828,18.049692 43.3291228,17.4816998 41.2843509,17.6322807 C39.2385185,17.7828616 37.2483587,18.6476413 35.7235945,20.1724055 C35.4386043,20.4584561 35.1705809,20.7661131 34.9217778,21.096039 C33.2400702,23.3179025 32.5001559,25.9999922 32.6988538,28.6266745 C32.8942378,31.2542846 34.0302222,33.8349708 36.061076,35.8637037 C36.2329981,36.0356257 36.4112827,36.2031735 36.5950019,36.3666121 C37.8249669,37.4588538 39.2354698,38.2287251 40.71954,38.693193 C42.9447173,39.3883041 45.3289591,39.3989084 47.583961,38.8116959 C49.8379025,38.223423 51.9722807,37.0361404 53.7021053,35.3063158 C54.2392125,34.7692086 54.7366862,34.1809357 55.185115,33.5413645 C57.1893255,30.6872203 58.1736686,27.2322105 57.9452788,23.7642105 C57.8319454,22.0301442 57.4134737,20.2962105 56.6682573,18.6402183 C55.9230409,16.985154 54.8509474,15.4124055 53.4426979,14.0040234 C52.8320234,13.3932164 52.1582534,12.8135595 51.4215205,12.272078 C49.6468928,10.9641715 47.7260585,10.1196725 45.7742066,9.6871501 C42.841193,9.03790253 39.850386,9.30923977 37.1042729,10.2401637 C34.354846,11.1734737 31.8360624,12.7600078 29.8030877,14.791922 C28.1705575,16.4244522 26.8519142,18.3452865 25.9998596,20.460577 C25.2075867,22.43377 24.8231813,24.4762885 24.7859337,26.5060819 C24.7303938,29.5533567 25.4489669,32.569614 26.7099493,35.3574815 C27.9730526,38.1453489 29.7796257,40.7110565 31.9407797,42.8731384 C33.2091852,44.140616 34.598347,45.2691774 36.077115,46.2183938 C35.7353918,46.1191111 35.395922,46.0133333 35.060694,45.8969513 C31.9173177,44.813193 29.0686082,43.0194776 26.7346043,40.6865341 C23.4993684,37.448117 21.2549708,33.181614 20.5748382,28.2955556 C20.0837271,24.7709552 20.4648187,21.3362261 21.548577,18.1928499 C22.6333957,15.0505341 24.4271111,12.2018246 26.7601871,9.86874854 C29.9975439,6.63245224 34.2641793,4.38818713 39.1511657,3.70792203 C42.6768265,3.21787135 46.1106277,3.59790253 49.2540039,4.68179337 C52.3952593,5.76753996 55.2450292,7.56032749 57.5791657,9.89327096 C60.8144016,13.1306277 63.0576062,17.398191 63.7389318,22.2842495 C64.2287173,25.8097778 63.8486862,29.2437115 62.7649279,32.3858947 Z" id="Shape"></path>
                    </g>
                </g>
                <g id="Group-5-Copy-3" transform="translate(127.000000, 54.500000) rotate(45.000000) translate(-127.000000, -54.500000) translate(91.000000, 18.000000)" fill="#F00000">
                    <rect id="Rectangle-6" x="0" y="33" width="72" height="8"></rect>
                    <rect id="Rectangle-6" transform="translate(36.000000, 37.000000) rotate(90.000000) translate(-36.000000, -37.000000) " x="0" y="33" width="72" height="8"></rect>
                </g>
            </g>
        </g>
    </g>
</svg>