<?xml version="1.0" encoding="UTF-8"?>
<svg width="29px" height="38px" viewBox="0 0 29 38" version="1.1" xmlns="http://www.w3.org/2000/svg" xmlns:xlink="http://www.w3.org/1999/xlink">
    <!-- Generator: Sketch 51.2 (57519) - http://www.bohemiancoding.com/sketch -->
    <title>tel</title>
    <desc>Created with Sketch.</desc>
    <defs></defs>
    <g id="Page-1" stroke="none" stroke-width="1" fill="none" fill-rule="evenodd">
        <g id="Artboard" transform="translate(-347.000000, -2705.000000)" fill="#606060" fill-rule="nonzero">
            <path d="M349.592795,2706.6103 C346.994019,2708.30367 346.483497,2713.59687 347.46465,2717.91098 C348.22877,2721.27056 349.853338,2725.77719 352.592765,2730.02087 C355.169823,2734.01309 358.765191,2737.5928 361.506687,2739.66395 C365.02715,2742.32335 370.045714,2744.01375 372.64449,2742.32038 C373.958579,2741.46412 375.910912,2739.12467 376,2738.70489 C376,2738.70489 374.85515,2736.93136 374.603915,2736.54216 L370.764699,2730.59465 C370.47941,2730.15268 368.690258,2730.55665 367.781351,2731.07388 C366.555316,2731.77183 365.4262,2733.64452 365.4262,2733.64452 C364.58555,2734.1325 363.881413,2733.6463 362.410201,2732.96601 C360.602064,2732.13016 358.569138,2729.5331 356.951145,2727.18089 C355.473359,2724.73739 353.942237,2721.81325 353.920076,2719.81365 C353.90183,2718.18663 353.747144,2717.34246 354.5335,2716.77024 C354.5335,2716.77024 356.695847,2716.49815 357.830134,2715.65815 C358.670858,2715.0353 359.767619,2713.5588 359.48233,2713.11675 L355.643114,2707.16931 C355.391879,2706.78011 354.247028,2705.00658 354.247028,2705.00658 C353.829141,2704.91715 350.906884,2705.75404 349.592795,2706.6103 Z" id="tel"></path>
        </g>
    </g>
</svg>