<?xml version="1.0" encoding="UTF-8"?>
<svg width="37px" height="48px" viewBox="0 0 37 48" version="1.1" xmlns="http://www.w3.org/2000/svg" xmlns:xlink="http://www.w3.org/1999/xlink">
    <!-- Generator: Sketch 57.1 (83088) - https://sketch.com -->
    <title>Path</title>
    <desc>Created with Sketch.</desc>
    <g id="phase-1" stroke="none" stroke-width="1" fill="none" fill-rule="evenodd">
        <g id="Group-12" transform="translate(-1310.000000, -28.000000)" fill="#FFFFFF" fill-rule="nonzero">
            <g id="Group-11">
                <g id="Group-7" transform="translate(1310.000000, 16.000000)">
                    <g id="Group-Copy-3" transform="translate(0.000000, 3.000000)">
                        <g id="電話の受話器のアイコン素材-(1)-copy" transform="translate(0.000000, 9.000000)">
                            <path d="M3.28411998,2.12360234 C-0.00757593038,4.25843275 -0.654219205,10.9315556 0.588541029,16.3703392 C1.55640068,20.6057544 3.61413167,26.2872515 7.08397963,31.6372398 C10.3481668,36.6702222 14.9021785,41.1831579 18.3746463,43.7942456 C22.8337808,47.1469474 29.1904592,49.2780351 32.4821551,47.1432047 C34.1466229,46.0637193 36.6195118,43.114386 36.7323539,42.5851696 C36.7323539,42.5851696 35.2822486,40.3492865 34.9640264,39.8586199 L30.1011492,32.3606082 C29.7397925,31.8034152 27.4735937,32.3127018 26.3223422,32.9647719 C24.7694065,33.8446784 23.3392311,36.2055673 23.3392311,36.2055673 C22.2744358,36.8207719 21.3825527,36.2078129 19.5190673,35.3501754 C17.2288217,34.2964211 14.653851,31.0223158 12.6044475,28.0568889 C10.7326346,24.9763743 8.79326617,21.2899181 8.765196,18.7690292 C8.74208489,16.717848 8.54615506,15.653614 9.54217846,14.9322105 C9.54217846,14.9322105 12.281079,14.589193 13.7178042,13.5301988 C14.7826931,12.7449825 16.1718861,10.8835556 15.8105293,10.326269 L10.9476521,2.82835088 C10.6294299,2.33768421 9.17932465,0.10180117 9.17932465,0.10180117 C8.65001471,-0.0109473684 4.94858781,1.04411696 3.28411998,2.12360234 Z" id="Path"></path>
                        </g>
                    </g>
                </g>
            </g>
        </g>
    </g>
</svg>