<?xml version="1.0" encoding="UTF-8"?>
<svg width="72px" height="72px" viewBox="0 0 72 72" version="1.1" xmlns="http://www.w3.org/2000/svg" xmlns:xlink="http://www.w3.org/1999/xlink">
    <!-- Generator: Sketch 57.1 (83088) - https://sketch.com -->
    <title>function-list02</title>
    <desc>Created with Sketch.</desc>
    <g id="提供プラン" stroke="none" stroke-width="1" fill="none" fill-rule="evenodd">
        <g id="TOP" transform="translate(-684.000000, -5025.000000)">
            <g id="function-list02" transform="translate(684.000000, 5025.000000)">
                <rect id="Rectangle" fill="#F3E8E0" x="0" y="0" width="72" height="72" rx="36"></rect>
                <g id="Group-7" transform="translate(7.068966, 10.000000)" fill="#CFA689">
                    <g id="吹き出しのアイコン17" fill-rule="nonzero">
                        <path d="M13.9307806,0 C6.75081964,0 0.931034483,4.18356586 0.931034483,10.5723028 C0.931034483,14.5130357 3.43805401,17.9108139 8.02583526,20.5642843 L15.5876204,25 L15.6727806,20.8962717 C22.3919525,20.5310806 26.9310345,16.6650808 26.9310345,10.5723028 C26.9310345,4.18356586 21.1107923,0 13.9307806,0 Z M15.5649212,19.0078737 L13.7718353,19.1053043 L13.7354251,20.8579635 L13.7178548,21.6968771 L9.0137337,18.9372044 C4.93645636,16.5792468 2.86889776,13.7646641 2.86889776,10.5723028 C2.86889776,4.87286456 8.43365948,1.89117317 13.9307806,1.89117317 C19.4279017,1.89117317 24.9931712,4.87291411 24.9931712,10.5723028 C24.9931712,15.5334792 21.4684446,18.6869378 15.5649212,19.0078737 Z" id="Shape"></path>
                    </g>
                    <text id="¥" font-family="HiraginoSans-W8, Hiragino Sans" font-size="11" font-weight="600">
                        <tspan x="9.25053448" y="15">¥</tspan>
                    </text>
                </g>
                <g id="Group-7" transform="translate(50.568966, 22.500000) scale(-1, 1) translate(-50.568966, -22.500000) translate(37.068966, 10.000000)" fill="#CFA689">
                    <g id="吹き出しのアイコン17" fill-rule="nonzero">
                        <path d="M13.9307806,0 C6.75081964,0 0.931034483,4.18356586 0.931034483,10.5723028 C0.931034483,14.5130357 3.43805401,17.9108139 8.02583526,20.5642843 L15.5876204,25 L15.6727806,20.8962717 C22.3919525,20.5310806 26.9310345,16.6650808 26.9310345,10.5723028 C26.9310345,4.18356586 21.1107923,0 13.9307806,0 Z M15.5649212,19.0078737 L13.7718353,19.1053043 L13.7354251,20.8579635 L13.7178548,21.6968771 L9.0137337,18.9372044 C4.93645636,16.5792468 2.86889776,13.7646641 2.86889776,10.5723028 C2.86889776,4.87286456 8.43365948,1.89117317 13.9307806,1.89117317 C19.4279017,1.89117317 24.9931712,4.87291411 24.9931712,10.5723028 C24.9931712,15.5334792 21.4684446,18.6869378 15.5649212,19.0078737 Z" id="Shape"></path>
                    </g>
                    <text id="¥" font-family="HiraginoSans-W8, Hiragino Sans" font-size="11" font-weight="600">
                        <tspan x="9.25053448" y="15">¥</tspan>
                    </text>
                </g>
                <g id="映画館での鑑賞アイコン素材-(1)" transform="translate(20.475000, 38.000000)" fill="#CFA689" fill-rule="nonzero">
                    <path d="M7.025,11 C10.0627057,11 12.525,8.53861925 12.525,5.50005666 C12.525,2.46149408 10.0627057,0 7.025,0 C3.98910695,0 1.525,2.46138075 1.525,5.49994334 C1.525,8.53850592 3.98910695,11 7.025,11 Z" id="Path"></path>
                    <path d="M7.02420701,13 C3.26080149,13 0.525,17.9169973 0.525,20.946458 C0.525,23.9722935 0.525,27 0.525,27 L13.525,27 C13.525,27 13.525,23.9722935 13.525,20.946458 C13.525,17.9169973 10.7876125,13 7.02420701,13 Z" id="Path"></path>
                </g>
                <g id="映画館での鑑賞アイコン素材-(1)" transform="translate(37.475000, 38.000000)" fill="#CFA689" fill-rule="nonzero">
                    <path d="M7.025,11 C10.0627057,11 12.525,8.53861925 12.525,5.50005666 C12.525,2.46149408 10.0627057,0 7.025,0 C3.98910695,0 1.525,2.46138075 1.525,5.49994334 C1.525,8.53850592 3.98910695,11 7.025,11 Z" id="Path"></path>
                    <path d="M7.02420701,13 C3.26080149,13 0.525,17.9169973 0.525,20.946458 C0.525,23.9722935 0.525,27 0.525,27 L13.525,27 C13.525,27 13.525,23.9722935 13.525,20.946458 C13.525,17.9169973 10.7876125,13 7.02420701,13 Z" id="Path"></path>
                </g>
            </g>
        </g>
    </g>
</svg>