<?xml version="1.0" encoding="UTF-8"?>
<svg width="72px" height="72px" viewBox="0 0 72 72" version="1.1" xmlns="http://www.w3.org/2000/svg" xmlns:xlink="http://www.w3.org/1999/xlink">
    <!-- Generator: Sketch 57.1 (83088) - https://sketch.com -->
    <title>function-list07</title>
    <desc>Created with Sketch.</desc>
    <g id="提供プラン" stroke="none" stroke-width="1" fill="none" fill-rule="evenodd">
        <g id="TOP" transform="translate(-480.000000, -5525.000000)">
            <g id="function-list07" transform="translate(480.000000, 5525.000000)">
                <rect id="Rectangle" fill="#F3E8E0" x="0" y="0" width="72" height="72" rx="36"></rect>
                <text id="+" font-family="HiraginoSans-W8, Hiragino Sans" font-size="13" font-weight="600" fill="#CFA689">
                    <tspan x="32.859" y="43">+</tspan>
                </text>
                <g id="ハンバーガーの無料アイコン7" transform="translate(6.000000, 25.706897)" fill="#CFA689" fill-rule="nonzero">
                    <path d="M23.2479844,17.2931034 L0.7520625,17.2931034 C0.336796875,17.2931034 0,17.6091547 0,17.9989542 L0,19.1745643 C0,21.5865367 5.37276562,21.280574 12,21.280574 C18.6272344,21.280574 24,21.1843136 24,19.1745643 L24,17.9989542 C24,17.6091547 23.6632031,17.2931034 23.2479844,17.2931034 Z" id="Path"></path>
                    <path d="M1.3690629,15.2931034 L21.6308895,15.2931034 C22.3875282,15.2931034 23,14.8262469 23,14.2503086 L23,13.3350654 C23,12.7595617 22.3875282,12.2931034 21.6308895,12.2931034 L19.7910493,12.2931034 L16.8828427,14.507766 C16.1386141,15.0749763 14.9317866,15.0749763 14.187035,14.507766 L11.2793514,12.2931034 L1.3690629,12.2931034 C0.612424207,12.2931034 0,12.7595617 0,13.3350654 L0,14.2503086 C0,14.8262469 0.612471755,15.2931034 1.3690629,15.2931034 Z" id="Path"></path>
                    <path d="M12,0.293103448 C5.3728125,0.293103448 0,3.83448647 0,8.53645708 L0,9.52721309 C0,9.94990507 0.336796875,10.2931034 0.7520625,10.2931034 L23.2479844,10.2931034 C23.6632031,10.2931034 24,9.9498573 24,9.52721309 L24,8.53645708 C24,3.83448647 18.6271875,0.293103448 12,0.293103448 Z M6.03309375,5.69814346 C5.59340625,5.69814346 5.23776562,5.3357405 5.23776562,4.88758571 C5.23776562,4.43995643 5.59340625,4.07650247 6.03309375,4.07650247 C6.4723125,4.07650247 6.8289375,4.4400042 6.8289375,4.88758571 C6.8289375,5.3357405 6.4723125,5.69814346 6.03309375,5.69814346 Z M9.6129375,3.26589695 C9.17371875,3.26589695 8.81760937,2.90292072 8.81760937,2.45533921 C8.81760937,2.00718442 9.17376563,1.64478146 9.6129375,1.64478146 C10.052625,1.64478146 10.4087813,2.00718442 10.4087813,2.45533921 C10.4087813,2.90296849 10.052625,3.26589695 9.6129375,3.26589695 Z M12,6.50927447 C11.5607812,6.50927447 11.2041562,6.14577274 11.2041562,5.69819123 C11.2041562,5.25056195 11.5608281,4.88763349 12,4.88763349 C12.4392187,4.88763349 12.7958437,5.25060972 12.7958437,5.69819123 C12.7958437,6.14577274 12.4391719,6.50927447 12,6.50927447 Z M14.3870625,3.26589695 C13.947375,3.26589695 13.5912187,2.90292072 13.5912187,2.45533921 C13.5912187,2.00718442 13.947375,1.64478146 14.3870625,1.64478146 C14.8262812,1.64478146 15.1823906,2.00718442 15.1823906,2.45533921 C15.1823906,2.90296849 14.8262344,3.26589695 14.3870625,3.26589695 Z M17.9668594,5.69814346 C17.5276406,5.69814346 17.1710156,5.3357405 17.1710156,4.88758571 C17.1710156,4.43995643 17.5276875,4.07650247 17.9668594,4.07650247 C18.4065938,4.07650247 18.7621875,4.4400042 18.7621875,4.88758571 C18.7621875,5.3357405 18.4065938,5.69814346 17.9668594,5.69814346 Z" id="Shape"></path>
                </g>
                <g id="ジュースのフリーアイコン" transform="translate(45.000000, 19.805556)" fill="#CFA689" fill-rule="nonzero">
                    <polygon id="Path" points="21.9988747 9.20313995 22 9.19444444 19.2575116 9.20232475 18.8965053 13.1304129 17.2828367 26.3562299 4.73494358 26.3638384 3.11221598 13.1306303 2.74248841 9.19444444 0.298100236 9.20313995 0.00900264964 9.20313995 0.00911518276 9.20422689 0 9.20422689 2.45839855 29.1944444 19.5584814 29.1944444 21.7379104 11.3419638 22 9.20313995"></polygon>
                    <path d="M8.25561943,11.4757228 L8.34133606,12.2951108 L5.95898886,12.3039655 L5.70569082,12.3039655 L5.70579353,12.304851 L5.69737081,12.3050723 L6.86489401,24.1944444 L15.8480383,24.1944444 L16.8797707,13.536368 L17,12.3040209 L16.9990756,12.3040209 L17,12.2951662 L10.0072894,12.302914 L9.02203604,2.73152564 L2.57382381,0.19942519 L2.56920159,0.197488234 L2.56920159,0.197488234 L2.56149788,0.194444444 L2,1.87406259 L7.46814601,4.02413983 L8.25561943,11.4757228 Z M9.93811009,17.1274857 C10.4599082,17.1274857 10.8842286,17.5856036 10.8842286,18.1487046 C10.8842286,18.7116395 10.4599082,19.1693147 9.93811009,19.1693147 C9.41549028,19.1693147 8.99039946,18.7116395 8.99039946,18.1487046 C8.99039946,17.5856036 9.41549028,17.1274857 9.93811009,17.1274857 Z M13.4759113,20.1336978 C13.8651542,20.1336978 14.1817768,20.4744915 14.1817768,20.8937043 C14.1817768,21.3124743 13.8651542,21.6532126 13.4759113,21.6532126 C13.0868739,21.6532126 12.7704568,21.3124189 12.7704568,20.8937043 C12.7704568,20.4744915 13.0868739,20.1336978 13.4759113,20.1336978 Z M13.1973451,16.0716783 C12.5061167,16.0716783 11.9435917,15.4655769 11.9435917,14.7206787 C11.9435917,13.9758358 12.5060654,13.3699004 13.1973451,13.3699004 C13.8885735,13.3699004 14.4508931,13.9757805 14.4508931,14.7206787 C14.4508931,15.4655769 13.8886249,16.0716783 13.1973451,16.0716783 Z" id="Shape"></path>
                </g>
            </g>
        </g>
    </g>
</svg>