<?xml version="1.0" encoding="UTF-8"?>
<svg width="72px" height="72px" viewBox="0 0 72 72" version="1.1" xmlns="http://www.w3.org/2000/svg" xmlns:xlink="http://www.w3.org/1999/xlink">
    <!-- Generator: Sketch 57.1 (83088) - https://sketch.com -->
    <title>function-list01</title>
    <desc>Created with Sketch.</desc>
    <g id="提供プラン" stroke="none" stroke-width="1" fill="none" fill-rule="evenodd">
        <g id="TOP" transform="translate(-480.000000, -5025.000000)">
            <g id="function-list01" transform="translate(480.000000, 5025.000000)">
                <rect id="Rectangle" fill="#F3E8E0" x="0" y="0" width="72" height="72" rx="36"></rect>
                <g id="クレジットカードのアイコン素材-(1)" transform="translate(11.000000, 28.000000)" fill="#CFA689" fill-rule="nonzero">
                    <path d="M16.5639492,3.81689555 L16,3.81689555 L16,4.18310445 L16.5639492,4.18310445 C16.6951002,4.18310445 16.8016997,4.16627176 16.8787116,4.13265531 C16.9590809,4.09898993 17,4.05465732 17,3.99960854 C17,3.94534268 16.958976,3.90174406 16.8787116,3.86734469 C16.8016997,3.83372824 16.6951002,3.81689555 16.5639492,3.81689555 Z" id="Path"></path>
                    <path d="M8.94416658,4.84700281 C8.95855874,4.82584938 8.97284883,4.79879896 8.97927937,4.76839429 C8.98887415,4.737124 8.99367153,4.69990262 8.99683577,4.65597273 C9,4.61285436 9,4.56043064 9,4.49956719 C9,4.43956936 9,4.38795715 8.99683577,4.34402727 C8.99367153,4.30009738 8.98887415,4.262876 8.97927937,4.23160571 C8.97284883,4.20033543 8.95855874,4.17496213 8.94416658,4.15299719 C8.92824334,4.13103224 8.90588956,4.11242155 8.87873839,4.09467648 C8.78146371,4.03127029 8.63795039,4 8.44329897,4 L8,4 L8,5 L8.44340104,5 C8.63795039,5 8.78156579,4.9678641 8.87884046,4.90532352 C8.90588956,4.88757845 8.92824334,4.86810214 8.94416658,4.84700281 Z" id="Path"></path>
                    <path d="M5.88029794,4.13265531 C5.95898028,4.09898993 6,4.05465732 6,3.99960854 C6,3.94534268 5.95898028,3.90174406 5.88029794,3.86734469 C5.80161561,3.83367931 5.69670583,3.81689555 5.56389005,3.81689555 L5,3.81689555 L5,4.18310445 L5.56389005,4.18310445 C5.69670583,4.18310445 5.80161561,4.16627176 5.88029794,4.13265531 Z" id="Path"></path>
                    <polygon id="Path" points="14.8146067 5 15.1853933 5 15.0028067 4"></polygon>
                    <path d="M30.0774375,0 L2.9225625,0 C1.30923633,0 0,1.2695625 0,2.834 L0,18.1660625 C0,19.7305 1.30923633,21 2.9225625,21 L30.077502,21 C31.6908281,21 33,19.7305 33,18.166 L33,2.834 C33,1.2695625 31.6908281,0 30.0774375,0 Z M28.0793906,3.1445625 C28.875,3.1445625 29.5195312,3.7695625 29.5195312,4.5410625 C29.5195312,5.3125625 28.875,5.9375 28.0793906,5.9375 C27.2837812,5.9375 26.63925,5.3125 26.63925,4.541 C26.63925,3.7695 27.2838457,3.1445625 28.0793906,3.1445625 Z M24.2263184,3.1445625 C25.0219277,3.1445625 25.666459,3.7695625 25.666459,4.5410625 C25.666459,5.3125625 25.0219277,5.9375 24.2263184,5.9375 C23.430709,5.9375 22.7861777,5.3125 22.7861777,4.541 C22.7861777,3.7695 23.430709,3.1445625 24.2263184,3.1445625 Z M17.8394004,3.7831875 L18.5191875,3.7831875 C18.6480937,3.7831875 18.7578574,3.8046875 18.850541,3.8456875 C18.9411621,3.8876875 19.0197305,3.953125 19.0882441,4.0429375 C19.1164746,4.081 19.138582,4.1210625 19.1546953,4.1640625 C19.1718398,4.2060625 19.1849238,4.2519375 19.1909824,4.30275 C19.197041,4.3535625 19.2030996,4.4091875 19.2040664,4.46975 C19.2060645,4.5303125 19.2070957,4.5976875 19.2070957,4.6699375 C19.2070957,4.7431875 19.2060645,4.8105625 19.2040664,4.871125 C19.2030352,4.9316875 19.197041,4.986375 19.1909824,5.037125 C19.1849238,5.087875 19.1718398,5.1348125 19.1546953,5.17675 C19.138582,5.21875 19.1164102,5.25975 19.0882441,5.297875 C19.0197305,5.38675 18.9412266,5.453125 18.850541,5.4941875 C18.7578574,5.5361875 18.6480937,5.5566875 18.5191875,5.5566875 L17.8394004,5.5566875 L17.8394004,3.7831875 Z M12.7224668,4.4414375 C12.7254961,4.3730625 12.7325215,4.3105625 12.7436074,4.2529375 C12.7557246,4.1953125 12.7738359,4.1425625 12.7989727,4.0956875 C12.8251406,4.046875 12.8614277,4 12.9087363,3.9550625 C12.9742207,3.8964375 13.0476973,3.8495625 13.1282637,3.817375 C13.2098613,3.785125 13.3055098,3.7695 13.4143066,3.7695 C13.5905215,3.7695 13.7406328,3.816375 13.8654785,3.910125 C13.9903242,4.003875 14.0688926,4.1425625 14.1041484,4.3290625 L13.7285156,4.3290625 C13.7104043,4.2558125 13.6761152,4.19525 13.6257773,4.148375 C13.5754395,4.1015 13.5049277,4.0780625 13.4143066,4.0780625 C13.3639687,4.0780625 13.317627,4.085875 13.278375,4.1025 C13.2380918,4.119125 13.2058652,4.1415625 13.178666,4.169875 C13.1605547,4.1874375 13.1464395,4.2089375 13.1353535,4.232375 C13.1242676,4.2558125 13.1142129,4.285125 13.107123,4.32225 C13.1000977,4.358375 13.0940391,4.4043125 13.092041,4.4599375 C13.0879805,4.515625 13.0859824,4.5859375 13.0859824,4.669875 C13.0859824,4.7548125 13.0879805,4.825125 13.092041,4.8808125 C13.0940391,4.9365 13.1000977,4.982375 13.107123,5.0195 C13.1141484,5.0546875 13.1242676,5.0859375 13.1353535,5.108375 C13.1464395,5.1318125 13.1605547,5.1523125 13.178666,5.170875 C13.2058652,5.1991875 13.2380918,5.2206875 13.278375,5.23825 C13.317627,5.253875 13.3639687,5.2626875 13.4143066,5.2626875 C13.5049277,5.2626875 13.5774375,5.23925 13.6268086,5.191375 C13.6781777,5.1445 13.7124023,5.0839375 13.7315449,5.0116875 L14.1041484,5.0116875 C14.0688926,5.19725 13.9903242,5.336875 13.8654785,5.430625 C13.7405684,5.525375 13.5905215,5.57225 13.4143066,5.57225 C13.3055098,5.57225 13.2098613,5.5546875 13.1282637,5.5234375 C13.0476973,5.49025 12.9741562,5.4443125 12.9087363,5.38475 C12.8614277,5.3398125 12.8251406,5.2929375 12.7989727,5.2460625 C12.7737715,5.19725 12.7556602,5.1445 12.7436074,5.087875 C12.7325215,5.03025 12.7254961,4.96675 12.7224668,4.899375 C12.7204687,4.831 12.7184062,4.7548125 12.7184062,4.669875 C12.7184062,4.5859375 12.7204043,4.50975 12.7224668,4.4414375 Z M10.5169453,3.7831875 L11.8684629,3.7831875 L11.8684629,4.09275 L11.3770078,4.09275 L11.3770078,5.556625 L11.0094316,5.556625 L11.0094316,4.09275 L10.5169453,4.09275 L10.5169453,3.7831875 Z M9.85127344,3.7831875 L10.2178828,3.7831875 L10.2178828,5.556625 L9.85127344,5.556625 L9.85127344,3.7831875 Z M8.10800977,3.7831875 L8.78779687,3.7831875 C8.91670312,3.7831875 9.0255,3.8046875 9.11811914,3.8456875 C9.20977148,3.8876875 9.28930664,3.953125 9.35582227,4.0429375 C9.38405273,4.081 9.40616016,4.1210625 9.42330469,4.1640625 C9.44044922,4.2060625 9.45250195,4.2519375 9.4595918,4.30275 C9.46668164,4.3535625 9.47067773,4.4091875 9.47267578,4.46975 C9.47467383,4.5303125 9.47467383,4.5976875 9.47467383,4.6699375 C9.47467383,4.7431875 9.47467383,4.8105625 9.47267578,4.871125 C9.47067773,4.9316875 9.46661719,4.986375 9.4595918,5.037125 C9.45256641,5.087875 9.44044922,5.1348125 9.42330469,5.17675 C9.40616016,5.2186875 9.38405273,5.25975 9.35582227,5.297875 C9.28937109,5.38675 9.20977148,5.453125 9.11811914,5.4941875 C9.02543555,5.5361875 8.91670312,5.5566875 8.78779687,5.5566875 L8.10800977,5.5566875 L8.10800977,3.7831875 Z M6.50776758,3.7831875 L7.74649219,3.7831875 L7.74649219,4.09275 L6.87437695,4.09275 L6.87437695,4.5078125 L7.61758594,4.5078125 L7.61758594,4.817375 L6.87437695,4.817375 L6.87437695,5.2480625 L7.74649219,5.2480625 L7.74649219,5.5566875 L6.50776758,5.5566875 L6.50776758,3.7831875 Z M4.77758789,3.7831875 L5.51576953,3.7831875 C5.61141797,3.7831875 5.69604492,3.7988125 5.77158398,3.827125 C5.84712305,3.8564375 5.91157617,3.8955 5.96494336,3.9443125 C6.01831055,3.993125 6.05859375,4.05075 6.08476172,4.1161875 C6.11299219,4.181625 6.12704297,4.2519375 6.12704297,4.326125 C6.12704297,4.389625 6.11698828,4.44625 6.0988125,4.4960625 C6.07966992,4.545875 6.05446875,4.5898125 6.02430469,4.628875 C5.99207812,4.6679375 5.95579102,4.701125 5.91350977,4.7285 C5.87219531,4.755875 5.82888281,4.7773125 5.78260547,4.792 L6.20354883,5.556625 L5.77654687,5.556625 L5.4099375,4.8495625 L5.14509961,4.8495625 L5.14509961,5.556625 L4.77752344,5.556625 L4.77752344,3.7831875 L4.77758789,3.7831875 Z M3.88935937,12.359375 L3.88935937,10.9921875 L6.03242578,10.9921875 L6.03242578,12.359375 L3.88935937,12.359375 Z M6.03242578,12.796875 L6.03242578,14.2734375 L4.84809961,14.2734375 C4.31835937,14.2734375 3.88935937,13.8574375 3.88935937,13.34375 L3.88935937,12.796875 L6.03242578,12.796875 Z M3.88935937,10.5546875 L3.88935937,9.1875 L6.03242578,9.1875 L6.03242578,10.5546875 L3.88935937,10.5546875 Z M3.88935937,8.75 L3.88935937,8.203125 C3.88935937,7.6894375 4.31835937,7.2734375 4.84809961,7.2734375 L6.03242578,7.2734375 L6.03242578,8.75 L3.88935937,8.75 Z M3.07364062,4.6699375 C3.07364062,4.5859375 3.07563867,4.50975 3.07770117,4.4414375 C3.08073047,4.3730625 3.08775586,4.3105625 3.09987305,4.2529375 C3.11095898,4.1953125 3.13010156,4.1425625 3.15427148,4.0956875 C3.18043945,4.046875 3.21672656,4 3.26506641,3.9550625 C3.32951953,3.8964375 3.4020293,3.8495625 3.48459375,3.817375 C3.56516016,3.785125 3.66080859,3.7695 3.76960547,3.7695 C3.94582031,3.7695 4.09689844,3.816375 4.22180859,3.910125 C4.3456875,4.003875 4.42425586,4.1425625 4.45951172,4.3290625 L4.0848457,4.3290625 C4.06570312,4.2558125 4.03147852,4.19525 3.98210742,4.148375 C3.93176953,4.1015 3.86125781,4.0780625 3.76960547,4.0780625 C3.71823633,4.0780625 3.67395703,4.085875 3.63367383,4.1025 C3.59339062,4.119125 3.56116406,4.1415625 3.53499609,4.169875 C3.51688477,4.1874375 3.50276953,4.2089375 3.49065234,4.232375 C3.47956641,4.2558125 3.47047852,4.285125 3.46242187,4.32225 C3.45539648,4.358375 3.45030469,4.4043125 3.44733984,4.4599375 C3.444375,4.5155625 3.4423125,4.5859375 3.4423125,4.669875 C3.4423125,4.7548125 3.44431055,4.825125 3.44733984,4.8808125 C3.45036914,4.9365 3.45539648,4.982375 3.46242187,5.0195 C3.47047852,5.0546875 3.47956641,5.0859375 3.49065234,5.108375 C3.50276953,5.1318125 3.51682031,5.1523125 3.53499609,5.170875 C3.56116406,5.1991875 3.59339062,5.2206875 3.63367383,5.23825 C3.67395703,5.253875 3.71830078,5.2626875 3.76960547,5.2626875 C3.86125781,5.2626875 3.93273633,5.23925 3.98210742,5.191375 C4.03347656,5.1445 4.06770117,5.0839375 4.08684375,5.0116875 L4.45944727,5.0116875 C4.42419141,5.19725 4.34562305,5.336875 4.22174414,5.430625 C4.09683398,5.525375 3.94582031,5.57225 3.76954102,5.57225 C3.66074414,5.57225 3.5650957,5.5546875 3.4845293,5.5234375 C3.40196484,5.49025 3.32945508,5.4443125 3.26500195,5.38475 C3.21666211,5.3398125 3.180375,5.2929375 3.15420703,5.2460625 C3.13003711,5.19725 3.11089453,5.1445 3.09980859,5.087875 C3.08769141,5.03025 3.08066602,4.96675 3.07763672,4.899375 C3.07563867,4.8310625 3.07364062,4.754875 3.07364062,4.6699375 Z M8.25,17.666 L3.09375,17.666 L3.09375,16.666 L8.25,16.666 L8.25,17.666 Z M8.51387109,8.75 L8.51387109,9.1875 L8.51387109,9.7519375 L8.51387109,9.7890625 L8.51387109,10.5546875 L8.51387109,10.9921875 L8.51387109,11.59375 L8.51387109,11.9394375 L8.51387109,12.359375 L8.51387109,12.796875 L8.51387109,13.63475 L8.51387109,14.2734375 L6.48359766,14.2734375 L6.48359766,13.63475 L6.48359766,12.796875 L6.48359766,12.359375 L6.48359766,11.9394375 L6.48359766,11.59375 L6.48359766,10.9921875 L6.48359766,10.5546875 L6.48359766,9.7890625 L6.48359766,9.7519375 L6.48359766,9.1875 L6.48359766,8.75 L6.48359766,8.275375 L6.48359766,7.2734375 L7.66792383,7.2734375 L8.51387109,7.2734375 L8.85225,7.2734375 L9.9237832,7.2734375 L10.1483379,7.2734375 C10.6780781,7.2734375 11.1081094,7.6894375 11.1081094,8.203125 L11.1081094,8.75 L9.9237832,8.75 L8.85225,8.75 L8.51387109,8.75 Z M8.96504297,10.5546875 L8.96504297,9.1875 L11.1081094,9.1875 L11.1081094,10.5546875 L8.96504297,10.5546875 Z M11.1081094,10.9921875 L11.1081094,12.359375 L8.96504297,12.359375 L8.96504297,10.9921875 L11.1081094,10.9921875 Z M8.96504297,14.2734375 L8.96504297,12.796875 L11.1081094,12.796875 L11.1081094,13.34375 C11.1081094,13.8574375 10.6780781,14.2734375 10.1483379,14.2734375 L8.96504297,14.2734375 Z M15.46875,17.666 L10.3125,17.666 L10.3125,16.666 L15.46875,16.666 L15.46875,17.666 Z M15.4929199,5.556625 L15.382125,5.243125 L14.7134238,5.243125 L14.5986328,5.556625 L14.2159102,5.556625 L14.9007246,3.7831875 L15.1887656,3.7831875 L15.8776406,5.556625 L15.4929199,5.556625 Z M16.7416992,4.849625 L16.4778281,4.849625 L16.4778281,5.5566875 L16.110252,5.5566875 L16.110252,3.78325 L16.8484336,3.78325 C16.9431152,3.78325 17.028709,3.798875 17.104248,3.8271875 C17.1797871,3.8565 17.2442402,3.8955625 17.2976074,3.944375 C17.3500078,3.9931875 17.390291,4.0508125 17.4174258,4.11625 C17.4456563,4.1816875 17.4587402,4.252 17.4587402,4.3261875 C17.4587402,4.3896875 17.4496523,4.4463125 17.4305098,4.496125 C17.4123984,4.5459375 17.3871973,4.589875 17.356002,4.6289375 C17.3237754,4.668 17.2874883,4.7011875 17.2462383,4.7285625 C17.2049883,4.7559375 17.1606445,4.777375 17.1143027,4.7920625 L17.5352461,5.5566875 L17.1092754,5.5566875 L16.7416992,4.849625 Z M22.6875,17.666 L17.53125,17.666 L17.53125,16.666 L22.6875,16.666 L22.6875,17.666 Z M29.90625,17.666 L24.75,17.666 L24.75,16.666 L29.90625,16.666 L29.90625,17.666 Z M29.90625,14.666 L19.59375,14.666 L19.59375,13.666 L29.90625,13.666 L29.90625,14.666 Z" id="Shape"></path>
                    <path d="M18.9457997,4.84700281 C18.9585587,4.82584938 18.9729509,4.79879896 18.9809125,4.76839429 C18.9888741,4.737124 18.9936715,4.69990262 18.9968358,4.65597273 C19,4.61285436 19,4.56043064 19,4.49956719 C19,4.43956936 19,4.38795715 18.9968358,4.34402727 C18.9936715,4.30009738 18.9888741,4.262876 18.9809125,4.23160571 C18.9729509,4.20033543 18.9585587,4.17496213 18.9457997,4.15299719 C18.9298765,4.13103224 18.9075227,4.11242155 18.8788405,4.09467648 C18.7830969,4.03127029 18.6364193,4 18.443401,4 L18,4 L18,5 L18.443401,5 C18.6364193,5 18.7830969,4.9678641 18.8788405,4.90532352 C18.9075227,4.88757845 18.9298765,4.86810214 18.9457997,4.84700281 Z" id="Path"></path>
                </g>
                <g id="ユーロを積み上げたお金アイコン2-(1)" transform="translate(48.000000, 38.500000) scale(-1, 1) translate(-48.000000, -38.500000) translate(35.000000, 26.000000)" fill-rule="nonzero">
                    <path d="M17.3443189,9 C12.925866,9 9.34394371,12.5825548 9.34394371,17 C9.34394371,21.4182457 12.925916,25 17.3443189,25 C21.7619714,25 25.3439437,21.4182457 25.3439437,17.00005 C25.3439437,12.5826048 21.7619714,9 17.3443189,9 Z" id="Path" stroke="#F3E8E0" stroke-width="1.5" fill="#CFA689"></path>
                    <polygon id="Path" fill="#F3E8E0" points="20.5236859 16.3441647 18.3332463 16.3441647 18.0971465 16.7107801 18.0971465 17.5878454 20.5236859 17.5878454 20.5236859 17.5909972 20.5236859 18.6541218 20.5236859 18.8323765 18.0971465 18.8323765 18.0971465 20.7116306 16.5914914 20.7116306 16.5914914 18.8323765 14.163401 18.8323765 14.163401 18.6541218 14.163401 17.5909972 14.163401 17.5878454 16.5914914 17.5878454 16.5914914 16.712331 16.3538406 16.3441647 14.163401 16.3441647 14.163401 15.2802396 15.6706072 15.2802396 14.3901449 13.2884695 15.6675052 13.2884695 17.344369 15.897052 19.0211827 13.2884695 20.298543 13.2884695 19.0180307 15.2802897 20.5236859 15.2802897"></polygon>
                    <path d="M13.3439437,2.50036174 C13.3439437,3.88160394 10.4345493,5 6.84396873,5 C3.25338814,5 0.343943707,3.88160394 0.343943707,2.50036174 C0.343943707,1.11911954 3.25333809,0 6.84391868,0 C10.4344993,0 13.3439437,1.11911954 13.3439437,2.50036174 Z" id="Path" fill="#CFA689"></path>
                    <path d="M0.343943707,7.29054558 C0.343943707,8.78694313 3.25334929,10 6.84394371,10 C10.4345381,10 13.3439437,8.78694313 13.3439437,7.29054558 L13.3439437,6.61662509 C13.3439437,6.40984178 13.2375783,6.21609577 13.0615875,6.1019949 C12.8855966,5.98862922 12.661954,5.967995 12.4679936,6.04915954 C12.4679936,6.04915954 10.4345381,7.27981186 6.84394371,7.27981186 C3.25334929,7.27981186 1.22144546,6.04911052 1.22144546,6.04911052 C1.0259334,5.96794599 0.802240783,5.98862922 0.627050769,6.10194589 C0.450309072,6.21609577 0.343943707,6.40984178 0.343943707,6.61662509 L0.343943707,7.29054558 Z" id="Path" fill="#CFA689"></path>
                    <path d="M8.34394371,12.1335692 C7.85066322,13.0066239 7.48328706,13.9607938 7.25992795,14.9716709 C6.97398916,14.9915699 6.68516352,15 6.38832917,15 C3.05111953,15 0.343943707,13.7861633 0.343943707,12.2874676 L0.343943707,11.6173724 C0.343943707,11.4105899 0.440700064,11.2160604 0.606601363,11.1019599 C0.768125811,10.9885946 0.976910944,10.9679605 1.15808466,11.0491247 C1.15808466,11.0491247 3.05111953,12.2790375 6.38832917,12.2790375 C7.11004406,12.2790375 7.76191557,12.2223793 8.34394371,12.1335692 Z" id="Path" fill="#CFA689"></path>
                    <path d="M7.34394371,19.9716706 C7.05561925,19.992354 6.75477327,20 6.45468047,20 C3.08083713,20 0.343943707,18.7861484 0.343943707,17.2920415 L0.343943707,16.6181152 C0.343943707,16.4113301 0.441762192,16.216063 0.609484647,16.1019612 C0.772782204,15.9885945 0.983859243,15.9679601 1.16702177,16.0491253 C1.16702177,16.0491253 3.08083713,17.2797883 6.45468047,17.2797883 C6.66947631,17.2797883 6.87612845,17.2759653 7.07840277,17.2675351 C7.07105932,17.3732068 7.07105932,17.4789274 7.07105932,17.5845991 C7.07105932,18.4039954 7.16445291,19.2042768 7.34394371,19.9716706 Z" id="Path" fill="#CFA689"></path>
                    <path d="M9.34394371,23.6262972 C8.45778391,23.8652219 7.42833842,24 6.32476216,24 C3.02264896,24 0.343943707,22.7854782 0.343943707,21.2914022 L0.343943707,20.6175119 C0.343943707,20.4107379 0.439682506,20.2154813 0.603839071,20.1021207 C0.763664814,19.9887601 0.970254215,19.9681268 1.14952258,20.0485035 C1.14952258,20.0485035 3.02264896,21.2791006 6.32476216,21.2791006 C6.86685201,21.2791006 7.37434136,21.24695 7.83654138,21.18951 C8.22958647,22.0794372 8.73712189,22.8995739 9.34394371,23.6262972 Z" id="Path" fill="#CFA689"></path>
                </g>
            </g>
        </g>
    </g>
</svg>