<?xml version="1.0" encoding="UTF-8"?>
<svg width="72px" height="72px" viewBox="0 0 72 72" version="1.1" xmlns="http://www.w3.org/2000/svg" xmlns:xlink="http://www.w3.org/1999/xlink">
    <!-- Generator: Sketch 57.1 (83088) - https://sketch.com -->
    <title>function-list06</title>
    <desc>Created with Sketch.</desc>
    <g id="提供プラン" stroke="none" stroke-width="1" fill="none" fill-rule="evenodd">
        <g id="TOP" transform="translate(-888.000000, -5273.000000)">
            <g id="function-list06" transform="translate(888.000000, 5273.000000)">
                <rect id="Rectangle" fill="#F3E8E0" x="0" y="0" width="72" height="72" rx="36"></rect>
                <g id="timer" transform="translate(20.000000, 18.000000)" fill="#CFA689">
                    <path d="M0,20.6105263 C0,28.8547368 7.15294118,35.6 16,35.6 C24.8470588,35.6 32,28.8547368 32,20.6105263 C32,14.9894737 28.8,10.1178947 23.9058824,7.68210526 L24.6588235,6.37052632 L25.7882353,6.93263158 L27.1058824,4.68421053 L23.7176471,2.99789474 L22.4,5.24631579 L23.5294118,5.80842105 L22.7764706,7.12 C21.0823529,6.37052632 19.3882353,5.99578947 17.5058824,5.80842105 C18.6352941,5.24631579 19.3882353,4.30947368 19.3882353,2.99789474 C19.3882353,1.31157895 17.8823529,0 16.1882353,0 C14.3058824,0 12.8,1.31157895 12.8,2.99789474 C12.8,4.30947368 13.5529412,5.24631579 14.6823529,5.80842105 C6.58823529,6.37052632 0,12.7410526 0,20.6105263 Z M16.5647059,4.87157895 L16.5647059,3.93473684 L17.3176471,3.93473684 L17.3176471,2.24842105 L14.8705882,2.24842105 L14.8705882,3.93473684 L15.6235294,3.93473684 L15.6235294,4.87157895 C14.6823529,4.68421053 14.1176471,3.93473684 14.1176471,2.99789474 C14.1176471,1.87368421 15.0588235,1.12421053 16.1882353,1.12421053 C17.3176471,1.12421053 18.2588235,2.06105263 18.2588235,2.99789474 C18.2588235,3.93473684 17.5058824,4.68421053 16.5647059,4.87157895 Z M2.63529412,20.6105263 C2.63529412,13.6778947 8.65882353,8.05684211 16,8.05684211 C23.3411765,8.05684211 29.3647059,13.6778947 29.3647059,20.6105263 C29.3647059,27.5431579 23.3411765,33.1642105 16,33.1642105 C8.65882353,33.1642105 2.63529412,27.5431579 2.63529412,20.6105263 Z M15.4352941,10.4926316 C18.0705882,10.68 20.3294118,11.6168421 22.2117647,13.1157895 L15.4352941,19.2989474 L15.4352941,10.4926316 Z" id="Shape"></path>
                </g>
            </g>
        </g>
    </g>
</svg>