<?xml version="1.0" encoding="UTF-8"?>
<svg width="72px" height="72px" viewBox="0 0 72 72" version="1.1" xmlns="http://www.w3.org/2000/svg" xmlns:xlink="http://www.w3.org/1999/xlink">
    <!-- Generator: Sketch 57.1 (83088) - https://sketch.com -->
    <title>function-list04</title>
    <desc>Created with Sketch.</desc>
    <g id="提供プラン" stroke="none" stroke-width="1" fill="none" fill-rule="evenodd">
        <g id="TOP" transform="translate(-480.000000, -5273.000000)">
            <g id="function-list04" transform="translate(480.000000, 5273.000000)">
                <rect id="Rectangle" fill="#F3E8E0" x="0" y="0" width="72" height="72" rx="36"></rect>
                <g id="吹き出しのアイコン17" transform="translate(19.888889, 7.000000)" fill="#CFA689" fill-rule="nonzero">
                    <path d="M16.1107986,0 C7.27392361,0 0.111111111,5.18762166 0.111111111,13.1096554 C0.111111111,17.9961642 3.19667361,22.2094092 8.84317361,25.4997126 L18.1499861,31 L18.2547986,25.9113769 C26.5245486,25.45854 32.1111111,20.6647002 32.1111111,13.1096554 C32.1111111,5.18762166 24.9477361,0 16.1107986,0 Z M18.1220486,23.5697634 L15.9151736,23.6905773 L15.8703611,25.8638748 L15.8487361,26.9041276 L10.0590486,23.4821334 C5.04086111,20.558266 2.49617361,17.0681835 2.49617361,13.1096554 C2.49617361,6.04235205 9.34511111,2.34505473 16.1107986,2.34505473 C22.8764861,2.34505473 29.7260486,6.0424135 29.7260486,13.1096554 C29.7260486,19.2615142 25.3879236,23.1718028 18.1220486,23.5697634 Z" id="Shape"></path>
                </g>
                <text id="残5" font-family="HiraginoSans-W8, Hiragino Sans" font-size="11" font-weight="600" fill="#CFA689">
                    <tspan x="26.7485" y="25">残5</tspan>
                </text>
                <g id="ステーキアイコン4" transform="translate(15.045455, 37.000000)" fill="#CFA689" fill-rule="nonzero">
                    <path d="M41.9243558,12.1016879 C41.6777148,9.82767886 40.5707132,7.72961855 38.5316008,6.34305898 C31.8263292,1.7824387 26.5582219,5.62304976 22.2472898,4.66303747 C17.9368381,3.70238302 13.7982344,1.10457049 11.2315666,0.342420257 C5.7161776,-1.29658401 0.377040847,3.17895157 1.00517458,8.84992721 L1.00517458,11.8400123 C0.83484816,13.3472958 1.08541298,14.9923203 1.89180088,16.6656795 C5.80362304,24.7893421 21.2183644,29.7488169 30.8678728,28.9074416 C37.7330606,28.3087985 41.6203788,23.3308618 41.9545455,18.5585733 C41.9545455,18.5585733 41.9243558,12.2645529 41.9243558,12.1016879 Z M39.5682937,15.0456989 C38.7796031,18.0792093 36.0313979,21.4874135 30.6817709,21.9541753 C30.039143,22.0108449 29.3550346,22.0385376 28.6466625,22.0385376 C24.050812,22.0385376 18.5209288,20.8524087 13.8566915,18.8651993 C8.82609623,16.7223491 5.26621795,13.9023531 3.83233694,10.9248702 C2.81606396,8.81501037 2.86803474,6.67737765 3.97767895,4.90512752 C5.03735433,3.21194196 6.92648016,2.16034321 8.90697525,2.16034321 C9.4772925,2.16034321 10.0534555,2.24542791 10.6192082,2.41286818 C11.4723618,2.66739987 12.6878695,3.23313286 13.9751272,3.83177598 C16.1819234,4.85905335 18.9281267,6.13684898 21.7795528,6.77241565 C22.42154,6.91481213 23.0950781,6.98472606 23.8370831,6.98472606 C25.0519501,6.98472606 26.2873172,6.79224199 27.4817643,6.6069821 C28.7124868,6.41570205 29.9852504,6.21792026 31.2725081,6.21792026 C33.4805856,6.21792026 35.4019829,6.82587453 37.3212983,8.13136282 C39.8544133,9.85408723 40.1431754,12.8322926 39.5682937,15.0456989 Z" id="Shape"></path>
                    <path d="M19.9099292,9.01429094 C17.2482697,8.30838923 14.7936199,7.26129013 12.7570072,6.39083986 C11.5523671,5.87553701 10.3078821,5.34312419 9.59201228,5.14813223 C9.2310639,5.05001968 8.86869249,5 8.51318513,5 C7.29615628,5 6.13487687,5.59638252 5.48028126,6.55546549 C4.60218561,7.84441627 4.98590252,9.1985699 5.4637071,10.1089434 C6.68006629,12.4303496 10.0347432,14.8013131 14.6657142,16.6138135 C16.7002342,17.2683853 19.9545455,17.2683853 19.9545455,15.1937633 C19.9545455,13.133708 18.4529098,11.390187 19.9099292,9.01429094 Z" id="Path"></path>
                    <path d="M36.5046426,9.49586283 C34.9786284,8.46133788 33.5257397,8 31.7943005,8 C30.6917248,8 29.5641324,8.17370276 28.3662209,8.36062553 C27.1405665,8.55019229 25.7507807,8.76539784 24.3492883,8.76539784 C23.622844,8.76539784 22.9437869,8.7081913 22.289105,8.5963421 C21.7977528,9.80593188 21.826137,12.2436194 22.5176222,14.5470239 C23.2368502,16.9425677 23.2368502,17.781677 25.2753044,18.6208665 C26.5938089,18.979489 27.9485555,19 29.1650691,19 C29.8033138,19 30.4184662,18.9749221 30.9947306,18.9249264 C36.1714885,18.4748055 37.4972895,14.8972336 37.7804906,13.8112709 C37.9596161,13.1228695 38.3969259,10.7792442 36.5046426,9.49586283 Z M29.5912337,14.7865863 C27.0739357,15.0261486 26.5938089,12.0316989 28.9918771,11.5512921 C31.1594234,11.1181569 33.2030092,14.4430265 29.5912337,14.7865863 Z" id="Shape"></path>
                </g>
            </g>
        </g>
    </g>
</svg>