<?xml version="1.0" encoding="UTF-8"?>
<svg width="72px" height="72px" viewBox="0 0 72 72" version="1.1" xmlns="http://www.w3.org/2000/svg" xmlns:xlink="http://www.w3.org/1999/xlink">
    <!-- Generator: Sketch 57.1 (83088) - https://sketch.com -->
    <title>function-list09</title>
    <desc>Created with Sketch.</desc>
    <g id="提供プラン" stroke="none" stroke-width="1" fill="none" fill-rule="evenodd">
        <g id="TOP" transform="translate(-888.000000, -5525.000000)">
            <g id="function-list09" transform="translate(888.000000, 5525.000000)">
                <rect id="Rectangle" fill="#F3E8E0" x="0" y="0" width="72" height="72" rx="36"></rect>
                <g id="ショップアイコン2-(3)" transform="translate(14.000000, 36.000000)" fill="#CFA689" fill-rule="nonzero">
                    <rect id="Rectangle" x="0" y="0.0276862745" width="20.0784314" height="4.13380392"></rect>
                    <path d="M0,15.9723137 L11.5155686,15.9723137 L11.5155686,9.67329412 L16.1708235,9.67329412 L16.1708235,15.9723137 L20.0784314,15.9723137 L20.0784314,5.34254902 L0,5.34254902 L0,15.9723137 Z M3.5432549,9.47666667 L6.69278431,9.47666667 L6.69278431,12.6260392 L3.5432549,12.6260392 L3.5432549,9.47666667 Z" id="Shape"></path>
                </g>
                <g id="ショップアイコン2-(3)" transform="translate(39.000000, 36.000000)" fill="#CFA689" fill-rule="nonzero">
                    <rect id="Rectangle" x="0" y="0.0276862745" width="20.0784314" height="4.13380392"></rect>
                    <path d="M0,15.9723137 L11.5155686,15.9723137 L11.5155686,9.67329412 L16.1708235,9.67329412 L16.1708235,15.9723137 L20.0784314,15.9723137 L20.0784314,5.34254902 L0,5.34254902 L0,15.9723137 Z M3.5432549,9.47666667 L6.69278431,9.47666667 L6.69278431,12.6260392 L3.5432549,12.6260392 L3.5432549,9.47666667 Z" id="Shape"></path>
                </g>
                <g id="ショップアイコン2-(3)" transform="translate(26.000000, 14.000000)" fill="#CFA689" fill-rule="nonzero">
                    <rect id="Rectangle" x="0" y="0.0276862745" width="20.0784314" height="4.13380392"></rect>
                    <path d="M0,15.9723137 L11.5155686,15.9723137 L11.5155686,9.67329412 L16.1708235,9.67329412 L16.1708235,15.9723137 L20.0784314,15.9723137 L20.0784314,5.34254902 L0,5.34254902 L0,15.9723137 Z M3.5432549,9.47666667 L6.69278431,9.47666667 L6.69278431,12.6260392 L3.5432549,12.6260392 L3.5432549,9.47666667 Z" id="Shape"></path>
                </g>
            </g>
        </g>
    </g>
</svg>