<?xml version="1.0" encoding="UTF-8"?>
<svg width="72px" height="72px" viewBox="0 0 72 72" version="1.1" xmlns="http://www.w3.org/2000/svg" xmlns:xlink="http://www.w3.org/1999/xlink">
    <!-- Generator: Sketch 57.1 (83088) - https://sketch.com -->
    <title>function-list08</title>
    <desc>Created with Sketch.</desc>
    <g id="提供プラン" stroke="none" stroke-width="1" fill="none" fill-rule="evenodd">
        <g id="TOP" transform="translate(-684.000000, -5525.000000)">
            <g id="function-list08" transform="translate(684.000000, 5525.000000)">
                <rect id="Rectangle" fill="#F3E8E0" x="0" y="0" width="72" height="72" rx="36"></rect>
                <g id="ショッピングバッグアイコン" transform="translate(17.000000, 14.000000)" fill="#CFA689" fill-rule="nonzero">
                    <path d="M36.8429343,19.7918359 C34.092486,18.6878828 32.0494694,16.6913828 30.0036742,13.4648594 C27.6240045,9.71136719 27.449643,6.58135156 26.3889729,4.45448438 C25.2714269,2.21142969 22.6839648,0 19.4728652,0 C16.2625471,0 13.6743035,2.21142969 12.5567575,4.45448438 C11.4961742,6.58135156 11.3210312,10.3003828 9.53721238,13.9791953 C7.87148702,17.4142031 4.6305167,19.130375 2.10279604,19.7918359 C-0.10242532,20.3701953 0.552472283,22.2723359 0.552472283,22.2723359 L2.49215707,36.1521016 C3.12074415,40.6508438 7.00593155,44 11.5943828,44 L27.3514344,44 C31.9398857,44 35.8249862,40.6508438 36.4543548,36.1520156 L38.3933449,22.27225 C38.3933449,22.2723359 38.9570675,20.6406406 36.8429343,19.7918359 Z M24.3225982,15.6092578 C24.3225982,17.1344766 23.9339318,18.5455703 23.6427794,19.1302891 C22.9765934,20.4660156 21.3877156,21.0436016 19.4728652,21.0436016 C17.5581016,21.0436016 15.9693106,20.4659297 15.302951,19.1302891 C15.0125801,18.5455703 14.6231322,17.1344766 14.6231322,15.6092578 L14.6231322,10.7610078 C14.6231322,9.23647656 15.0124933,7.82469531 15.302951,7.2414375 C15.9692238,5.90510938 17.5580148,4.46720313 19.4728652,4.46720313 C21.3877156,4.46720313 22.9765066,5.90510938 23.6427794,7.2414375 C23.9339318,7.82478125 24.3225982,9.2365625 24.3225982,10.7610078 L24.3225982,15.6092578 Z" id="Shape"></path>
                </g>
                <text id="8%" font-family="HiraginoSans-W8, Hiragino Sans" font-size="14" font-weight="600" fill="#FFFFFF">
                    <tspan x="26.624" y="51">8</tspan>
                    <tspan x="37.446" y="51" font-size="10">%</tspan>
                </text>
            </g>
        </g>
    </g>
</svg>