<?xml version="1.0" encoding="UTF-8"?>
<svg width="72px" height="72px" viewBox="0 0 72 72" version="1.1" xmlns="http://www.w3.org/2000/svg" xmlns:xlink="http://www.w3.org/1999/xlink">
    <!-- Generator: Sketch 57.1 (83088) - https://sketch.com -->
    <title>function-list03</title>
    <desc>Created with Sketch.</desc>
    <g id="提供プラン" stroke="none" stroke-width="1" fill="none" fill-rule="evenodd">
        <g id="TOP" transform="translate(-888.000000, -5025.000000)">
            <g id="function-list03" transform="translate(888.000000, 5025.000000)">
                <rect id="Rectangle" fill="#F3E8E0" x="0" y="0" width="72" height="72" rx="36"></rect>
                <g id="レシートアイコン" transform="translate(20.000000, 17.000000)">
                    <path d="M25.4493504,4 L4.31947561,4 C2.42240308,4 0.884615385,5.51379914 0.884615385,7.38121209 L0.884615385,34.8179251 C0.884615385,35.6883795 1.24686841,36.5211815 1.88678129,37.1213621 C2.52770605,37.7220075 3.38982777,38.0384338 4.27306405,37.9962658 L23.5814875,37.0772019 L23.5814875,37.0766706 C24.2999897,37.0706941 24.9892823,36.9249321 25.6165804,36.6634903 C26.5779338,36.2631928 27.3926996,35.5966059 27.9696061,34.7563664 C28.5465126,33.9166581 28.8846154,32.8978519 28.8846154,31.8101159 L28.8846154,7.38121209 C28.8846154,5.51379914 27.3463555,4 25.4493504,4 Z M26.8888508,31.8101823 C26.8883786,32.2694486 26.7946785,32.7010235 26.6253573,33.0958092 C26.3714429,33.6870913 25.9441597,34.193971 25.4079982,34.5501083 C24.8718368,34.9067103 24.2314517,35.1131013 23.5331196,35.1135661 C23.0937613,35.1130349 22.6589228,35.0098394 22.2412187,34.8015891 C21.6169563,34.4891472 21.0283794,33.9345878 20.5885489,33.12111 C20.1496629,32.3086947 19.8624914,31.2378259 19.8619517,29.9213865 L19.8619517,29.3351512 C19.8619517,29.134272 19.7596843,28.9472717 19.5894187,28.8367052 C19.4190856,28.7266034 19.2034202,28.707744 19.0164923,28.7875645 L4.00849117,35.1532771 C3.75862428,35.2589296 3.4713853,35.2345585 3.24418452,35.0872692 C3.01698374,34.9399799 2.88037994,34.68996 2.88037994,34.4226081 L2.88037994,7.55579439 C2.88037994,6.67690635 3.60387411,5.96463185 4.49621731,5.96463185 L25.2719341,5.96463185 C26.164817,5.96463185 26.8888508,6.67690635 26.8888508,7.55579439 L26.8888508,31.8101823 L26.8888508,31.8101823 Z" id="Shape" fill="#CFA689" fill-rule="nonzero"></path>
                    <path d="M5.02134445,0.667641773 L27.8846154,0.667641773 C30.0937544,0.667641773 31.8846154,2.45850277 31.8846154,4.66764177 L31.8846154,32.236887 L31.8846154,32.236887" id="Path-2" stroke="#CFA689" stroke-width="2"></path>
                    <rect id="Rectangle" fill="#CFA689" fill-rule="nonzero" x="6.88461538" y="11" width="15" height="2"></rect>
                    <rect id="Rectangle" fill="#CFA689" fill-rule="nonzero" x="6.88461538" y="17" width="15" height="2"></rect>
                    <rect id="Rectangle" fill="#CFA689" fill-rule="nonzero" x="6.88461538" y="23" width="15" height="2"></rect>
                </g>
            </g>
        </g>
    </g>
</svg>