<?xml version="1.0" encoding="UTF-8"?>
<svg width="72px" height="72px" viewBox="0 0 72 72" version="1.1" xmlns="http://www.w3.org/2000/svg" xmlns:xlink="http://www.w3.org/1999/xlink">
    <!-- Generator: Sketch 57.1 (83088) - https://sketch.com -->
    <title>function-list05</title>
    <desc>Created with Sketch.</desc>
    <g id="提供プラン" stroke="none" stroke-width="1" fill="none" fill-rule="evenodd">
        <g id="TOP" transform="translate(-684.000000, -5273.000000)">
            <g id="function-list05" transform="translate(684.000000, 5273.000000)">
                <rect id="Rectangle" fill="#F3E8E0" x="0" y="0" width="72" height="72" rx="36"></rect>
                <g id="シンプルな電卓アイコン" transform="translate(20.000000, 14.000000)" fill="#CFA689" fill-rule="nonzero">
                    <path d="M0,6 L0,38 C1.29399067e-15,41.3137085 2.6862915,44 6,44 L25.625,44 C28.9387085,44 31.625,41.3137085 31.625,38 L31.625,6 C31.625,2.6862915 28.9387085,-1.4968968e-15 25.625,0 L6,0 C2.6862915,-2.79460044e-16 4.82366169e-16,2.6862915 0,6 Z M14.4401641,39.529875 L4.81516406,39.529875 L4.81516406,29.904875 L14.4401641,29.904875 L14.4401641,39.529875 Z M14.4401641,27.154875 L4.81516406,27.154875 L4.81516406,17.529875 L14.4401641,17.529875 L14.4401641,27.154875 Z M26.8151641,39.529875 L17.1901641,39.529875 L17.1901641,29.904875 L26.8151641,29.904875 L26.8151641,39.529875 Z M26.8151641,27.154875 L17.1901641,27.154875 L17.1901641,17.529875 L26.8151641,17.529875 L26.8151641,27.154875 Z M26.8151641,13.061125 L4.81516406,13.061125 L4.81516406,4.811125 L26.8151641,4.811125 L26.8151641,13.061125 Z" id="Shape"></path>
                    <rect id="Rectangle" x="19.2526641" y="21.654875" width="5.5" height="1.375"></rect>
                    <polygon id="Path" points="8.94016406 25.092375 10.3151641 25.092375 10.3151641 23.029875 12.3776641 23.029875 12.3776641 21.654875 10.3151641 21.654875 10.3151641 19.592375 8.94016406 19.592375 8.94016406 21.654875 6.87766406 21.654875 6.87766406 23.029875 8.94016406 23.029875"></polygon>
                    <polygon id="Path" points="7.85520312 37.3774844 9.62766406 35.6022734 11.400125 37.3774844 12.2863984 36.4885469 10.5139375 34.7160859 12.2863984 32.943625 11.400125 32.0573516 9.62766406 33.8298125 7.85520312 32.0573516 6.96901562 32.943625 8.74147656 34.7160859 6.96901562 36.4885469"></polygon>
                    <rect id="Rectangle" x="19.2526641" y="32.311125" width="5.5" height="1.375"></rect>
                    <rect id="Rectangle" x="19.2526641" y="35.748625" width="5.5" height="1.375"></rect>
                    <polygon id="Path" points="21.3487656 10.7072969 21.5273438 9.4263125 21.2225234 9.06374219 20.8291016 9.40749219 20.6505234 10.6911406 20.9566328 11.0456328"></polygon>
                    <polygon id="Path" points="21.6509219 8.51992969 21.8240859 7.24289844 21.5179766 6.88840625 21.1258437 7.22682812 20.9513047 8.51322656 21.2587891 8.87038281"></polygon>
                    <polygon id="Path" points="21.5904219 10.8603516 21.198375 11.2067656 21.5112734 11.5599687 22.8352266 11.5599687 23.2272734 11.2202578 22.91575 10.8603516"></polygon>
                    <polygon id="Path" points="23.3924453 7.07377344 23.7832031 6.72727344 23.4716797 6.37415625 22.1463516 6.37415625 21.7543047 6.71386719 22.0658281 7.07377344"></polygon>
                    <polygon id="Path" points="23.3306562 9.41419531 23.1574922 10.6911406 23.4636016 11.0456328 23.8570234 10.7072969 24.0302734 9.42089844 23.7241641 9.06374219"></polygon>
                    <polygon id="Path" points="23.4542344 8.5078125 23.7603437 8.87038281 24.1524766 8.52663281 24.3310547 7.24289844 24.0249453 6.88840625 23.6328125 7.22682812"></polygon>
                </g>
            </g>
        </g>
    </g>
</svg>