<?xml version="1.0" encoding="UTF-8"?>
<svg width="57px" height="72px" viewBox="0 0 57 72" version="1.1" xmlns="http://www.w3.org/2000/svg" xmlns:xlink="http://www.w3.org/1999/xlink">
    <!-- Generator: Sketch 57.1 (83088) - https://sketch.com -->
    <title>Group 3</title>
    <desc>Created with Sketch.</desc>
    <g id="トップ" stroke="none" stroke-width="1" fill="none" fill-rule="evenodd">
        <g id="Artboard-Copy-3" transform="translate(-692.000000, -3107.000000)">
            <g id="Group-3" transform="translate(676.000000, 3107.000000)">
                <rect id="Rectangle-Copy" x="0" y="0" width="88" height="72"></rect>
                <g id="コールセンターの人物アイコン素材-その3" transform="translate(16.000000, 0.000000)" fill="#FF9700" fill-rule="nonzero">
                    <path d="M56.064375,60.8691094 L55.5530625,57.9103594 C55.1138906,55.3632187 53.341875,53.1490781 50.8132969,51.9883594 L40.0490156,47.0425781 C38.7274219,46.436625 38.3495625,44.5204687 38.3114531,44.4168281 C38.194875,44.2444219 37.9975781,44.1406406 37.6945312,44.1406406 C37.6855312,44.1406406 37.67625,44.1406406 37.66725,44.1406406 C37.4093437,44.1734062 37.198125,44.3480625 37.128375,44.587125 L35.8862344,48.9467812 L28.1251406,63.0309375 L20.3834531,48.9936094 L19.1205,44.587125 C19.0532812,44.3491875 18.8415,44.1734062 18.4869844,44.1340312 C18.2636719,44.1340312 18.0585,44.2399219 17.9036719,44.5009219 C17.9000156,44.5206094 17.5262344,46.4345156 16.2009844,47.0425781 L5.43501562,51.9883594 C2.90742187,53.1500625 1.13596875,55.3630781 0.696515625,57.9103594 L0.185203125,60.8691094 C-0.015609375,62.0285625 0.270140625,63.6488437 1.37207812,64.4677031 C1.50173437,64.564875 1.6644375,64.7090156 1.87045312,64.8923906 C3.85185938,66.6502031 9.8814375,72 28.1251406,72 C46.3653281,72 52.3964531,66.6502031 54.3784219,64.8923906 C54.5847187,64.7101406 54.7479844,64.564875 54.8779219,64.4677031 C55.9802812,63.6477187 56.26575,62.0274375 56.064375,60.8691094 Z" id="Path"></path>
                    <path d="M33.2547188,17.6249531 C35.8633125,22.5205312 39.43575,29.2275 40.995,30.2013281 L41.290875,30.3858281 L42.375375,21.9178125 C42.6726562,18.198 41.4767813,14.6770312 39.0085312,12.0031875 C36.3105,9.0804375 32.3436094,7.40446875 28.1251406,7.40446875 C23.9063906,7.40446875 19.9393594,9.0804375 17.2413281,12.0031875 C14.7727969,14.6759062 13.5766406,18.198 13.8744844,21.9265313 L14.8611094,30.3094687 L15.1911562,29.9491875 C15.8719219,29.2078125 17.0985937,28.4338125 18.651375,27.453375 C22.2426562,25.1867812 27.6404062,21.7804219 31.8799687,15.060375 C32.2725938,15.7809375 32.7401719,16.6587187 33.2547188,17.6249531 Z" id="Path"></path>
                    <path d="M6.4839375,34.1275781 C6.66576562,34.8841406 7.3355625,35.4126094 8.11265625,35.4126094 C8.244,35.4126094 8.37548437,35.3961563 8.50429687,35.3656406 L11.3274844,34.6875469 C11.8660781,34.5587344 12.3020156,34.1689219 12.497625,33.6502969 L12.6139219,33.6578906 L12.5610469,33.4461094 C12.6246094,33.1797656 12.6262969,32.9187656 12.56625,32.6676094 L11.0944687,26.5764375 C10.7415,24.4528594 10.5624844,22.63725 10.5624844,21.1774219 C10.5624844,11.4931406 18.4411406,3.61476562 28.1251406,3.61476562 C37.8088594,3.61476562 45.687375,11.4931406 45.687375,21.1774219 C45.687375,22.636125 45.5083594,24.4528594 45.1296562,26.6440781 L43.6836094,32.6676094 C43.662375,32.7571875 43.6492969,32.84775 43.6442344,32.9428125 L43.5865781,33.071625 C43.5674531,33.1142344 41.6210625,37.3231406 35.5751719,38.509875 C35.2612969,37.9302187 34.6559062,37.5643125 33.9866719,37.5643125 L30.3439219,37.5643125 C29.3474531,37.5643125 28.53675,38.3755781 28.53675,39.3723281 L28.53675,40.7971406 C28.53675,41.7938906 29.3474531,42.6051563 30.3439219,42.6051563 L33.9866719,42.6051563 C34.7443594,42.6051563 35.4207656,42.1225313 35.6786719,41.4140625 C39.2972344,40.7939062 41.7173906,39.2709375 43.1157656,38.0939063 C44.564625,36.8755313 45.4307344,35.6274844 45.8557031,34.9124062 L47.7458437,35.3655 C47.874375,35.3960156 48.006,35.4124688 48.1373437,35.4124688 C48.9144375,35.4124688 49.5839531,34.884 49.7657812,34.1274375 L51.2119687,28.1039063 C51.4272656,27.2053125 50.8717969,26.299125 49.973625,26.0829844 L48.929625,25.8329531 C49.1774062,24.0707813 49.303125,22.5052031 49.303125,21.1774219 C49.3028437,9.50090625 39.8025,0 28.1251406,0 C16.4477812,0 6.9474375,9.50090625 6.9474375,21.1777031 C6.9474375,22.5053438 7.07301562,24.0709219 7.32079687,25.8321094 L6.27595312,26.0832656 C5.37764062,26.2994063 4.82245312,27.2055938 5.03817187,28.1041875 L6.4839375,34.1275781 Z" id="Path"></path>
                </g>
            </g>
        </g>
    </g>
</svg>