<?xml version="1.0" encoding="UTF-8"?>
<svg width="88px" height="72px" viewBox="0 0 88 72" version="1.1" xmlns="http://www.w3.org/2000/svg" xmlns:xlink="http://www.w3.org/1999/xlink">
    <!-- Generator: Sketch 54.1 (76490) - https://sketchapp.com -->
    <title>point_img3</title>
    <desc>Created with Sketch.</desc>
    <g id="Page-1" stroke="none" stroke-width="1" fill="none" fill-rule="evenodd">
        <g id="blayn-com_top-copy-3" transform="translate(-1036.000000, -1468.000000)">
            <g id="Group-3" transform="translate(1036.000000, 1468.000000)">
                <g id="point02" transform="translate(7.000000, 2.000000)" fill="#FF9700" fill-rule="nonzero">
                    <path d="M30.8333333,6.18562399 C44.4,6.18562399 55.5,14.8454976 55.5,25.9796207 C55.5,35.2580567 46.25,45.4643363 31.1416667,45.4643363 C26.2083333,45.4643363 22.8166667,44.5364927 19.7333333,43.6086491 C16.65,45.4643363 15.725,46.0828987 10.4833333,47.9385859 C11.7166667,43.2993679 11.7166667,41.1343995 11.4083333,38.0415875 C8.63333333,34.9487755 6.16666667,31.5466823 6.16666667,25.9796207 C6.16666667,15.1547788 17.2666667,6.18562399 30.8333333,6.18562399 Z M30.8333333,0 C14.4916667,0 0,10.824842 0,25.9796207 C0,31.2374011 1.85,36.4951815 5.24166667,40.5158371 C5.24166667,45.1550551 2.46666667,51.9592415 0,56.9077407 C6.78333333,55.6706159 16.3416667,52.8870851 20.35,50.4128355 C24.05,51.3406791 27.4416667,51.6499603 30.8333333,51.6499603 C49.025,51.6499603 61.3583333,39.2787123 61.3583333,25.9796207 C61.6666667,10.824842 46.8666667,0 30.8333333,0 Z M66.2916667,34.6394943 C65.675,36.1859003 65.0583333,37.7323063 64.4416667,38.9694311 C69.6833333,42.9900867 71.5333333,48.8664295 65.9833333,55.6706159 C65.9833333,57.8355843 65.9833333,58.7634279 66.2916667,61.5469587 C63.5166667,60.6191151 63.2083333,60.3098339 61.05,59.0727091 C54.575,60.6191151 47.7916667,61.2376775 42.2416667,56.2891783 C40.3916667,56.9077407 38.85,57.2170219 37,57.5263031 C41.625,63.4026458 50.2583333,66.4954578 60.4333333,64.0212082 C63.2083333,65.8768954 69.375,67.4233014 74,68.351145 C72.4583333,65.258333 70.6083333,60.6191151 70.6083333,57.5263031 C75.85,50.7221167 75.2333333,40.5158371 66.2916667,34.6394943 Z M20.0416667,22.8868087 C18.1916667,22.8868087 16.65,24.4332147 16.65,26.2889019 C16.65,28.1445891 18.1916667,29.6909951 20.0416667,29.6909951 C21.8916667,29.6909951 23.4333333,28.1445891 23.4333333,26.2889019 C23.4333333,24.4332147 21.8916667,22.8868087 20.0416667,22.8868087 Z M30.8333333,22.8868087 C28.9833333,22.8868087 27.4416667,24.4332147 27.4416667,26.2889019 C27.4416667,28.1445891 28.9833333,29.6909951 30.8333333,29.6909951 C32.6833333,29.6909951 34.225,28.1445891 34.225,26.2889019 C34.225,24.4332147 32.6833333,22.8868087 30.8333333,22.8868087 Z M41.625,22.8868087 C39.775,22.8868087 38.2333333,24.4332147 38.2333333,26.2889019 C38.2333333,28.1445891 39.775,29.6909951 41.625,29.6909951 C43.475,29.6909951 45.0166667,28.1445891 45.0166667,26.2889019 C45.0166667,24.4332147 43.475,22.8868087 41.625,22.8868087 Z" id="Shape"></path>
                </g>
                <rect id="Rectangle" x="0" y="0" width="88" height="72"></rect>
            </g>
        </g>
    </g>
</svg>