<?xml version="1.0" encoding="UTF-8"?>
<svg width="88px" height="72px" viewBox="0 0 88 72" version="1.1" xmlns="http://www.w3.org/2000/svg" xmlns:xlink="http://www.w3.org/1999/xlink">
    <!-- Generator: Sketch 54.1 (76490) - https://sketchapp.com -->
    <title>point_img1</title>
    <desc>Created with Sketch.</desc>
    <g id="Page-1" stroke="none" stroke-width="1" fill="none" fill-rule="evenodd">
        <g id="blayn-com_top-copy-3" transform="translate(-316.000000, -1468.000000)">
            <g id="Shape-2" transform="translate(316.000000, 1468.000000)">
                <path d="M35.3692946,28.2557576 C38.2904564,26.1301818 42.0082988,27.7243636 43.0705394,30.9127273 C41.2116183,29.5842424 39.0871369,29.5842424 37.2282158,30.9127273 C35.3692946,32.2412121 34.5726141,34.3667879 35.3692946,36.4923636 C32.4481328,34.3667879 32.4481328,30.1156364 35.3692946,28.2557576 Z M43.8672199,56.9510303 C45.9917012,57.7481212 52.8962656,59.608 61.1286307,65.4533333 L76,54.8254545 C72.2821577,49.5115152 73.3443983,45.5260606 69.3609959,40.2121212 C67.5020747,37.5551515 66.1742739,36.7580606 64.5809129,36.7580606 C64.0497925,36.7580606 63.253112,36.7580606 62.7219917,37.0237576 L64.0497925,38.8836364 C64.846473,39.9464242 63.253112,41.2749091 62.4564315,40.2121212 L61.1286307,38.6179394 C60.8630705,38.0865455 60.06639,37.8208485 59.5352697,37.8208485 C58.7385892,37.8208485 57.4107884,38.0865455 56.6141079,38.3522424 L58.2074689,40.7435152 C59.0041494,41.806303 57.4107884,43.1347879 56.6141079,42.072 L54.4896266,39.9464242 C54.2240664,39.4150303 53.4273859,39.1493333 52.8962656,39.1493333 C51.8340249,39.1493333 50.7717842,39.6807273 49.7095436,39.9464242 L51.3029046,42.337697 C52.0995851,43.4004848 50.5062241,44.7289697 49.7095436,43.6661818 L42.8049793,33.8353939 C40.6804979,30.9127273 35.9004149,34.1010909 38.0248963,37.2894545 L48.3817427,51.9027879 C47.3195021,51.3713939 45.1950207,51.105697 44.1327801,51.105697 C40.4149378,50.84 38.8215768,55.0911515 43.8672199,56.9510303 Z M36.4315353,49.5115152 L19.966805,49.5115152 L19.966805,12.3139394 L67.7676349,12.3139394 L67.7676349,32.2412121 C71.4854772,33.8353939 74.1410788,37.5551515 75.7344398,41.2749091 L75.7344398,12.3139394 C75.7344398,9.39127273 73.3443983,7 70.4232365,7 L17.3112033,7 C14.3900415,7 12,9.39127273 12,12.3139394 L12,49.5115152 C12,52.4341818 14.3900415,54.8254545 17.3112033,54.8254545 L35.3692946,54.8254545 C35.1037344,52.9655758 35.3692946,51.105697 36.4315353,49.5115152 Z" id="Shape" fill="#FF9700" fill-rule="nonzero"></path>
                <rect id="Rectangle-Copy" x="0" y="0" width="88" height="72"></rect>
            </g>
        </g>
    </g>
</svg>