<?xml version="1.0" encoding="UTF-8"?>
<svg width="88px" height="72px" viewBox="0 0 88 72" version="1.1" xmlns="http://www.w3.org/2000/svg" xmlns:xlink="http://www.w3.org/1999/xlink">
    <!-- Generator: Sketch 54.1 (76490) - https://sketchapp.com -->
    <title>point_img2</title>
    <desc>Created with Sketch.</desc>
    <g id="Page-1" stroke="none" stroke-width="1" fill="none" fill-rule="evenodd">
        <g id="blayn-com_top-copy-3" transform="translate(-676.000000, -1468.000000)" fill="#FF9700" fill-rule="nonzero">
            <g id="Group-2" transform="translate(676.000000, 1468.000000)">
                <path d="M46.5,7.88 C54.132,7.88 58.812,12.704 58.812,20.624 L58.812,46.976 C58.812,54.896 54.132,59.72 46.5,59.72 C38.868,59.72 34.188,54.896 34.188,46.976 L34.188,20.624 C34.188,12.704 38.868,7.88 46.5,7.88 Z M46.5,14.936 C43.476,14.936 41.82,16.952 41.82,20.696 L41.82,46.904 C41.82,50.648 43.476,52.664 46.5,52.664 C49.524,52.664 51.18,50.648 51.18,46.904 L51.18,20.696 C51.18,16.952 49.524,14.936 46.5,14.936 Z" id="0"></path>
                <polygon id="¥" points="20.55 40 25.55 40 25.55 43.6 20.2 43.6 20.2 47 25.55 47 25.55 50.6 20.2 50.6 20.2 57 14.9 57 14.9 50.6 9.55 50.6 9.55 47 14.9 47 14.9 43.6 9.55 43.6 9.55 40 14.55 40 7.65 22 13.25 22 17.6 34.1 17.7 34.1 21.85 22 27.35 22"></polygon>
                <path d="M66.576,38.784 L63.648,35.952 C65.184,34.128 65.928,33.48 67.2,32.904 C68.232,32.424 69.312,32.184 70.488,32.184 C71.568,32.184 72.672,32.424 73.704,32.856 C74.232,33.096 74.232,33.096 75.84,33.984 C77.568,34.944 78.36,35.232 79.272,35.232 C80.88,35.232 82.032,34.536 83.448,32.688 L86.4,35.784 C84.888,37.752 84.024,38.472 82.512,39.096 C81.528,39.504 80.376,39.72 79.296,39.72 C77.736,39.72 76.68,39.36 74.304,38.016 C72.096,36.768 71.352,36.48 70.464,36.48 C69.096,36.48 68.016,37.128 66.576,38.784 Z" id="〜"></path>
            </g>
        </g>
    </g>
</svg>