<?xml version="1.0" encoding="UTF-8"?>
<svg width="104px" height="104px" viewBox="0 0 104 104" version="1.1" xmlns="http://www.w3.org/2000/svg" xmlns:xlink="http://www.w3.org/1999/xlink">
    <!-- Generator: Sketch 57.1 (83088) - https://sketch.com -->
    <title>notice-img01</title>
    <desc>Created with Sketch.</desc>
    <g id="Page-1" stroke="none" stroke-width="1" fill="none" fill-rule="evenodd">
        <g id="製品概要(管理画面)" transform="translate(-790.000000, -932.000000)">
            <g id="notice-img01" transform="translate(790.000000, 932.000000)">
                <circle id="Oval" fill="#43B2E5" cx="52" cy="52" r="52"></circle>
                <g id="common/Lv1/icon/bule/sales" transform="translate(36.000000, 23.000000)" fill="#FFFFFF" fill-rule="nonzero">
                    <path d="M5.81818182,29.2682927 L5.81818182,32.195122 L2.90909091,32.195122 L2.90909091,29.2682927 L5.81818182,29.2682927 Z M8.72727273,26.3414634 L0,26.3414634 L0,35.1219512 L8.72727273,35.1219512 L8.72727273,26.3414634 Z M17.4545455,24.8780488 L17.4545455,32.195122 L14.5454545,32.195122 L14.5454545,24.8780488 L17.4545455,24.8780488 Z M20.3636364,21.9512195 L11.6363636,21.9512195 L11.6363636,35.1219512 L20.3636364,35.1219512 L20.3636364,21.9512195 Z M29.0909091,19.0243902 L29.0909091,32.195122 L26.1818182,32.195122 L26.1818182,19.0243902 L29.0909091,19.0243902 Z M32,16.097561 L23.2727273,16.097561 L23.2727273,35.1219512 L32,35.1219512 L32,16.097561 Z M32,0 L23.2727273,1.78682927 L25.7687273,4.28634146 L15.8050909,14.1395122 L11.44,9.74634146 L0.0349090909,21.1565854 L2.08581818,23.2317073 L11.4341818,13.8804878 L15.7847273,18.2604878 L27.8283636,6.35268293 L30.2530909,8.78195122 L32,0 Z" id="Shape"></path>
                </g>
            </g>
        </g>
    </g>
</svg>