<?xml version="1.0" encoding="UTF-8"?>
<svg width="104px" height="104px" viewBox="0 0 104 104" version="1.1" xmlns="http://www.w3.org/2000/svg" xmlns:xlink="http://www.w3.org/1999/xlink">
    <!-- Generator: Sketch 57.1 (83088) - https://sketch.com -->
    <title>notice-img02</title>
    <desc>Created with Sketch.</desc>
    <g id="Page-1" stroke="none" stroke-width="1" fill="none" fill-rule="evenodd">
        <g id="製品概要(管理画面)" transform="translate(-918.000000, -932.000000)">
            <g id="notice-img02" transform="translate(918.000000, 932.000000)">
                <circle id="Oval-Copy-2" fill="#7CBD67" cx="52" cy="52" r="52"></circle>
                <g id="ユーロを積み上げたお金アイコン2" transform="translate(37.000000, 25.000000)" fill="#FFFFFF" fill-rule="nonzero">
                    <path d="M23.5671592,13 C17.7679397,13 13.0666667,17.7021031 13.0666667,23.5 C13.0666667,29.2989475 17.7680053,34 23.5671592,34 C29.365328,34 34.0666667,29.2989475 34.0666667,23.5000657 C34.0666667,17.7021688 29.365328,13 23.5671592,13 Z M27.7400782,22.6392162 L24.8651263,22.6392162 L24.5552454,23.1203989 L24.5552454,24.271547 L27.7400782,24.271547 L27.7400782,24.2756838 L27.7400782,25.6710349 L27.7400782,25.9049942 L24.5552454,25.9049942 L24.5552454,28.3715151 L22.579073,28.3715151 L22.579073,25.9049942 L19.3922044,25.9049942 L19.3922044,25.6710349 L19.3922044,24.2756838 L19.3922044,24.271547 L22.579073,24.271547 L22.579073,23.1224344 L22.2671564,22.6392162 L19.3922044,22.6392162 L19.3922044,21.2428145 L21.3704125,21.2428145 L19.6898057,18.6286162 L21.3663411,18.6286162 L23.5672248,22.0523808 L25.7680429,18.6286162 L27.4445783,18.6286162 L25.7639059,21.2428802 L27.7400782,21.2428802 L27.7400782,22.6392162 Z" id="Shape"></path>
                    <path d="M17.0666667,3.50050643 C17.0666667,5.43424551 13.262074,7 8.56669939,7 C3.87132478,7 0.0666666667,5.43424551 0.0666666667,3.50050643 C0.0666666667,1.56676735 3.87125932,0 8.56663394,0 C13.2620086,0 17.0666667,1.56676735 17.0666667,3.50050643 Z" id="Path"></path>
                    <path d="M0.0666666667,9.61318197 C0.0666666667,11.4836789 3.87127397,13 8.56666667,13 C13.2620594,13 17.0666667,11.4836789 17.0666667,9.61318197 L17.0666667,8.77078136 C17.0666667,8.51230222 16.9275735,8.27011971 16.6974316,8.12749363 C16.4672897,7.98578653 16.174834,7.95999375 15.9211935,8.06144942 C15.9211935,8.06144942 13.2620594,9.59976482 8.56666667,9.59976482 C3.87127397,9.59976482 1.21416896,8.06138815 1.21416896,8.06138815 C0.958499347,7.95993249 0.665978228,7.98578653 0.436883594,8.12743236 C0.205759837,8.27011971 0.0666666667,8.51230222 0.0666666667,8.77078136 L0.0666666667,9.61318197 Z" id="Path"></path>
                    <path d="M11.0666667,16.4169615 C10.388406,17.5082799 9.88326378,18.7009923 9.57614499,19.9645887 C9.18297917,19.9894624 8.78584391,20 8.37769668,20 C3.78903343,20 0.0666666667,18.4827041 0.0666666667,16.6093344 L0.0666666667,15.7717156 C0.0666666667,15.5132374 0.199706658,15.2700755 0.427820945,15.1274499 C0.649917061,14.9857433 0.936996618,14.9599506 1.18611048,15.0614059 C1.18611048,15.0614059 3.78903343,16.5987968 8.37769668,16.5987968 C9.37005465,16.5987968 10.266378,16.5279742 11.0666667,16.4169615 Z" id="Path"></path>
                    <path d="M10.0666667,25.9645882 C9.65477459,25.9904425 9.22499462,26 8.79629062,26 C3.97651442,26 0.0666666667,24.4826855 0.0666666667,22.6150519 L0.0666666667,21.772644 C0.0666666667,21.5141626 0.20640736,21.2700788 0.446010867,21.1274515 C0.679293092,20.9857431 0.980831719,20.9599501 1.24249247,21.0614067 C1.24249247,21.0614067 3.97651442,22.5997354 8.79629062,22.5997354 C9.10314181,22.5997354 9.39835916,22.5949566 9.68732247,22.5844189 C9.67683183,22.7165084 9.67683183,22.8486593 9.67683183,22.9807488 C9.67683183,24.0049943 9.81025124,25.005346 10.0666667,25.9645882 Z" id="Path"></path>
                    <path d="M13.0666667,32.5328715 C11.7866581,32.8315274 10.2996812,33 8.70562666,33 C3.9359076,33 0.0666666667,31.4818477 0.0666666667,29.6142528 L0.0666666667,28.7718899 C0.0666666667,28.5134224 0.204956043,28.2693516 0.442071081,28.1276508 C0.672930488,27.9859501 0.971337401,27.9601585 1.2302806,28.0606294 C1.2302806,28.0606294 3.9359076,29.5988758 8.70562666,29.5988758 C9.48864533,29.5988758 10.2216855,29.5586874 10.8893078,29.4868875 C11.4570395,30.5992965 12.1901463,31.6244674 13.0666667,32.5328715 Z" id="Path"></path>
                </g>
            </g>
        </g>
    </g>
</svg>