<?xml version="1.0" encoding="UTF-8"?>
<svg width="59px" height="54px" viewBox="0 0 59 54" version="1.1" xmlns="http://www.w3.org/2000/svg" xmlns:xlink="http://www.w3.org/1999/xlink">
    <!-- Generator: Sketch 57.1 (83088) - https://sketch.com -->
    <title>point03</title>
    <desc>Created with Sketch.</desc>
    <g id="phase-2" stroke="none" stroke-width="1" fill="none" fill-rule="evenodd">
        <g id="ショールーム" transform="translate(-963.000000, -530.000000)" fill="#E18C1C" fill-rule="nonzero">
            <g id="Group-4" transform="translate(392.000000, 530.000000)">
                <g id="point03" transform="translate(571.000000, 0.000000)">
                    <path d="M24.3313953,5.28825606 C35.0372093,5.28825606 43.7965116,12.0503312 43.7965116,20.7444278 C43.7965116,27.9895083 36.497093,35.9590968 24.5747093,35.9590968 C20.681686,35.9590968 18.0052326,35.2345888 15.572093,34.5100807 C13.1389535,35.9590968 12.4090116,36.4421022 8.27267442,37.8911183 C9.24593023,34.2685781 9.24593023,32.5780593 9.00261628,30.1630324 C6.8127907,27.7480056 4.86627907,25.0914761 4.86627907,20.7444278 C4.86627907,12.2918339 13.6255814,5.28825606 24.3313953,5.28825606 Z M24.3313953,0.458202388 C11.4357558,0.458202388 0,8.91079631 0,20.7444278 C0,24.8499734 1.45988372,28.955519 4.13633721,32.0950539 C4.13633721,35.7175942 1.94651163,41.0306532 0,44.8946961 C5.35290698,43.9286854 12.8956395,41.7551612 16.0587209,39.8231398 C18.9784884,40.5476478 21.6549419,40.7891505 24.3313953,40.7891505 C38.6869186,40.7891505 48.4194767,31.1290432 48.4194767,20.7444278 C48.6627907,8.91079631 36.9837209,0.458202388 24.3313953,0.458202388 Z M52.3125,27.5065029 C51.8258721,28.7140163 51.3392442,29.9215298 50.8526163,30.8875405 C54.9889535,34.0270754 56.4488372,38.6156264 52.069186,43.9286854 C52.069186,45.6192042 52.069186,46.3437122 52.3125,48.5172364 C50.1226744,47.7927283 49.8793605,47.5512256 48.1761628,46.5852149 C43.0665698,47.7927283 37.7136628,48.2757337 33.3340116,44.4116908 C31.8741279,44.8946961 30.6575581,45.1361988 29.1976744,45.3777015 C32.8473837,49.9662525 39.6601744,52.3812793 47.6895349,50.4492578 C49.8793605,51.8982739 54.7456395,53.1057874 58.3953488,53.8302954 C57.1787791,51.4152686 55.7188953,47.7927283 55.7188953,45.3777015 C59.8552326,40.0646425 59.3686047,32.0950539 52.3125,27.5065029 Z M15.815407,18.329401 C14.3555233,18.329401 13.1389535,19.5369144 13.1389535,20.9859305 C13.1389535,22.4349466 14.3555233,23.64246 15.815407,23.64246 C17.2752907,23.64246 18.4918605,22.4349466 18.4918605,20.9859305 C18.4918605,19.5369144 17.2752907,18.329401 15.815407,18.329401 Z M24.3313953,18.329401 C22.8715116,18.329401 21.6549419,19.5369144 21.6549419,20.9859305 C21.6549419,22.4349466 22.8715116,23.64246 24.3313953,23.64246 C25.7912791,23.64246 27.0078488,22.4349466 27.0078488,20.9859305 C27.0078488,19.5369144 25.7912791,18.329401 24.3313953,18.329401 Z M32.8473837,18.329401 C31.3875,18.329401 30.1709302,19.5369144 30.1709302,20.9859305 C30.1709302,22.4349466 31.3875,23.64246 32.8473837,23.64246 C34.3072674,23.64246 35.5238372,22.4349466 35.5238372,20.9859305 C35.5238372,19.5369144 34.3072674,18.329401 32.8473837,18.329401 Z" id="Shape"></path>
                </g>
            </g>
        </g>
    </g>
</svg>