<?xml version="1.0" encoding="UTF-8"?>
<svg width="65px" height="54px" viewBox="0 0 65 54" version="1.1" xmlns="http://www.w3.org/2000/svg" xmlns:xlink="http://www.w3.org/1999/xlink">
    <!-- Generator: Sketch 57.1 (83088) - https://sketch.com -->
    <title>point02</title>
    <desc>Created with Sketch.</desc>
    <g id="phase-2" stroke="none" stroke-width="1" fill="none" fill-rule="evenodd">
        <g id="ショールーム" transform="translate(-688.000000, -530.000000)" fill="#E18C1C" fill-rule="nonzero">
            <g id="Group-4" transform="translate(392.000000, 530.000000)">
                <g id="point02" transform="translate(296.000000, 0.000000)">
                    <rect id="Rectangle" x="14.025974" y="14.0860853" width="10.5194805" height="39.2727273"></rect>
                    <path d="M45.0177456,20.3977737 C44.477271,21.1522596 44.1818182,22.0664637 44.1818182,23.0221633 C44.1818182,24.202173 44.619679,25.2969735 45.4148112,26.1250551 C46.2099434,26.9541806 47.2699945,27.4107607 48.3904877,27.4107607 C49.5121072,27.4107607 50.571908,26.9541806 51.3660391,26.1364076 C52.864827,24.5735439 52.9972239,22.1193116 51.7532187,20.3977737 L45.0177456,20.3977737 L45.0177456,20.3977737 Z" id="Path"></path>
                    <path d="M42.7792208,36.5276438 L42.7792208,53.3588126 L53.2987013,53.3588126 L53.2987013,36.7117796 C51.7106066,37.2656983 50.0176206,37.5532372 48.2916947,37.5532372 C46.3778171,37.5532372 44.5051467,37.1946637 42.7792208,36.5276438 Z" id="Path"></path>
                    <path d="M34.1506245,23.0910095 C34.1506245,19.2273747 35.6854985,15.598979 38.4940519,12.8623269 C38.746721,12.6160118 38.9995192,12.3797658 39.2727273,12.164665 L39.2727273,0.0601113173 L28.7532468,0.0601113173 L28.7532468,53.3588126 L39.2727273,53.3588126 L39.2727273,34.0274231 C38.9995192,33.8121963 38.746721,33.5769573 38.4940519,33.3307681 C35.6853693,30.5942418 34.1506245,26.9657202 34.1506245,23.0910095 Z" id="Path"></path>
                    <rect id="Rectangle" x="0" y="33.0211503" width="10.5194805" height="20.3376623"></rect>
                    <path d="M63.5932892,34.8562154 L58.0771514,29.4874247 C59.25372,27.670859 59.8902119,25.5529959 59.8902119,23.3335294 C59.8902119,20.2969722 58.7091239,17.445935 56.5655145,15.3041136 C54.4220307,13.1624175 51.5686135,11.9821892 48.5295215,11.9821892 C45.4904295,11.9821892 42.636008,13.1622921 40.493403,15.3041136 C38.3489148,17.4458096 37.1688312,20.2968468 37.1688312,23.3335294 C37.1688312,26.3700866 38.3489148,29.2220019 40.4925242,31.3638234 C42.636008,33.5055194 45.490304,34.6856223 48.5295215,34.6856223 C50.7513428,34.6856223 52.8709739,34.0491595 54.6900603,32.8720671 L60.0609474,38.3826006 C61.0622609,39.5885433 62.5398763,39.6604181 63.6820466,38.5193259 C64.8252212,37.3791117 64.8002386,35.8538087 63.5932892,34.8562154 Z M48.5296471,29.4255847 C46.9012572,29.4255847 45.3697848,28.7911289 44.2175712,27.6408798 C43.066362,26.4907562 42.4325064,24.9604357 42.4325064,23.3335294 C42.4325064,21.7064977 43.0664875,20.1771808 44.2175712,19.0270571 C45.3697848,17.8769335 46.9002528,17.2424777 48.5296471,17.2424777 C50.1570326,17.2424777 51.688505,17.8769335 52.8397143,19.0270571 C55.2168296,21.4021898 55.2168296,25.2667507 52.8397143,27.6418833 C51.688505,28.7921324 50.158037,29.4255847 48.5296471,29.4255847 Z" id="Shape"></path>
                </g>
            </g>
        </g>
    </g>
</svg>