<?xml version="1.0" encoding="UTF-8"?>
<svg width="59px" height="54px" viewBox="0 0 59 54" version="1.1" xmlns="http://www.w3.org/2000/svg" xmlns:xlink="http://www.w3.org/1999/xlink">
    <!-- Generator: Sketch 57.1 (83088) - https://sketch.com -->
    <title>point01</title>
    <desc>Created with Sketch.</desc>
    <g id="phase-2" stroke="none" stroke-width="1" fill="none" fill-rule="evenodd">
        <g id="ショールーム" transform="translate(-419.000000, -530.000000)" fill="#E18C1C" fill-rule="nonzero">
            <g id="Group-4" transform="translate(392.000000, 530.000000)">
                <g id="point01" transform="translate(27.000000, 0.000000)">
                    <path d="M21.3384869,19.6449087 C24.0057978,17.7081714 27.400557,19.1607244 28.3704883,22.0658302 C26.6731086,20.8553694 24.7332462,20.8553694 23.0358665,22.0658302 C21.3384869,23.276291 20.6110385,25.2130282 21.3384869,27.1497654 C18.671176,25.2130282 18.671176,21.3395537 21.3384869,19.6449087 Z M29.0979367,45.7908613 C31.0377991,46.5171378 37.3423521,48.2117829 44.859319,53.5378103 L58.4383562,43.8541241 C55.0435969,39.012281 56.0135281,35.3808987 52.376286,30.5390556 C50.6789064,28.1181341 49.4664924,27.3918576 48.0115955,27.3918576 C47.5266299,27.3918576 46.7991815,27.3918576 46.3142159,27.6339498 L47.5266299,29.3285948 C48.2540783,30.2969635 46.7991815,31.5074242 46.0717331,30.5390556 L44.859319,29.0865027 C44.6168362,28.6023184 43.8893878,28.3602262 43.4044222,28.3602262 C42.6769738,28.3602262 41.4645598,28.6023184 40.7371114,28.8444105 L42.1920082,31.0232399 C42.9194566,31.9916085 41.4645598,33.2020693 40.7371114,32.2337007 L38.7972489,30.2969635 C38.5547661,29.8127791 37.8273177,29.570687 37.3423521,29.570687 C36.3724208,29.570687 35.4024896,30.0548713 34.4325584,30.2969635 L35.8874552,32.4757928 C36.6149037,33.4441615 35.1600068,34.6546222 34.4325584,33.6862536 L28.1280055,24.7288439 C26.188143,22.0658302 21.8234525,24.9709361 23.763315,27.8760419 L33.2201444,41.1911104 C32.2502132,40.7069261 30.3103507,40.4648339 29.3404195,40.4648339 C25.9456602,40.2227418 24.4907634,44.0962163 29.0979367,45.7908613 Z M22.3084181,39.012281 L7.27448417,39.012281 L7.27448417,5.11937939 L50.9213892,5.11937939 L50.9213892,23.276291 C54.3161485,24.7288439 56.7409765,28.1181341 58.1958734,31.5074242 L58.1958734,5.11937939 C58.1958734,2.4563657 56.0135281,0.277536307 53.3462172,0.277536307 L4.84965611,0.277536307 C2.18234525,0.277536307 0,2.4563657 0,5.11937939 L0,39.012281 C0,41.6752947 2.18234525,43.8541241 4.84965611,43.8541241 L21.3384869,43.8541241 C21.0960041,42.159479 21.3384869,40.4648339 22.3084181,39.012281 Z" id="Shape"></path>
                </g>
            </g>
        </g>
    </g>
</svg>